<svg width="171" height="228" viewBox="0 0 171 228" fill="none" xmlns="http://www.w3.org/2000/svg">
<g clip-path="url(#clip0_153_925)">
<g filter="url(#filter0_i_153_925)">
<rect width="171" height="228" rx="8" fill="white"/>
</g>
<path d="M29.3603 32.792H28.1763V30.632H29.3603V32.792ZM34.8803 35.864H33.7123V22.808H34.8803V35.864ZM24.6563 32.36C26.395 32.3493 27.9043 32.3227 29.1843 32.28C30.4643 32.2267 31.7016 32.12 32.8963 31.96L32.9923 32.856C31.7443 33.0693 30.4483 33.2133 29.1043 33.288C27.7603 33.352 26.331 33.384 24.8163 33.384L24.6563 32.36ZM32.5923 25.384H24.9123V24.424H32.5923V25.384ZM28.7363 26.12C29.6536 26.12 30.3896 26.344 30.9443 26.792C31.5096 27.2293 31.7923 27.8107 31.7923 28.536C31.7923 29.2613 31.5096 29.8427 30.9443 30.28C30.3896 30.7173 29.6536 30.936 28.7363 30.936C27.8296 30.936 27.099 30.7173 26.5443 30.28C25.9896 29.8427 25.7123 29.2613 25.7123 28.536C25.7123 27.8107 25.9896 27.2293 26.5443 26.792C27.099 26.344 27.8296 26.12 28.7363 26.12ZM28.7363 27.064C28.171 27.064 27.7123 27.2027 27.3603 27.48C27.0083 27.7467 26.8323 28.0987 26.8323 28.536C26.8323 28.9733 27.0083 29.3253 27.3603 29.592C27.7123 29.8587 28.171 29.992 28.7363 29.992C29.323 29.992 29.7923 29.8587 30.1443 29.592C30.4963 29.3253 30.6723 28.9733 30.6723 28.536C30.6723 28.0987 30.4963 27.7467 30.1443 27.48C29.7923 27.2027 29.323 27.064 28.7363 27.064ZM29.3603 24.936H28.1763V22.824H29.3603V24.936ZM41.3439 32.28H40.1759V29.384H41.3439V32.28ZM46.9439 32.728H45.7759V22.824H46.9439V32.728ZM47.2639 35.56H38.3039V34.568H47.2639V35.56ZM39.5039 34.824H38.3039V31.768H39.5039V34.824ZM36.5279 28.856C38.2879 28.8347 39.7919 28.8027 41.0399 28.76C42.2879 28.7067 43.4986 28.6053 44.6719 28.456L44.7679 29.336C43.5519 29.5387 42.2719 29.672 40.9279 29.736C39.5946 29.8 38.1759 29.832 36.6719 29.832L36.5279 28.856ZM46.0799 31.4H43.1999V30.52H46.0799V31.4ZM40.6399 23.352C41.5679 23.352 42.3146 23.56 42.8799 23.976C43.4559 24.392 43.7439 24.9413 43.7439 25.624C43.7439 26.3067 43.4559 26.856 42.8799 27.272C42.3146 27.688 41.5679 27.896 40.6399 27.896C39.7119 27.896 38.9599 27.688 38.3839 27.272C37.8186 26.856 37.5359 26.3067 37.5359 25.624C37.5359 24.9413 37.8186 24.392 38.3839 23.976C38.9599 23.56 39.7119 23.352 40.6399 23.352ZM40.6399 24.248C40.0426 24.248 39.5573 24.376 39.1839 24.632C38.8213 24.8773 38.6399 25.208 38.6399 25.624C38.6399 26.04 38.8213 26.3707 39.1839 26.616C39.5573 26.8507 40.0426 26.968 40.6399 26.968C41.2266 26.968 41.7013 26.8507 42.0639 26.616C42.4373 26.3707 42.6239 26.04 42.6239 25.624C42.6239 25.208 42.4373 24.8773 42.0639 24.632C41.7013 24.376 41.2266 24.248 40.6399 24.248ZM56.5847 30.296H54.7127V27.96H56.5847V30.296ZM62.5527 30.296H60.6647V22.568H62.5527V30.296ZM51.5447 27.256C53.2194 27.256 54.7287 27.24 56.0727 27.208C57.4167 27.1653 58.702 27.0853 59.9287 26.968L60.0087 28.168C57.9394 28.4453 55.5874 28.584 52.9527 28.584L51.7527 28.568L51.5447 27.256ZM62.5527 33.816H55.2887V34.872H53.4327V32.616H60.6807V31.976H53.4007V30.696H62.5527V33.816ZM62.8407 35.816H53.4327V34.488H62.8407V35.816ZM61.2407 29.896H58.3447V28.76H61.2407V29.896ZM55.7047 22.76C56.6754 22.76 57.4594 22.9467 58.0567 23.32C58.6647 23.6827 58.9687 24.1627 58.9687 24.76C58.9687 25.368 58.67 25.8533 58.0727 26.216C57.4754 26.568 56.686 26.744 55.7047 26.744C54.7127 26.744 53.918 26.568 53.3207 26.216C52.7234 25.8533 52.4247 25.368 52.4247 24.76C52.4247 24.1627 52.7234 23.6827 53.3207 23.32C53.9287 22.9467 54.7234 22.76 55.7047 22.76ZM55.7047 24.008C55.2247 24.008 54.8514 24.072 54.5847 24.2C54.318 24.328 54.1847 24.5147 54.1847 24.76C54.1847 24.9947 54.318 25.176 54.5847 25.304C54.8514 25.432 55.2247 25.496 55.7047 25.496C56.1847 25.496 56.558 25.432 56.8247 25.304C57.0914 25.176 57.2247 24.9947 57.2247 24.76C57.2247 24.5147 57.0914 24.328 56.8247 24.2C56.558 24.072 56.1847 24.008 55.7047 24.008ZM77.0317 26.216H74.4397V24.712H77.0317V26.216ZM77.0317 28.76H74.4397V27.224H77.0317V28.76ZM74.1517 24.968H67.2397V23.432H74.1517V24.968ZM66.9037 28.68C70.093 28.68 72.5624 28.5733 74.3117 28.36L74.4077 29.752C72.5517 30.072 70.125 30.232 67.1277 30.232L66.9037 28.68ZM70.0717 29.224H68.2637V24.728H70.0717V29.224ZM73.1117 29.224H71.3037V24.728H73.1117V29.224ZM77.8637 30.696H75.9757V22.552H77.8637V30.696ZM73.4157 30.92C74.8237 30.92 75.917 31.1387 76.6957 31.576C77.485 32.0133 77.8797 32.632 77.8797 33.432C77.8797 34.2107 77.485 34.8187 76.6957 35.256C75.9064 35.6933 74.813 35.912 73.4157 35.912C72.029 35.912 70.941 35.6933 70.1517 35.256C69.3624 34.8187 68.9677 34.2107 68.9677 33.432C68.9677 32.632 69.3624 32.0133 70.1517 31.576C70.941 31.1387 72.029 30.92 73.4157 30.92ZM73.4157 32.392C71.677 32.392 70.8077 32.7387 70.8077 33.432C70.8077 34.1147 71.677 34.456 73.4157 34.456C75.1544 34.456 76.0237 34.1147 76.0237 33.432C76.0237 32.7387 75.1544 32.392 73.4157 32.392ZM88.8802 24.696H80.6562V23.192H88.8802V24.696ZM91.0882 29.64H79.2322V28.104H91.0882V29.64ZM85.0082 32.52H83.1522V29.096H85.0082V32.52ZM89.7122 24.328C89.7122 25.1813 89.6909 25.9387 89.6482 26.6C89.6055 27.2613 89.4935 28.008 89.3122 28.84L87.4562 28.632C87.6269 27.832 87.7335 27.1173 87.7762 26.488C87.8189 25.8587 87.8402 25.1387 87.8402 24.328V23.192H89.7122V24.328ZM90.0642 35.672H80.4962V34.152H90.0642V35.672ZM82.3522 34.408H80.4962V31.32H82.3522V34.408ZM88.1442 32.52H86.3042V29.096H88.1442V32.52ZM104.911 30.008H103.023V22.552H104.911V30.008ZM106.623 27.032H104.383V25.448H106.623V27.032ZM101.263 23.336C101.263 25.096 100.746 26.568 99.7112 27.752C98.6765 28.936 97.1779 29.7947 95.2152 30.328L94.4632 28.792C96.0312 28.3973 97.2205 27.8 98.0312 27C98.8525 26.2 99.2632 25.2933 99.2632 24.28V23.336H101.263ZM100.399 24.84H95.1032V23.336H100.399V24.84ZM104.911 35.752H96.4152V30.52H104.911V35.752ZM98.2552 34.248H103.055V32.04H98.2552V34.248ZM118.968 25.928H116.68V24.344H118.968V25.928ZM118.968 28.728H116.68V27.144H118.968V28.728ZM117.224 30.6H115.352V22.568H117.224V30.6ZM108.504 28.488C109.869 28.488 110.984 28.4613 111.848 28.408C112.722 28.3547 113.586 28.2533 114.44 28.104L114.616 29.624C113.762 29.7947 112.888 29.912 111.992 29.976C111.096 30.0293 109.933 30.056 108.504 30.056H107.384V28.488H108.504ZM113.352 27.368H109.272V29.432H107.384V25.944H111.512V24.856H107.368V23.368H113.352V27.368ZM112.92 30.824C114.285 30.824 115.362 31.0533 116.152 31.512C116.952 31.96 117.352 32.584 117.352 33.384C117.352 34.1733 116.957 34.7867 116.168 35.224C115.378 35.6613 114.296 35.88 112.92 35.88C111.554 35.88 110.477 35.6613 109.688 35.224C108.898 34.7867 108.504 34.1733 108.504 33.384C108.504 32.584 108.898 31.96 109.688 31.512C110.477 31.0533 111.554 30.824 112.92 30.824ZM112.92 32.28C112.077 32.28 111.437 32.376 111 32.568C110.562 32.7493 110.344 33.0213 110.344 33.384C110.344 33.736 110.562 34.0027 111 34.184C111.437 34.3653 112.077 34.456 112.92 34.456C114.637 34.456 115.496 34.0987 115.496 33.384C115.496 32.648 114.637 32.28 112.92 32.28ZM129.671 29.16H127.623V27.608H129.671V29.16ZM126.007 26.616C126.007 28.12 125.767 29.48 125.287 30.696C124.817 31.912 124.092 32.8133 123.111 33.4L122.039 31.96C122.924 31.4373 123.569 30.7013 123.975 29.752C124.38 28.792 124.583 27.7467 124.583 26.616V26.28H126.007V26.616ZM126.375 26.616C126.375 27.7147 126.572 28.712 126.967 29.608C127.372 30.504 128.007 31.192 128.871 31.672L127.863 33.096C126.86 32.5627 126.124 31.72 125.655 30.568C125.185 29.4053 124.951 28.088 124.951 26.616V26.28H126.375V26.616ZM128.359 26.328H122.535V24.808H128.359V26.328ZM126.343 26.04H124.583V23.016H126.343V26.04ZM133.511 35.912H131.735V22.552H133.511V35.912ZM130.855 35.288H129.095V22.76H130.855V35.288ZM141.455 31.592H139.583V29.256H141.455V31.592ZM146.431 30.136H134.607V28.616H146.431V30.136ZM140.511 31.08C141.919 31.08 143.023 31.2933 143.823 31.72C144.623 32.136 145.023 32.728 145.023 33.496C145.023 34.264 144.623 34.856 143.823 35.272C143.023 35.6987 141.919 35.912 140.511 35.912C139.082 35.912 137.962 35.6987 137.151 35.272C136.351 34.856 135.951 34.264 135.951 33.496C135.951 32.728 136.351 32.136 137.151 31.72C137.962 31.2933 139.082 31.08 140.511 31.08ZM140.511 32.536C139.615 32.536 138.949 32.616 138.511 32.776C138.085 32.9253 137.871 33.1653 137.871 33.496C137.871 34.136 138.751 34.456 140.511 34.456C142.261 34.456 143.135 34.136 143.135 33.496C143.135 32.856 142.261 32.536 140.511 32.536ZM140.879 24.152C140.879 24.824 140.682 25.4427 140.287 26.008C139.903 26.5627 139.327 27.0267 138.559 27.4C137.791 27.7733 136.858 28.0133 135.759 28.12L135.135 26.6C136.042 26.5253 136.799 26.3653 137.407 26.12C138.026 25.864 138.485 25.5653 138.783 25.224C139.082 24.872 139.231 24.5147 139.231 24.152V23.816H140.879V24.152ZM141.791 24.152C141.791 24.5147 141.941 24.872 142.239 25.224C142.538 25.5653 142.997 25.864 143.615 26.12C144.245 26.3653 145.018 26.5253 145.935 26.6L145.279 28.12C144.191 28.0133 143.263 27.7733 142.495 27.4C141.727 27.0267 141.146 26.5627 140.751 26.008C140.357 25.4427 140.159 24.824 140.159 24.152V23.816H141.791V24.152ZM145.359 24.632H135.711V23.112H145.359V24.632Z" fill="black"/>
<path d="M20.5295 69.68H34.0075V75.614H20.5295V69.68ZM50.8712 82.008H37.6232L37.2552 77.224L50.8712 55.512H58.3232V76.028H61.8652V82.008H58.3232V89H50.8712V82.008ZM50.8712 65.632L50.5492 66.23L44.4312 76.028H50.8712V65.632ZM64.7668 85.366C64.7668 84.2313 65.1501 83.296 65.9168 82.56C66.6834 81.824 67.6954 81.456 68.9528 81.456C70.1794 81.456 71.1608 81.824 71.8968 82.56C72.6634 83.296 73.0468 84.2313 73.0468 85.366C73.0468 86.5007 72.6634 87.436 71.8968 88.172C71.1608 88.8773 70.1794 89.23 68.9528 89.23C67.6954 89.23 66.6834 88.862 65.9168 88.126C65.1501 87.39 64.7668 86.47 64.7668 85.366ZM84.0289 69.036C85.8382 67.3187 88.0156 66.46 90.5609 66.46C92.5849 66.46 94.3022 66.966 95.7129 67.978C97.1542 68.99 98.2429 70.37 98.9789 72.118C99.7149 73.866 100.083 75.8133 100.083 77.96C100.083 80.1067 99.5922 82.054 98.6109 83.802C97.6602 85.55 96.2956 86.93 94.5169 87.942C92.7689 88.954 90.7602 89.46 88.4909 89.46C86.1296 89.46 84.0289 88.908 82.1889 87.804C80.3796 86.6693 78.9689 85.0747 77.9569 83.02C76.9449 80.9653 76.4389 78.5887 76.4389 75.89V69.036C76.4389 66.7053 76.8989 64.482 77.8189 62.366C78.7696 60.2193 80.1496 58.4867 81.9589 57.168C83.7989 55.8493 85.9762 55.19 88.4909 55.19C90.4536 55.19 92.2782 55.5733 93.9649 56.34C95.6822 57.1067 97.0622 58.1493 98.1049 59.468C99.1476 60.7867 99.6689 62.2433 99.6689 63.838H92.3089C92.1556 63.1633 91.7569 62.55 91.1129 61.998C90.4996 61.446 89.6562 61.17 88.5829 61.17C85.5469 61.17 84.0289 63.792 84.0289 69.036ZM83.8909 77.04C83.8909 79.156 84.2742 80.766 85.0409 81.87C85.8382 82.9433 86.9422 83.48 88.3529 83.48C89.6102 83.48 90.6376 82.9587 91.4349 81.916C92.2629 80.8733 92.6769 79.5393 92.6769 77.914C92.6769 76.258 92.2629 74.924 91.4349 73.912C90.6069 72.9 89.5182 72.394 88.1689 72.394C87.1569 72.394 86.2829 72.6393 85.5469 73.13C84.8416 73.59 84.2896 74.2033 83.8909 74.97V77.04ZM103.582 55.512H111.034V72.624L112.046 71.29L117.796 64.114H126.766L118.026 74.464L127.456 89H118.9L113.288 79.524L111.034 81.824V89H103.582V55.512ZM127.549 76.396C127.549 73.8813 127.948 71.658 128.745 69.726C129.573 67.794 130.754 66.3067 132.287 65.264C133.821 64.1907 135.63 63.654 137.715 63.654C140.353 63.654 142.377 64.5127 143.787 66.23L144.109 64.114H150.825V88.08C150.825 91.4533 149.691 94.0753 147.421 95.946C145.183 97.8473 142.177 98.798 138.405 98.798C136.719 98.798 134.986 98.4607 133.207 97.786C131.459 97.142 130.079 96.2067 129.067 94.98L132.287 90.472C133.913 92.1587 135.86 93.002 138.129 93.002C139.816 93.002 141.104 92.5727 141.993 91.714C142.913 90.8553 143.373 89.6287 143.373 88.034V86.976C141.901 88.632 140 89.46 137.669 89.46C135.615 89.46 133.821 88.9233 132.287 87.85C130.754 86.746 129.573 85.2433 128.745 83.342C127.948 81.4407 127.549 79.2787 127.549 76.856V76.396ZM135.001 76.856C135.001 78.8187 135.385 80.4133 136.151 81.64C136.918 82.836 138.068 83.434 139.601 83.434C140.491 83.434 141.227 83.296 141.809 83.02C142.423 82.7133 142.944 82.2687 143.373 81.686V71.382C142.576 70.278 141.334 69.726 139.647 69.726C138.114 69.726 136.949 70.3393 136.151 71.566C135.385 72.7927 135.001 74.4027 135.001 76.396V76.856Z" fill="black"/>
<g filter="url(#filter1_f_153_925)">
<path d="M0 126.604C0 126.604 27.5475 159.835 39.7498 159.835C51.952 159.835 67.4036 159.835 79.4995 159.835C91.5955 159.835 94.3929 175.941 105.22 175.941C116.047 175.941 127.974 175.941 138.358 175.941C148.743 175.941 174.399 194.221 174.399 194.221" stroke="url(#paint0_linear_153_925)" stroke-width="1.27882"/>
</g>
<path d="M0 126.604C0 126.604 27.5475 159.835 39.7498 159.835C51.952 159.835 67.4036 159.835 79.4995 159.835C91.5955 159.835 94.3929 175.941 105.22 175.941C116.047 175.941 127.974 175.941 138.358 175.941C148.743 175.941 174.399 194.221 174.399 194.221" stroke="url(#paint1_linear_153_925)" stroke-width="1.27882"/>
<circle cx="122.767" cy="175.678" r="3.67661" fill="url(#paint2_linear_153_925)"/>
</g>
<defs>
<filter id="filter0_i_153_925" x="0" y="0" width="171" height="228" filterUnits="userSpaceOnUse" color-interpolation-filters="sRGB">
<feFlood flood-opacity="0" result="BackgroundImageFix"/>
<feBlend mode="normal" in="SourceGraphic" in2="BackgroundImageFix" result="shape"/>
<feColorMatrix in="SourceAlpha" type="matrix" values="0 0 0 0 0 0 0 0 0 0 0 0 0 0 0 0 0 0 127 0" result="hardAlpha"/>
<feMorphology radius="2" operator="erode" in="SourceAlpha" result="effect1_innerShadow_153_925"/>
<feOffset/>
<feGaussianBlur stdDeviation="4"/>
<feComposite in2="hardAlpha" operator="arithmetic" k2="-1" k3="1"/>
<feColorMatrix type="matrix" values="0 0 0 0 0 0 0 0 0 0 0 0 0 0 0 0 0 0 0.1 0"/>
<feBlend mode="normal" in2="shape" result="effect1_innerShadow_153_925"/>
</filter>
<filter id="filter1_f_153_925" x="-1.29096" y="125.396" width="176.86" height="70.1454" filterUnits="userSpaceOnUse" color-interpolation-filters="sRGB">
<feFlood flood-opacity="0" result="BackgroundImageFix"/>
<feBlend mode="normal" in="SourceGraphic" in2="BackgroundImageFix" result="shape"/>
<feGaussianBlur stdDeviation="0.399631" result="effect1_foregroundBlur_153_925"/>
</filter>
<linearGradient id="paint0_linear_153_925" x1="87.1995" y1="126.604" x2="87.1995" y2="194.221" gradientUnits="userSpaceOnUse">
<stop stop-color="#2196F3"/>
<stop offset="1" stop-color="#BEEEFF"/>
</linearGradient>
<linearGradient id="paint1_linear_153_925" x1="87.1995" y1="126.604" x2="87.1995" y2="194.221" gradientUnits="userSpaceOnUse">
<stop stop-color="#2196F3"/>
<stop offset="1" stop-color="#BEEEFF"/>
</linearGradient>
<linearGradient id="paint2_linear_153_925" x1="122.767" y1="172.001" x2="122.767" y2="179.354" gradientUnits="userSpaceOnUse">
<stop stop-color="#93D6FC"/>
<stop offset="1" stop-color="#6EC1F9"/>
</linearGradient>
<clipPath id="clip0_153_925">
<rect width="171" height="228" fill="white"/>
</clipPath>
</defs>
</svg>
