<svg width="171" height="228" viewBox="0 0 171 228" fill="none" xmlns="http://www.w3.org/2000/svg">
<g clip-path="url(#clip0_153_926)">
<g filter="url(#filter0_i_153_926)">
<rect width="171" height="228" rx="8" fill="white"/>
</g>
<path d="M32.4228 32.792H31.2388V30.632H32.4228V32.792ZM37.9428 35.864H36.7748V22.808H37.9428V35.864ZM27.7188 32.36C29.4575 32.3493 30.9668 32.3227 32.2468 32.28C33.5268 32.2267 34.7641 32.12 35.9588 31.96L36.0548 32.856C34.8068 33.0693 33.5108 33.2133 32.1668 33.288C30.8228 33.352 29.3935 33.384 27.8788 33.384L27.7188 32.36ZM35.6548 25.384H27.9748V24.424H35.6548V25.384ZM31.7988 26.12C32.7161 26.12 33.4521 26.344 34.0068 26.792C34.5721 27.2293 34.8548 27.8107 34.8548 28.536C34.8548 29.2613 34.5721 29.8427 34.0068 30.28C33.4521 30.7173 32.7161 30.936 31.7988 30.936C30.8921 30.936 30.1615 30.7173 29.6068 30.28C29.0521 29.8427 28.7748 29.2613 28.7748 28.536C28.7748 27.8107 29.0521 27.2293 29.6068 26.792C30.1615 26.344 30.8921 26.12 31.7988 26.12ZM31.7988 27.064C31.2335 27.064 30.7748 27.2027 30.4228 27.48C30.0708 27.7467 29.8948 28.0987 29.8948 28.536C29.8948 28.9733 30.0708 29.3253 30.4228 29.592C30.7748 29.8587 31.2335 29.992 31.7988 29.992C32.3855 29.992 32.8548 29.8587 33.2068 29.592C33.5588 29.3253 33.7348 28.9733 33.7348 28.536C33.7348 28.0987 33.5588 27.7467 33.2068 27.48C32.8548 27.2027 32.3855 27.064 31.7988 27.064ZM32.4228 24.936H31.2388V22.824H32.4228V24.936ZM44.4064 32.28H43.2384V29.384H44.4064V32.28ZM50.0064 32.728H48.8384V22.824H50.0064V32.728ZM50.3264 35.56H41.3664V34.568H50.3264V35.56ZM42.5664 34.824H41.3664V31.768H42.5664V34.824ZM39.5904 28.856C41.3504 28.8347 42.8544 28.8027 44.1024 28.76C45.3504 28.7067 46.5611 28.6053 47.7344 28.456L47.8304 29.336C46.6144 29.5387 45.3344 29.672 43.9904 29.736C42.6571 29.8 41.2384 29.832 39.7344 29.832L39.5904 28.856ZM49.1424 31.4H46.2624V30.52H49.1424V31.4ZM43.7024 23.352C44.6304 23.352 45.3771 23.56 45.9424 23.976C46.5184 24.392 46.8064 24.9413 46.8064 25.624C46.8064 26.3067 46.5184 26.856 45.9424 27.272C45.3771 27.688 44.6304 27.896 43.7024 27.896C42.7744 27.896 42.0224 27.688 41.4464 27.272C40.8811 26.856 40.5984 26.3067 40.5984 25.624C40.5984 24.9413 40.8811 24.392 41.4464 23.976C42.0224 23.56 42.7744 23.352 43.7024 23.352ZM43.7024 24.248C43.1051 24.248 42.6198 24.376 42.2464 24.632C41.8838 24.8773 41.7024 25.208 41.7024 25.624C41.7024 26.04 41.8838 26.3707 42.2464 26.616C42.6198 26.8507 43.1051 26.968 43.7024 26.968C44.2891 26.968 44.7638 26.8507 45.1264 26.616C45.4998 26.3707 45.6864 26.04 45.6864 25.624C45.6864 25.208 45.4998 24.8773 45.1264 24.632C44.7638 24.376 44.2891 24.248 43.7024 24.248ZM64.8632 35.928H62.9752V22.552H64.8632V35.928ZM66.7512 29.048H64.4472V27.496H66.7512V29.048ZM56.2392 31.128C57.4232 31.128 58.4632 31.1013 59.3592 31.048C60.2552 30.984 61.1565 30.872 62.0632 30.712L62.2712 32.312C61.3432 32.472 60.4152 32.5787 59.4872 32.632C58.5699 32.6853 57.4872 32.712 56.2392 32.712H55.1352V31.128H56.2392ZM61.2312 25.336H57.0072V31.896H55.1352V23.8H61.2312V25.336ZM77.7837 35.928H75.8797V22.552H77.7837V35.928ZM70.7277 23.48C71.3784 23.48 71.965 23.6773 72.4877 24.072C73.0104 24.4667 73.4157 25.0267 73.7037 25.752C74.0024 26.4667 74.1517 27.304 74.1517 28.264C74.1517 29.224 74.0024 30.0667 73.7037 30.792C73.4157 31.5067 73.0104 32.0613 72.4877 32.456C71.965 32.84 71.3784 33.032 70.7277 33.032C70.0664 33.032 69.4744 32.84 68.9517 32.456C68.429 32.0613 68.0184 31.5067 67.7197 30.792C67.4317 30.0667 67.2877 29.224 67.2877 28.264C67.2877 27.304 67.4317 26.4667 67.7197 25.752C68.0184 25.0267 68.429 24.4667 68.9517 24.072C69.4744 23.6773 70.0664 23.48 70.7277 23.48ZM70.7277 25.224C70.2264 25.224 69.8317 25.4853 69.5437 26.008C69.2557 26.5307 69.1117 27.2827 69.1117 28.264C69.1117 29.2347 69.2557 29.9813 69.5437 30.504C69.8317 31.016 70.2264 31.272 70.7277 31.272C71.229 31.272 71.6237 31.016 71.9117 30.504C72.1997 29.9813 72.3437 29.2347 72.3437 28.264C72.3437 27.2933 72.1997 26.5467 71.9117 26.024C71.6237 25.4907 71.229 25.224 70.7277 25.224ZM82.8002 23.48C83.4615 23.48 84.0482 23.6773 84.5602 24.072C85.0722 24.456 85.4722 25.0107 85.7602 25.736C86.0482 26.4613 86.1922 27.304 86.1922 28.264C86.1922 29.224 86.0482 30.0667 85.7602 30.792C85.4722 31.5067 85.0722 32.0613 84.5602 32.456C84.0482 32.84 83.4615 33.032 82.8002 33.032C82.1495 33.032 81.5682 32.84 81.0562 32.456C80.5549 32.0613 80.1602 31.5067 79.8722 30.792C79.5842 30.0667 79.4402 29.224 79.4402 28.264C79.4402 27.304 79.5842 26.4667 79.8722 25.752C80.1602 25.0267 80.5549 24.4667 81.0562 24.072C81.5682 23.6773 82.1495 23.48 82.8002 23.48ZM82.8002 25.224C82.3202 25.224 81.9362 25.4907 81.6482 26.024C81.3709 26.5467 81.2322 27.2933 81.2322 28.264C81.2322 29.224 81.3709 29.9653 81.6482 30.488C81.9362 31.0107 82.3202 31.272 82.8002 31.272C83.2909 31.272 83.6802 31.0107 83.9682 30.488C84.2669 29.9653 84.4162 29.224 84.4162 28.264C84.4162 27.2933 84.2669 26.5467 83.9682 26.024C83.6802 25.4907 83.2909 25.224 82.8002 25.224ZM90.1922 35.928H88.3202V22.552H90.1922V35.928ZM89.1202 28.888H85.6322V27.368H89.1202V28.888ZM102.121 30.936H92.9367V29.432H102.121V30.936ZM103.401 34.376H91.5447V32.808H103.401V34.376ZM102.041 25.08H94.8407V29.848H92.9367V23.528H102.041V25.08ZM101.721 27.96H94.2967V26.472H101.721V27.96ZM111.8 29.992H109.896V27.976H111.8V29.992ZM110.84 23.096C111.458 23.096 112.013 23.2133 112.504 23.448C112.994 23.672 113.378 23.992 113.656 24.408C113.933 24.824 114.072 25.2987 114.072 25.832C114.072 26.344 113.933 26.808 113.656 27.224C113.378 27.6293 112.994 27.9493 112.504 28.184C112.013 28.408 111.458 28.52 110.84 28.52C110.21 28.52 109.645 28.408 109.144 28.184C108.642 27.9493 108.253 27.6293 107.976 27.224C107.698 26.808 107.56 26.344 107.56 25.832C107.56 25.2987 107.698 24.824 107.976 24.408C108.253 23.992 108.642 23.672 109.144 23.448C109.645 23.2133 110.21 23.096 110.84 23.096ZM110.84 24.552C110.37 24.552 109.992 24.664 109.704 24.888C109.426 25.112 109.288 25.4267 109.288 25.832C109.288 26.216 109.426 26.52 109.704 26.744C109.992 26.9573 110.37 27.064 110.84 27.064C111.298 27.064 111.661 26.9573 111.928 26.744C112.194 26.52 112.328 26.216 112.328 25.832C112.328 25.4267 112.194 25.112 111.928 24.888C111.661 24.664 111.298 24.552 110.84 24.552ZM117.304 32.76H115.416V22.568H117.304V32.76ZM118.936 28.328H116.648V26.744H118.936V28.328ZM117.736 35.656H108.584V34.136H117.736V35.656ZM110.456 34.792H108.584V31.864H110.456V34.792ZM106.904 29.528C110.189 29.528 112.792 29.384 114.712 29.096L114.84 30.456C112.856 30.84 110.274 31.032 107.096 31.032L106.904 29.528ZM125.696 24.44C125.696 25.2293 125.494 25.9547 125.088 26.616C124.683 27.2667 124.086 27.816 123.296 28.264C122.518 28.7013 121.584 28.9947 120.496 29.144L119.808 27.656C120.726 27.5387 121.504 27.3147 122.144 26.984C122.784 26.6533 123.264 26.264 123.584 25.816C123.904 25.368 124.064 24.9093 124.064 24.44V24.072H125.696V24.44ZM126.24 24.44C126.24 24.9093 126.4 25.368 126.72 25.816C127.04 26.264 127.52 26.6533 128.16 26.984C128.8 27.3147 129.579 27.5387 130.496 27.656L129.824 29.144C128.736 28.9947 127.798 28.7013 127.008 28.264C126.23 27.816 125.638 27.2667 125.232 26.616C124.827 25.9547 124.624 25.2293 124.624 24.44V24.072H126.24V24.44ZM126.048 35.896H124.176V31.032H126.048V35.896ZM131.056 31.432H119.232V29.912H131.056V31.432ZM130 24.744H120.304V23.272H130V24.744ZM136.345 31.048H134.505V28.456H136.345V31.048ZM140.457 31.048H138.569V28.456H140.457V31.048ZM137.465 22.68C138.958 22.68 140.115 22.8773 140.937 23.272C141.758 23.6667 142.169 24.2267 142.169 24.952C142.169 25.688 141.758 26.2533 140.937 26.648C140.115 27.032 138.958 27.224 137.465 27.224C135.95 27.224 134.782 27.032 133.961 26.648C133.139 26.2533 132.729 25.688 132.729 24.952C132.729 24.2267 133.139 23.6667 133.961 23.272C134.793 22.8773 135.961 22.68 137.465 22.68ZM137.465 24.088C136.526 24.088 135.827 24.1573 135.369 24.296C134.921 24.4347 134.697 24.6533 134.697 24.952C134.697 25.2613 134.921 25.4853 135.369 25.624C135.817 25.752 136.515 25.816 137.465 25.816C138.435 25.816 139.139 25.752 139.577 25.624C140.025 25.4853 140.249 25.2613 140.249 24.952C140.249 24.6533 140.019 24.4347 139.561 24.296C139.113 24.1573 138.414 24.088 137.465 24.088ZM143.369 29.256H131.545V27.768H143.369V29.256ZM141.945 33.624H134.777V34.776H132.921V32.28H140.089V31.592H132.905V30.184H141.945V33.624ZM142.265 35.816H132.921V34.376H142.265V35.816Z" fill="black"/>
<rect x="13" y="99" width="145.785" height="126.743" fill="white"/>
<g clip-path="url(#clip1_153_926)">
<path d="M7.97314 84.833H163.965V240.825H7.97314V84.833ZM53.0813 116.436C52.6819 116.268 52.2272 116.294 51.8495 116.506C51.2813 116.827 51.0091 117.496 51.1925 118.122C51.3759 118.748 51.9667 119.164 52.6178 119.127C53.2688 119.09 53.8081 118.608 53.9189 117.966C54.0296 117.323 53.6824 116.689 53.0813 116.436ZM50.3815 145.248C50.4426 144.699 50.4103 144.228 50.2651 143.694C49.8128 142.028 47.7936 138.394 46.7152 137.05C44.8249 134.693 42.993 135.8 41.9436 135.072C41.7178 134.915 41.6672 134.567 41.6103 134.317C42.2053 133.327 43.0942 132.201 42.8175 130.978C42.7004 130.461 42.4446 129.986 42.1313 129.563C42.1625 128.598 42.2711 127.671 41.5423 126.906C41.161 126.505 40.655 126.339 40.1098 126.348C39.369 126.359 38.6839 126.706 38.1868 127.247C37.8036 127.663 37.6404 128.102 37.5021 128.637C36.7684 128.242 35.9778 128.068 35.1582 128.293C33.4332 128.767 32.2948 130.408 30.3051 129.354C29.8024 129.088 29.2182 128.281 28.7979 128.156C28.5737 128.378 28.6145 128.866 28.6134 129.173C28.6083 130.593 29.0349 131.985 30.0551 133.006C30.7739 133.725 32.0143 134.436 33.0313 134.542L33.1797 134.48C33.2242 134.242 33.0903 134.101 33.0659 133.883C33.0223 133.491 33.9006 132.671 34.1784 132.481C34.8659 132.013 35.7102 131.926 36.5134 132.081C37.234 132.219 38.1657 132.676 38.5905 133.309C38.9225 133.803 38.9506 134.277 38.8618 134.846L38.81 135.2C36.8816 135.536 35.1832 135.841 33.9871 137.554C33.4151 138.374 30.6124 143.784 30.7431 144.444C30.8023 144.745 30.9877 145.049 31.2539 145.206C32.3176 145.835 34.9555 145.684 36.2229 145.689C35.9738 146.298 35.7469 146.901 35.556 147.53L35.5053 147.667C34.3106 148.332 33.0097 148.805 31.8041 149.468C27.1828 151.974 23.1626 155.456 20.0224 159.672C19.5025 160.364 18.2923 161.729 18.0957 162.535C18.0117 162.879 18.2104 163.263 18.3968 163.539C18.9727 164.392 20.1697 165.522 21.2082 165.692C21.6259 165.761 22.0401 165.669 22.3772 165.41C23.0111 164.923 23.9535 163.066 24.5142 162.29C26.9639 158.9 31.4734 154.176 35.2836 152.406C34.6918 155.808 34.6005 159.5 35.3633 162.881C35.5886 163.88 36.171 164.808 36.3171 165.819C36.4726 166.896 36.0684 168.036 36.1666 169.148C36.3308 171.008 36.8933 172.815 37.3552 174.617C37.6689 175.841 37.9343 177.084 38.2967 178.294C38.2865 178.306 38.2764 178.318 38.266 178.33C38.0724 178.546 37.8436 178.773 37.7402 179.049C37.5524 179.551 36.8961 181.633 37.1171 182.055C37.2216 182.254 37.5667 182.353 37.7723 182.394C38.4839 182.537 40.2805 182.618 40.8813 182.184C41.0351 182.072 41.0849 181.893 41.1039 181.71C41.169 181.081 40.8891 179.563 40.6472 178.953C40.5515 178.712 40.366 178.502 40.2027 178.303C40.1987 177.005 40.075 175.701 39.9938 174.406L39.6395 168.803C39.5515 167.591 39.3942 166.347 39.406 165.133C39.4352 162.131 40.2814 158.811 40.5704 155.767C40.9545 157.174 41.14 158.727 41.2914 160.178C41.4363 161.565 41.3053 165.014 42.0769 166.062C42.4617 166.584 43.1967 166.714 43.7955 166.805C43.7142 167.346 43.7047 167.881 43.8505 168.414C43.9863 168.91 44.2673 169.423 44.7466 169.659C45.0119 169.789 45.3097 169.807 45.5849 169.697C46.0792 169.5 46.3852 168.991 46.5671 168.516C46.7215 168.112 46.7973 167.683 46.7908 167.251C46.7845 166.344 46.3187 163.688 45.9599 162.841C46.9972 157.974 46.4236 153.893 45.0025 149.198C50.805 148.052 57.2849 149.339 62.6869 151.533C65.2944 152.592 67.7997 153.903 70.4243 154.925C71.7289 155.433 73.0946 155.85 74.449 156.203C75.107 156.375 75.9705 156.451 76.5738 156.732C76.4256 157.118 76.1835 157.573 76.1844 157.989C76.283 158.098 76.3899 158.176 76.5088 158.261C76.7686 158.721 76.6002 159.511 76.5959 160.031C74.6594 161.534 72.6469 162.913 70.6606 164.345L62.8919 170.024L43.8743 184.111L33.7149 191.476C31.5657 193.001 29.3594 194.466 27.2345 196.023C27.0058 196.191 26.7313 196.38 26.5924 196.63L26.6425 196.741C26.8555 196.759 26.9537 196.713 27.1432 196.629C28.5645 198.608 29.8032 200.712 31.2453 202.68C31.6495 203.231 32.9447 204.705 33.0834 205.251C33.0254 205.437 33.0214 205.534 33.0591 205.725C33.3407 205.706 33.4189 205.76 33.6285 205.945C34.6363 206.833 35.5075 207.93 36.4391 208.901C38.0316 210.553 39.7117 212.119 41.472 213.591C44.3851 216.017 47.4811 218.213 50.7329 220.162C62.3293 226.999 75.6848 230.265 89.1278 229.549C92.1338 229.413 95.1288 229.095 98.0961 228.596C112.538 226.059 126.328 218.843 136.168 207.901C136.829 207.166 137.542 206.383 138.102 205.569C138.302 205.768 138.428 205.913 138.715 205.939L138.787 205.817C138.751 205.531 138.554 205.39 138.358 205.201C140.606 202.915 142.878 199.465 144.469 196.685C144.633 196.778 144.8 196.897 144.995 196.893C145.112 196.891 145.091 196.871 145.174 196.775C145.102 196.522 144.977 196.456 144.784 196.282C145.584 195.025 146.231 193.523 146.89 192.184C152.15 181.429 154.379 169.443 153.338 157.516C153.204 156.028 153.119 154.515 152.851 153.044C153.632 152.344 155.513 151.014 155.591 149.99C155.653 149.168 154.698 147.657 154.15 147.067C153.979 146.883 153.729 146.654 153.467 146.615C153.077 146.557 152.541 146.903 152.225 147.112C151.155 147.821 150.194 148.771 149.212 149.602C148.042 150.585 146.824 151.509 145.562 152.37C143.023 154.11 139.634 155.812 136.618 156.485C136.589 154.539 136.584 152.45 136.199 150.536C135.917 149.129 135.28 147.857 134.903 146.484C134.491 144.982 134.817 143.226 134.956 141.695C135.602 142.935 136.43 144.288 137.488 145.223C137.892 145.58 138.414 145.918 138.978 145.856C139.392 145.811 139.725 145.555 139.973 145.234C141.221 143.621 141.452 139.265 141.223 137.232C141.172 136.779 141.102 136.128 140.711 135.841C140.232 135.488 139.46 135.492 138.9 135.587C138.647 135.63 138.222 135.717 138.086 135.964C137.569 136.904 139.024 137.698 139.233 138.526C139.47 139.465 138.909 140.866 138.423 141.667C137.518 140.155 136.96 138.376 136.087 137.011C135.25 135.703 134.067 135.386 132.656 135.075C132.641 133.517 133.112 133.611 133.612 132.36C133.879 131.692 133.841 130.968 133.538 130.317C133.089 129.349 132.296 128.845 131.328 128.506C131.288 128.384 131.249 128.254 131.19 128.14C130.546 126.908 129.939 125.627 128.537 125.121C126.966 124.555 125.118 125.142 123.973 126.316C123.211 127.097 122.736 128.068 121.692 128.547C119.638 129.489 119.432 127.592 118.583 127.26L118.469 127.354C118.336 127.812 118.329 128.37 118.383 128.841C118.505 129.887 119.107 130.74 119.927 131.369C120.847 132.073 122.23 132.346 123.366 132.177C125.782 131.818 125.37 130.159 126.474 128.718C126.845 128.233 127.352 127.908 127.963 127.829C128.473 127.764 128.908 127.817 129.315 128.131C129.347 128.524 128.603 129.215 128.469 129.682C128.257 130.418 128.6 131.295 128.55 132.066L128.542 132.185C129.132 133.202 129.332 133.576 129.467 134.779C127.361 135.721 126.122 135.609 124.807 137.805C124.034 139.096 121.789 144.275 122.169 145.584C122.242 145.834 122.379 146.022 122.615 146.144C123.933 146.825 125.977 145.725 127.264 145.304C125.976 149.43 123.971 151.872 124.857 156.419C123.301 156.124 121.712 155.496 120.226 154.955C116.947 153.764 113.766 152.343 110.479 151.172C109.006 150.648 107.519 150.111 105.977 149.83C103.862 149.466 101.705 149.424 99.5774 149.705C98.303 149.87 96.8148 150.066 95.621 150.541C95.2231 147.812 95.7943 142.47 96.7839 139.885C97.2444 138.682 97.8996 137.618 98.6662 136.587C100.453 134.185 102.447 131.961 104.117 129.465C106.906 125.296 108.541 120.493 109.854 115.687C110.296 114.072 110.634 112.41 111.136 110.814C111.309 110.265 111.696 109.726 111.973 109.22C112.516 108.23 113.282 106.54 113.121 105.386C113.012 104.612 111.903 103.863 111.305 103.436C110.899 103.147 110.697 102.556 110.298 102.363C110.025 102.231 109.728 102.363 109.468 102.255C109.024 102.07 108.991 101.81 108.412 101.915C107.74 102.037 106.888 102.478 106.499 103.051C105.762 104.135 105.827 106.064 105.957 107.315C106.029 108.006 106.203 108.686 106.051 109.377C105.811 110.472 105.358 111.573 104.989 112.635C103.083 118.115 100.533 124.284 96.2289 128.335C95.3708 129.143 94.2783 130.057 93.0908 130.299C91.851 130.553 90.658 130.013 89.5397 129.555C89.5377 128.98 89.5239 128.402 89.5557 127.828C90.176 127.146 90.4827 126.307 91.2236 125.733C91.4389 125.566 91.5332 125.452 91.5693 125.176C91.6244 124.755 91.6174 124.282 91.5873 123.858C91.4406 123.639 91.3022 123.416 91.12 123.225C91.3191 121.35 91.3761 119.404 90.1102 117.863C89.3884 116.984 88.374 116.386 87.2308 116.282C86.0856 116.179 84.9463 116.534 84.0628 117.27C83.1195 118.061 82.5099 119.295 82.4262 120.52C82.3668 121.392 82.5802 122.261 82.8316 123.09C82.4434 123.605 82.1785 124.079 82.2687 124.753C82.3336 125.238 82.6084 125.601 82.8814 125.994C82.2157 126.275 81.1786 126.39 80.5083 126.093C80.0806 125.904 79.8111 125.547 79.659 125.113C79.1312 123.604 79.713 123.048 79.8172 121.725C79.8301 121.56 79.7954 121.549 79.6674 121.452C79.2532 121.443 78.9181 121.694 78.6285 121.969C77.9887 122.577 77.7267 123.464 77.7311 124.328C77.7363 125.296 78.0684 126.286 78.7708 126.971C79.369 127.551 80.1717 127.871 81.0046 127.862C81.9095 127.851 82.6616 127.349 83.4225 126.918C83.5977 127.174 83.7698 127.432 83.9589 127.679C83.9727 128.287 83.9979 128.898 83.972 129.506L83.8762 129.564C82.758 130.239 81.3454 130.509 80.0696 130.188C76.6489 129.325 73.0751 124.397 71.3153 121.395C69.2253 117.829 67.8644 114.214 66.9308 110.206C66.758 109.465 66.5187 108.689 66.4098 107.938C66.2032 106.513 66.6869 105.172 66.1897 103.606C65.9496 102.85 65.297 102.002 64.5056 101.772C64.1712 101.674 63.8536 101.742 63.5591 101.919C63.1669 102.153 62.8517 102.56 62.462 102.774C61.8647 103.103 61.6123 102.417 61.1982 103.54C61.0323 103.659 60.8812 103.746 60.698 103.836C60.2457 104.064 59.8983 104.457 59.7283 104.934C59.3585 105.974 59.9603 107.37 60.4382 108.299C60.8348 109.07 61.6202 109.775 61.9031 110.565C62.3211 111.731 62.4577 113.627 62.7249 114.929C63.366 118.052 64.3828 121.226 65.7049 124.126C67.1463 127.292 69.0501 130.226 71.3539 132.832C73.0009 134.703 75.069 136.447 76.1958 138.705C77.1978 140.713 77.5568 143.183 77.7847 145.404C78.0582 148.068 78.0396 150.616 77.3905 153.233L77.2901 153.289C76.0793 153.186 74.7933 152.703 73.6384 152.339C72.1617 151.886 70.7031 151.377 69.2662 150.81C65.1712 149.159 61.2643 147.21 56.9185 146.256C55.9018 146.028 54.8755 145.844 53.8425 145.707C53.5051 145.663 50.537 145.386 50.4724 145.345C50.4349 145.322 50.4118 145.281 50.3815 145.248ZM93.565 109.632C93.3783 109.737 93.3082 109.971 93.4065 110.161C93.5047 110.351 93.736 110.429 93.9293 110.337C94.0603 110.275 94.1469 110.146 94.1553 110.002C94.1637 109.857 94.0924 109.719 93.9695 109.642C93.8465 109.565 93.6915 109.562 93.565 109.632ZM117.558 113.496C116.734 113.738 116.253 114.593 116.475 115.423C116.698 116.253 117.543 116.753 118.377 116.549C118.934 116.413 119.374 115.986 119.526 115.434C119.678 114.881 119.52 114.289 119.111 113.887C118.703 113.485 118.109 113.336 117.558 113.496ZM56.2522 125.394C56.1256 125.44 56.0339 125.551 56.0126 125.684C55.9912 125.817 56.0436 125.951 56.1494 126.035C56.2551 126.118 56.3978 126.138 56.5223 126.086C56.7089 126.008 56.7994 125.796 56.726 125.608C56.6525 125.419 56.442 125.324 56.2522 125.394ZM110.134 135.073C109.959 135.191 109.903 135.424 110.005 135.609C110.107 135.794 110.334 135.871 110.527 135.787C110.669 135.725 110.764 135.588 110.772 135.433C110.78 135.278 110.7 135.132 110.565 135.055C110.43 134.979 110.263 134.986 110.134 135.073Z" fill="#FEFEFF"/>
<path d="M95.6211 150.54C95.4887 150.591 95.3568 150.648 95.2198 150.684C94.8186 148.045 95.1889 145.52 95.5375 142.903C93.4847 140.609 92.9024 137.768 93.0649 134.747C93.137 133.406 93.3129 132.039 93.5103 130.712C92.8723 130.791 92.2874 130.808 91.6457 130.75C91.6182 132.91 91.0268 135.006 89.4387 136.558C88.7113 137.269 87.7769 137.806 86.7308 137.777C85.5532 137.743 84.4639 137.053 83.6935 136.199C82.3484 134.706 81.8419 132.796 81.6962 130.839C81.0526 130.834 80.4291 130.798 79.798 130.664C80.216 134.044 80.451 139.386 78.2566 142.172C78.1314 142.331 77.9948 142.482 77.8581 142.631C78.4632 146.155 78.7785 149.748 77.8309 153.249L77.7449 153.368C77.549 153.364 77.5442 153.356 77.3906 153.232C78.0397 150.616 78.0583 148.068 77.7848 145.403C77.557 143.183 77.1979 140.713 76.196 138.705C75.0692 136.447 73.001 134.703 71.354 132.832C69.0502 130.226 67.1465 127.291 65.7051 124.125C64.3829 121.226 63.3661 118.052 62.7251 114.928C62.4579 113.627 62.3212 111.731 61.9032 110.564C61.6203 109.775 60.8349 109.07 60.4384 108.299C59.9605 107.37 59.3586 105.973 59.7285 104.933C59.8985 104.456 60.2458 104.063 60.6981 103.836C60.8814 103.746 61.0325 103.658 61.1984 103.539C61.6124 102.417 61.8648 103.102 62.4621 102.774C62.8518 102.559 63.167 102.153 63.5593 101.918C63.8537 101.742 64.1714 101.674 64.5057 101.771C65.2971 102.002 65.9497 102.85 66.1898 103.606C66.687 105.172 66.2034 106.513 66.4099 107.938C66.5189 108.689 66.7582 109.465 66.9309 110.206C67.8646 114.214 69.2254 117.829 71.3154 121.394C73.0752 124.396 76.649 129.325 80.0697 130.187C81.3455 130.509 82.7582 130.238 83.8763 129.564L83.9721 129.506C83.998 128.898 83.9729 128.287 83.959 127.678C83.77 127.432 83.5978 127.174 83.4226 126.917C82.6617 127.349 81.9096 127.851 81.0048 127.862C80.1718 127.871 79.3691 127.55 78.7709 126.971C78.0685 126.286 77.7364 125.296 77.7312 124.327C77.7268 123.464 77.9888 122.576 78.6286 121.968C78.9182 121.693 79.2534 121.443 79.6676 121.452C79.7955 121.549 79.8303 121.559 79.8173 121.724C79.7131 123.048 79.1313 123.604 79.6592 125.112C79.8112 125.547 80.0807 125.904 80.5085 126.093C81.1787 126.39 82.2158 126.274 82.8815 125.994C82.6086 125.601 82.3338 125.238 82.2689 124.753C82.1787 124.078 82.4436 123.604 82.8317 123.089C82.5804 122.261 82.367 121.391 82.4264 120.52C82.51 119.295 83.1196 118.06 84.0629 117.27C84.9465 116.534 86.0858 116.179 87.2309 116.282C88.3742 116.386 89.3886 116.984 90.1103 117.862C91.3763 119.404 91.3193 121.35 91.1202 123.225C91.3024 123.416 91.4407 123.639 91.5874 123.858C91.6176 124.282 91.6246 124.755 91.5694 125.176C91.5333 125.452 91.439 125.565 91.2238 125.732C90.4828 126.307 90.1762 127.146 89.5558 127.828C89.524 128.402 89.5379 128.979 89.5399 129.554C90.6581 130.013 91.8511 130.553 93.0909 130.299C94.2784 130.056 95.371 129.143 96.2291 128.335C100.533 124.283 103.083 118.115 104.989 112.634C105.358 111.573 105.811 110.471 106.051 109.377C106.203 108.686 106.029 108.006 105.957 107.314C105.827 106.063 105.762 104.135 106.499 103.051C106.888 102.478 107.74 102.037 108.412 101.915C108.991 101.81 109.024 102.07 109.468 102.255C109.728 102.362 110.026 102.231 110.298 102.363C110.698 102.556 110.899 103.147 111.305 103.436C111.903 103.862 113.012 104.612 113.121 105.386C113.282 106.539 112.516 108.23 111.974 109.22C111.696 109.726 111.309 110.265 111.136 110.814C110.635 112.41 110.296 114.072 109.854 115.687C108.541 120.492 106.906 125.296 104.117 129.465C102.447 131.961 100.453 134.185 98.6663 136.587C97.8997 137.617 97.2445 138.682 96.784 139.885C95.7944 142.47 95.2232 147.812 95.6211 150.54ZM63.7236 102.176L63.6199 102.388C64.2324 103.244 65.3265 103.822 65.0822 105.095C64.9739 105.66 64.474 106.107 64.0029 106.392C63.495 106.699 62.168 107.355 61.5757 107.137C60.6349 106.791 60.7418 105.388 60.2373 104.896C59.9881 105.314 60.0616 105.914 60.1716 106.364C60.3639 107.151 60.7103 108.029 61.1626 108.704C61.5725 109.316 62.1942 109.837 62.3927 110.559C62.8153 112.096 62.9748 114.039 63.3425 115.666C64.5456 120.989 66.7836 126.332 70.1515 130.657C72.1116 133.174 74.536 135.282 76.3087 137.95C77.0588 139.318 77.3711 140.639 77.7934 142.119C80.0661 138.918 79.7294 134.187 79.3103 130.472C78.384 129.97 77.5189 129.452 76.7017 128.778C72.2147 125.078 68.7893 118.516 67.159 113.018C66.8191 111.872 66.6026 110.705 66.3234 109.544C66.1951 109.011 65.9762 108.45 65.9106 107.909C65.8378 107.31 65.9834 106.647 66.011 106.045C66.0663 104.839 65.9196 103.012 64.7123 102.389C64.3875 102.221 64.0844 102.183 63.7236 102.176ZM108.349 102.365C108.26 102.423 108.076 102.499 108.067 102.61C108.04 102.926 108.651 103.865 108.763 104.31L108.737 104.411C108.636 104.779 108.409 105.123 108.38 105.496C108.483 105.635 108.543 105.671 108.688 105.758C109.166 105.393 109.365 105.081 109.449 104.476C109.534 103.86 109.481 103.065 109.069 102.565C108.975 102.45 108.88 102.393 108.744 102.335L108.349 102.365ZM109.658 102.646C109.881 103.73 110.113 104.236 109.641 105.304C109.539 105.533 109.317 105.799 109.468 106.008L109.877 106.196C110.339 105.896 110.46 105.551 110.564 105.018C110.685 104.396 110.694 103.555 110.322 103.017C110.14 102.755 109.968 102.697 109.658 102.646ZM63.1364 102.694C63.0122 102.903 62.8916 103.033 62.9425 103.29C63.0474 103.819 63.4376 104.272 63.5676 104.79C63.6671 105.186 63.5719 105.713 63.7319 106.073C63.8329 106.063 63.9336 106.055 64.0339 106.041C64.356 105.429 64.5383 104.827 64.3315 104.139C64.1388 103.499 63.6827 103.052 63.1364 102.694ZM107.522 102.739C107.279 102.9 107.048 103.053 106.834 103.252L106.795 103.345C106.26 104.655 106.253 106.093 106.424 107.476C106.499 108.085 106.613 108.69 106.504 109.303C106.249 110.735 105.622 112.225 105.135 113.592C104.423 115.591 103.676 117.635 102.774 119.555C101.104 123.111 97.5987 128.878 93.9689 130.529C93.5466 134.213 92.7701 138.701 95.278 141.855C95.406 142.014 95.537 142.172 95.6709 142.327C96.0626 140.337 96.5257 138.995 97.6229 137.264C99.4095 134.771 101.484 132.492 103.231 129.974C106.169 125.738 107.948 120.898 109.305 115.956C109.753 114.325 110.086 112.655 110.57 111.036C111.223 108.845 112.667 107.924 112.618 105.264L112.218 104.86C112.178 105.474 112.149 106.729 111.601 107.121C111.386 107.275 110.964 107.341 110.706 107.269C110.466 107.201 110.294 107.032 110.114 106.87C109.92 106.695 109.822 106.646 109.579 106.578C108.836 106.369 108.053 106.114 107.651 105.399C107.478 105.091 107.355 104.794 107.392 104.437L107.473 104.338C107.71 104.546 107.845 104.879 108.132 104.99C108.284 104.81 108.303 104.533 108.279 104.305C108.214 103.706 107.813 103.241 107.522 102.739ZM62.2026 103.181C61.95 103.292 61.8488 103.285 61.7315 103.543C61.7935 104.66 62.6925 105.54 62.7977 106.663C63.0828 106.377 63.172 106.18 63.1672 105.775C63.1585 105.039 62.8169 103.746 62.2603 103.226C62.2425 103.21 62.2218 103.196 62.2026 103.181ZM111.068 103.771C111.041 104.36 111.078 105.083 110.895 105.642C110.784 105.983 110.402 106.217 110.394 106.573C110.59 106.704 110.766 106.793 110.984 106.882C111.417 106.616 111.573 106.308 111.699 105.821C111.833 105.305 111.837 104.615 111.554 104.142C111.445 103.958 111.254 103.861 111.068 103.771ZM60.7977 104.105C60.6647 104.339 60.6303 104.403 60.6918 104.666C60.8265 105.243 61.2665 106.413 61.7817 106.71C61.87 106.761 62.0135 106.786 62.1087 106.808C62.2507 106.596 62.2972 106.537 62.2403 106.284C62.124 105.766 61.7422 104.448 61.2814 104.124C61.1778 104.052 60.9254 104.1 60.7977 104.105ZM86.2086 116.76C85.0513 117.04 84.1749 117.545 83.5343 118.576C82.8648 119.654 82.6994 120.914 83.0068 122.138C83.0848 122.441 83.1725 122.74 83.27 123.037C83.3501 121.828 83.5698 120.727 84.546 119.897C85.4029 119.168 86.4799 119.039 87.556 119.147C87.6286 119.154 87.7013 119.162 87.7738 119.171C88.6584 119.404 89.4081 119.779 89.8899 120.597C90.3993 121.463 90.4437 122.568 90.5556 123.544C90.848 121.805 91.0128 119.897 89.9353 118.375C89.3257 117.514 88.4139 116.926 87.3675 116.768C86.9926 116.711 86.5857 116.728 86.2086 116.76ZM86.353 119.575C85.4847 119.8 84.7213 120.136 84.257 120.952C83.7458 121.85 83.811 122.851 83.5402 123.81C83.2766 123.813 83.1061 123.762 82.8777 123.911C82.7083 124.227 82.6856 124.711 82.7845 125.056C82.833 125.225 82.8971 125.336 83.0508 125.424C83.1457 125.2 83.1629 124.977 83.1899 124.738L83.2619 124.787C83.4749 126.012 83.878 127.095 84.9542 127.833C85.5752 128.259 86.409 128.533 87.1613 128.375C87.3124 128.343 87.4627 128.308 87.6122 128.268C88.5006 127.981 89.3954 127.587 89.8431 126.709C90.2308 125.949 90.1644 125.05 90.3701 124.6C90.401 124.532 90.4749 124.494 90.5273 124.442L90.645 124.427C90.7952 124.792 90.7438 125.318 90.7508 125.712C90.9642 125.29 91.3565 124.535 91.1348 124.07C91.0297 123.85 90.793 123.773 90.5865 123.683C90.3644 123.587 90.2276 123.545 90.1384 123.302C89.6864 122.07 89.9342 120.592 88.5178 119.899C87.8702 119.582 87.0624 119.51 86.353 119.575ZM79.1198 122.13C78.4926 122.842 78.1645 123.543 78.2178 124.519C78.265 125.384 78.6171 126.257 79.2956 126.818C79.8519 127.278 80.5529 127.455 81.2645 127.366C81.6537 127.317 81.9883 127.173 82.336 127C82.618 126.828 82.8962 126.658 83.1629 126.463C82.1726 126.744 81.1897 127.003 80.2317 126.442C79.5948 126.068 79.2253 125.444 79.0707 124.734C78.8859 123.887 78.9944 123.053 79.2238 122.228C79.1905 122.194 79.1626 122.151 79.1198 122.13ZM84.4715 128.065C84.4619 129.132 84.3153 130.22 84.7934 131.201C84.9026 131.424 85.0392 131.648 85.028 131.903L84.9283 132.003C84.6636 131.919 84.5321 131.747 84.4081 131.507C84.1954 131.095 84.0472 130.61 83.9462 130.158C83.3504 130.365 82.7484 130.561 82.1637 130.798C82.3184 132.913 82.9032 134.979 84.5694 136.416C85.2341 136.99 86.0794 137.402 86.976 137.321C87.6786 137.258 88.224 136.916 88.782 136.52C90.2659 135.173 91.0859 133.371 91.1826 131.367C91.1935 131.143 91.1918 130.924 91.1779 130.7C90.6239 130.522 90.0726 130.334 89.5245 130.137C89.3461 130.751 89.1561 131.593 88.615 131.985L88.4922 131.989C88.3894 131.766 88.4787 131.661 88.5626 131.432C89.1942 129.716 89.0224 129.936 89.0472 128.152C87.9854 128.683 86.9638 129.036 85.7711 128.66C85.327 128.52 84.8732 128.3 84.4715 128.065Z" fill="black"/>
<path d="M76.3083 137.951C74.5356 135.282 72.1112 133.174 70.1511 130.657C66.7832 126.333 64.5452 120.99 63.3421 115.666C62.9744 114.039 62.8149 112.097 62.3923 110.56C62.1938 109.838 61.5721 109.316 61.1622 108.705C60.7099 108.03 60.3635 107.151 60.1712 106.364C60.0612 105.914 59.9877 105.314 60.2369 104.896C60.7414 105.388 60.6345 106.791 61.5753 107.137C62.1676 107.355 63.4946 106.699 64.0025 106.392C64.4736 106.108 64.9735 105.66 65.0818 105.095C65.3261 103.822 64.232 103.245 63.6195 102.389L63.7232 102.177C64.084 102.184 64.3871 102.222 64.7119 102.389C65.9192 103.013 66.0659 104.84 66.0106 106.045C65.983 106.647 65.8374 107.311 65.9102 107.909C65.9758 108.45 66.1947 109.012 66.323 109.545C66.6022 110.705 66.8187 111.872 67.1586 113.018C68.7889 118.516 72.2143 125.079 76.7013 128.778C77.5185 129.452 78.3836 129.97 79.3099 130.473C79.729 134.187 80.0657 138.918 77.793 142.119C77.3707 140.639 77.0584 139.319 76.3083 137.951Z" fill="#FEFEFF"/>
<path d="M108.763 104.31C108.65 103.865 108.04 102.926 108.067 102.61C108.076 102.499 108.259 102.423 108.349 102.365L108.744 102.335C108.88 102.393 108.975 102.45 109.069 102.565C109.481 103.066 109.534 103.86 109.449 104.476C109.365 105.081 109.166 105.393 108.687 105.758C108.543 105.671 108.482 105.635 108.379 105.496C108.409 105.123 108.636 104.779 108.736 104.411L108.763 104.31Z" fill="#FEFEFF"/>
<path d="M109.877 106.196L109.468 106.008C109.317 105.799 109.539 105.533 109.641 105.304C110.113 104.236 109.881 103.73 109.658 102.646C109.968 102.696 110.14 102.755 110.322 103.017C110.694 103.554 110.685 104.396 110.564 105.017C110.46 105.55 110.339 105.895 109.877 106.196Z" fill="#FEFEFF"/>
<path d="M64.0336 106.041C63.9332 106.055 63.8325 106.064 63.7315 106.073C63.5716 105.713 63.6668 105.186 63.5673 104.79C63.4372 104.272 63.0471 103.819 62.9421 103.29C62.8912 103.034 63.0119 102.903 63.136 102.694C63.6823 103.052 64.1384 103.499 64.3311 104.14C64.538 104.827 64.3556 105.429 64.0336 106.041Z" fill="#FEFEFF"/>
<path d="M106.834 103.252C107.047 103.053 107.279 102.9 107.522 102.739C107.812 103.241 108.214 103.706 108.278 104.305C108.303 104.533 108.284 104.81 108.131 104.99C107.845 104.879 107.71 104.546 107.473 104.338L107.392 104.437C107.355 104.794 107.478 105.091 107.651 105.399C108.053 106.114 108.836 106.369 109.579 106.578C109.822 106.646 109.92 106.695 110.114 106.87C110.294 107.032 110.466 107.201 110.706 107.269C110.964 107.341 111.386 107.275 111.601 107.12C112.149 106.728 112.178 105.474 112.218 104.86L112.618 105.264C112.667 107.924 111.223 108.845 110.57 111.036C110.086 112.655 109.753 114.325 109.305 115.955C107.948 120.898 106.169 125.738 103.231 129.974C101.484 132.492 99.4095 134.771 97.6229 137.264C96.5256 138.995 96.0625 140.337 95.6709 142.326C95.537 142.172 95.406 142.014 95.278 141.855C92.7701 138.701 93.5465 134.213 93.9688 130.529C97.5987 128.878 101.104 123.111 102.774 119.555C103.676 117.635 104.423 115.59 105.135 113.592C105.622 112.225 106.249 110.735 106.504 109.303C106.613 108.69 106.499 108.085 106.423 107.476C106.253 106.092 106.26 104.655 106.795 103.345L106.834 103.252Z" fill="#FEFEFF"/>
<path d="M62.7976 106.663C62.6924 105.54 61.7934 104.66 61.7314 103.543C61.8487 103.285 61.9499 103.293 62.2025 103.182C62.2217 103.197 62.2424 103.21 62.2602 103.227C62.8168 103.746 63.1584 105.039 63.1671 105.775C63.1719 106.181 63.0827 106.377 62.7976 106.663Z" fill="#FEFEFF"/>
<path d="M110.984 106.883C110.766 106.794 110.59 106.705 110.394 106.574C110.402 106.218 110.783 105.984 110.895 105.643C111.077 105.084 111.04 104.361 111.068 103.771C111.253 103.862 111.444 103.959 111.554 104.143C111.836 104.615 111.832 105.306 111.699 105.822C111.573 106.309 111.416 106.617 110.984 106.883Z" fill="#FEFEFF"/>
<path d="M62.1085 106.808C62.0133 106.786 61.8698 106.762 61.7814 106.711C61.2662 106.413 60.8263 105.243 60.6916 104.666C60.6301 104.403 60.6645 104.34 60.7975 104.105C60.9252 104.1 61.1776 104.052 61.2812 104.125C61.742 104.448 62.1237 105.766 62.2401 106.285C62.2969 106.537 62.2505 106.597 62.1085 106.808Z" fill="#FEFEFF"/>
<path d="M93.929 110.338C93.7357 110.429 93.5045 110.351 93.4062 110.161C93.308 109.971 93.378 109.737 93.5648 109.633C93.6912 109.562 93.8463 109.566 93.9692 109.642C94.0922 109.719 94.1635 109.857 94.1551 110.002C94.1467 110.147 94.06 110.275 93.929 110.338Z" fill="black"/>
<path d="M118.377 116.549C117.543 116.753 116.698 116.253 116.475 115.423C116.253 114.593 116.734 113.737 117.558 113.496C118.108 113.335 118.703 113.485 119.111 113.887C119.52 114.289 119.678 114.881 119.526 115.433C119.374 115.986 118.934 116.413 118.377 116.549ZM117.797 113.964C117.228 114.074 116.85 114.617 116.946 115.188C117.042 115.76 117.576 116.15 118.15 116.067C118.533 116.012 118.856 115.754 118.994 115.393C119.132 115.031 119.064 114.623 118.815 114.327C118.567 114.03 118.177 113.892 117.797 113.964Z" fill="#2196F3"/>
<path d="M118.15 116.067C117.577 116.15 117.042 115.76 116.946 115.188C116.85 114.617 117.228 114.073 117.797 113.964C118.177 113.892 118.567 114.03 118.815 114.327C119.064 114.623 119.132 115.031 118.994 115.393C118.856 115.754 118.533 116.012 118.15 116.067Z" fill="#FEFEFF"/>
<path d="M51.8495 116.507C52.2272 116.294 52.6819 116.268 53.0813 116.436C53.6824 116.689 54.0296 117.323 53.9188 117.966C53.8081 118.608 53.2688 119.09 52.6177 119.127C51.9667 119.165 51.3759 118.748 51.1925 118.122C51.0091 117.496 51.2813 116.827 51.8495 116.507ZM52.1601 116.757C51.6955 116.928 51.418 117.405 51.4995 117.893C51.5811 118.382 51.9985 118.743 52.4936 118.753C52.9885 118.764 53.421 118.421 53.5231 117.936C53.6253 117.452 53.3683 116.963 52.9111 116.773C52.6718 116.673 52.4036 116.667 52.1601 116.757Z" fill="#2196F3"/>
<path d="M52.9112 116.772C53.3683 116.963 53.6253 117.451 53.5231 117.936C53.4211 118.42 52.9886 118.764 52.4936 118.753C51.9985 118.742 51.5811 118.381 51.4995 117.893C51.418 117.405 51.6955 116.927 52.1602 116.756C52.4036 116.667 52.6719 116.673 52.9112 116.772Z" fill="#A3C8F7"/>
<path d="M83.27 123.037C83.1725 122.74 83.0847 122.44 83.0067 122.138C82.6993 120.914 82.8648 119.653 83.5343 118.576C84.1749 117.545 85.0512 117.04 86.2085 116.76C86.5857 116.728 86.9926 116.711 87.3675 116.768C88.4139 116.926 89.3256 117.514 89.9353 118.375C91.0128 119.897 90.8479 121.804 90.5556 123.544C90.4436 122.567 90.3993 121.463 89.8899 120.597C89.4081 119.778 88.6584 119.403 87.7738 119.171C87.7013 119.162 87.6286 119.154 87.556 119.147C86.4799 119.039 85.4028 119.168 84.546 119.897C83.5698 120.727 83.3501 121.828 83.27 123.037Z" fill="#2196F3"/>
<path d="M87.612 128.269C87.4625 128.308 87.3122 128.344 87.1611 128.376C86.4088 128.533 85.5749 128.259 84.954 127.834C83.8778 127.096 83.4747 126.013 83.2617 124.788L83.1897 124.739C83.1627 124.978 83.1455 125.201 83.0506 125.425C82.8969 125.337 82.8327 125.226 82.7843 125.056C82.6854 124.712 82.7081 124.228 82.8775 123.911C83.1059 123.762 83.2763 123.814 83.54 123.811C83.8107 122.851 83.7455 121.851 84.2568 120.953C84.7211 120.137 85.4845 119.801 86.3528 119.576C87.0622 119.51 87.87 119.583 88.5176 119.9C89.934 120.593 89.6862 122.07 90.1382 123.303C90.2274 123.546 90.3642 123.587 90.5863 123.684C90.7927 123.774 91.0295 123.851 91.1346 124.071C91.3562 124.536 90.964 125.29 90.7506 125.713C90.7435 125.319 90.795 124.792 90.6448 124.428L90.5271 124.442C90.4747 124.495 90.4008 124.533 90.3699 124.6C90.1642 125.05 90.2306 125.949 89.8429 126.71C89.3952 127.588 88.5004 127.982 87.612 128.269ZM88.3823 121.454L88.2839 121.622C88.4628 121.773 88.7614 121.779 88.9938 121.819L89.0779 121.742C88.8943 121.542 88.6504 121.489 88.3823 121.454ZM84.9784 121.633L84.6855 121.858L84.6736 121.948C84.8131 121.934 84.9373 121.916 85.0718 121.875C85.2779 121.837 85.4462 121.845 85.6031 121.7C85.3981 121.59 85.2089 121.618 84.9784 121.633ZM88.1723 122.856C88.0924 123.109 88.0151 123.245 88.0731 123.507C88.2094 123.609 88.3033 123.66 88.4687 123.702C88.5555 123.492 88.6581 123.313 88.6055 123.08C88.4644 122.928 88.3718 122.903 88.1723 122.856ZM85.5078 123.033C85.3213 123.073 85.1993 123.252 85.2304 123.44C85.2614 123.629 85.4346 123.759 85.6241 123.737C85.755 123.722 85.8671 123.636 85.9156 123.514C85.9639 123.391 85.9409 123.252 85.8555 123.151C85.7702 123.05 85.6366 123.005 85.5078 123.033ZM86.055 124.036C86.0965 124.242 86.1139 124.407 86.2978 124.539C86.5734 124.736 86.9115 124.734 87.2296 124.659C87.4277 124.612 87.5824 124.507 87.7345 124.374L87.5669 124.097C87.2832 124.064 87.1422 124.361 86.9059 124.333C86.6002 124.298 86.3692 124.066 86.055 124.036ZM85.4643 125.324C85.3326 125.646 85.3263 125.871 85.4581 126.197C85.6162 126.588 85.9431 126.843 86.3327 126.985C86.7426 127.135 87.2998 127.175 87.6956 126.958C87.8449 126.876 87.975 126.749 88.0996 126.634C88.2906 126.285 88.4762 126.007 88.3903 125.599C88.2365 125.44 88.1186 125.379 87.8926 125.376C87.5235 125.371 87.1073 125.519 86.751 125.612C86.3272 125.495 85.9043 125.361 85.4643 125.324Z" fill="#FEFEFF"/>
<path d="M88.9941 121.819C88.7616 121.779 88.463 121.773 88.2842 121.622L88.3826 121.454C88.6507 121.489 88.8946 121.542 89.0782 121.742L88.9941 121.819Z" fill="black"/>
<path d="M85.0715 121.875C84.937 121.915 84.8129 121.933 84.6733 121.948L84.6852 121.857L84.9782 121.633C85.2086 121.618 85.3978 121.59 85.6029 121.7C85.446 121.845 85.2777 121.837 85.0715 121.875Z" fill="black"/>
<path d="M82.3358 127C81.988 127.174 81.6535 127.317 81.2642 127.366C80.5527 127.455 79.8516 127.278 79.2953 126.819C78.6168 126.258 78.2648 125.384 78.2175 124.519C78.1642 123.543 78.4923 122.842 79.1195 122.131C79.1623 122.152 79.1902 122.194 79.2236 122.228C78.9941 123.053 78.8857 123.888 79.0705 124.735C79.2251 125.444 79.5945 126.069 80.2314 126.442C81.1895 127.003 82.1723 126.745 83.1627 126.463C82.8959 126.659 82.6178 126.828 82.3358 127Z" fill="#2196F3"/>
<path d="M88.4686 123.702C88.3031 123.659 88.2093 123.609 88.073 123.506C88.0149 123.244 88.0923 123.108 88.1721 122.855C88.3717 122.902 88.4643 122.928 88.6054 123.08C88.6579 123.312 88.5554 123.492 88.4686 123.702Z" fill="black"/>
<path d="M85.6242 123.737C85.4347 123.759 85.2615 123.628 85.2304 123.44C85.1993 123.252 85.3214 123.073 85.5078 123.032C85.6367 123.005 85.7703 123.05 85.8556 123.151C85.9409 123.251 85.9639 123.391 85.9156 123.513C85.8672 123.636 85.7551 123.722 85.6242 123.737Z" fill="black"/>
<path d="M87.7347 124.374C87.5826 124.506 87.4279 124.611 87.2298 124.658C86.9118 124.733 86.5736 124.735 86.298 124.538C86.1141 124.406 86.0968 124.242 86.0552 124.035C86.3694 124.065 86.6004 124.297 86.9061 124.333C87.1424 124.36 87.2835 124.063 87.5671 124.096L87.7347 124.374Z" fill="black"/>
<path d="M88.0996 126.633C87.975 126.748 87.8449 126.876 87.6956 126.958C87.2998 127.175 86.7426 127.135 86.3326 126.985C85.9431 126.842 85.6162 126.588 85.4581 126.197C85.3263 125.87 85.3325 125.646 85.4643 125.323C85.9043 125.361 86.3271 125.494 86.7509 125.611C87.1073 125.518 87.5234 125.37 87.8925 125.375C88.1186 125.378 88.2365 125.44 88.3902 125.599C88.4761 126.006 88.2906 126.285 88.0996 126.633ZM85.8229 125.766C85.9897 126.137 86.1663 126.484 86.5777 126.625C86.8848 126.73 87.1884 126.677 87.4646 126.515C87.5851 126.445 87.6782 126.35 87.7766 126.253L87.8799 125.988C87.5569 125.804 86.9589 126.019 86.5828 126.001C86.3285 125.988 86.0557 125.862 85.8229 125.766Z" fill="black"/>
<path d="M118.744 128.171C118.927 128.383 119.127 128.586 119.353 128.754C121.838 130.603 123.33 127.367 124.89 126.189C125.492 125.734 126.125 125.5 126.865 125.376C127.43 125.301 128.056 125.387 128.581 125.599C129.177 125.84 129.981 126.547 130.19 127.181C130.254 127.374 130.235 127.467 130.154 127.647C129.67 127.966 128.819 127.331 128.211 127.337C127.753 127.342 127.312 127.494 126.92 127.723C125.402 128.609 125.712 130.07 124.65 131.091C123.963 131.752 123.022 131.764 122.13 131.739C121.429 131.643 120.736 131.409 120.164 130.981C119.21 130.267 118.925 129.288 118.744 128.171Z" fill="#FEFEFF"/>
<path d="M87.7765 126.253C87.6781 126.351 87.585 126.445 87.4645 126.516C87.1883 126.677 86.8847 126.73 86.5776 126.625C86.1661 126.484 85.9896 126.137 85.8228 125.767C86.0555 125.863 86.3284 125.989 86.5826 126.001C86.9587 126.02 87.5568 125.805 87.8797 125.988L87.7765 126.253Z" fill="white"/>
<path d="M39.5602 128.416C38.9588 128.524 38.6041 128.709 38.2299 129.198L38.1715 129.276C38.0053 129.179 37.9745 129.137 37.9371 128.932C37.8685 128.555 38.1404 128.007 38.3536 127.711C38.7673 127.134 39.3293 126.875 40.0081 126.747C40.1668 126.753 40.3274 126.761 40.4824 126.798C41.116 126.947 41.421 127.428 41.7238 127.954L41.7127 129.09C41.6175 128.929 41.509 128.707 41.3559 128.595C40.8304 128.212 40.1624 128.362 39.5602 128.416Z" fill="#FEFEFF"/>
<path d="M83.9461 130.159C84.0471 130.61 84.1953 131.095 84.4079 131.508C84.5319 131.748 84.6634 131.92 84.9282 132.004L85.0278 131.904C85.0391 131.649 84.9024 131.425 84.7932 131.201C84.3152 130.221 84.4617 129.132 84.4713 128.065C84.873 128.3 85.3268 128.521 85.7709 128.661C86.9637 129.037 87.9852 128.683 89.047 128.152C89.0222 129.936 89.194 129.717 88.5624 131.433C88.4785 131.661 88.3892 131.767 88.4921 131.989L88.6148 131.985C89.1559 131.594 89.3459 130.752 89.5243 130.138C90.0724 130.334 90.6237 130.522 91.1777 130.701C91.1916 130.924 91.1933 131.144 91.1825 131.368C91.0857 133.371 90.2657 135.174 88.7818 136.521C88.2238 136.917 87.6784 137.259 86.9759 137.322C86.0792 137.402 85.2339 136.99 84.5693 136.417C82.903 134.98 82.3182 132.914 82.1636 130.799C82.7482 130.562 83.3503 130.366 83.9461 130.159Z" fill="#FEFEFF"/>
<path d="M29.0809 129.037C29.305 129.25 29.53 129.447 29.7937 129.611C32.2771 131.154 33.4056 129.179 35.5048 128.671C35.5342 128.664 35.5637 128.658 35.5933 128.651C35.8739 128.626 36.1595 128.629 36.4372 128.681C37.1261 128.808 37.4745 129.115 37.8577 129.684C37.8251 130.299 37.8498 131.165 37.5445 131.709C37.4798 131.824 37.4531 131.862 37.313 131.863C37.1349 131.864 36.8811 131.768 36.7039 131.728C36.0075 131.569 35.3134 131.5 34.6207 131.729C33.5299 132.091 33.0483 132.965 32.5507 133.918C32.0615 133.759 31.6502 133.568 31.2099 133.305C30.9024 133.11 30.6061 132.891 30.3493 132.631C29.3848 131.656 29.0687 130.369 29.0809 129.037Z" fill="#FEFEFF"/>
<path d="M41.0097 134.112C40.8603 134.19 40.7023 134.247 40.5346 134.271C39.0822 134.48 39.4171 132.777 38.6362 132.217L38.3681 132.37C38.192 132.305 38.1748 132.287 38.0601 132.138L38.1093 132.04C38.2445 132.005 38.3813 131.975 38.5114 131.923C38.675 131.857 38.6683 131.885 38.7404 131.71L38.6373 131.57C38.6338 131.381 38.7293 131.465 38.8134 131.34C38.9345 131.16 38.9404 130.463 39.0071 130.204C39.1668 129.582 39.4483 129.23 39.9938 128.903C40.0653 128.91 40.1225 128.91 40.192 128.939C40.6673 129.134 42.0251 130.225 42.2528 130.669C42.2296 130.936 42.0625 131.022 41.8806 131.21C41.8703 131.385 41.9018 131.478 41.9717 131.638C42.1873 131.614 42.2188 131.323 42.4684 131.299C42.5002 131.397 42.5106 131.411 42.516 131.526C42.5415 132.059 41.4023 133.729 41.0097 134.112Z" fill="#FEFEFF"/>
<path d="M38.4109 130.947L38.3076 130.829C38.2965 130.174 38.4848 129.596 38.8851 129.077L38.938 129.153C38.6312 129.715 38.498 130.319 38.4109 130.947Z" fill="white"/>
<path d="M129.402 131.488C129.417 131.334 129.437 131.181 129.462 131.028C129.589 130.293 129.827 129.828 130.441 129.396C130.934 129.362 131.502 129.302 131.948 129.551C132.704 129.974 132.856 131.214 133.08 131.984C133.124 131.762 133.156 131.528 133.246 131.32C133.29 131.219 133.268 131.246 133.363 131.213C133.432 131.496 133.36 131.805 133.247 132.067L133.076 131.811L132.98 131.813C132.649 132.339 132.609 133.066 132.288 133.644C132.226 133.709 132.169 133.771 132.094 133.819C131.817 133.998 131.383 134.143 131.053 134.081C130.206 133.921 129.775 132.989 129.359 132.335L129.109 132.293C128.989 132.183 128.945 132.144 128.956 131.965C128.969 131.743 129.243 131.612 129.402 131.488Z" fill="#FEFEFF"/>
<path d="M95.2196 150.684L95.1411 150.701C94.0859 150.938 93.0351 151.337 92.0021 151.659C88.1635 152.854 84.3144 154.09 80.2361 153.726C79.5142 153.662 78.6014 153.634 77.9165 153.393L77.8306 153.249C78.7782 149.748 78.4629 146.155 77.8578 142.631C77.9945 142.482 78.1311 142.331 78.2563 142.172C80.4507 139.386 80.2157 134.044 79.7977 130.664C80.4288 130.798 81.0523 130.834 81.6959 130.839C81.8416 132.796 82.3481 134.706 83.6932 136.199C84.4636 137.053 85.5529 137.743 86.7305 137.776C87.7766 137.806 88.711 137.269 89.4384 136.558C91.0265 135.006 91.6179 132.91 91.6455 130.75C92.2871 130.808 92.8721 130.791 93.51 130.712C93.3126 132.039 93.1367 133.405 93.0646 134.747C92.9021 137.767 93.4845 140.609 95.5372 142.903C95.1886 145.52 94.8183 148.045 95.2196 150.684Z" fill="#2196F3"/>
<path d="M131.926 137.095C131.678 137.192 131.412 137.274 131.145 137.288C130.636 137.314 130.041 137.091 129.664 136.752C129.431 136.542 129.281 136.272 129.276 135.955C129.268 135.474 129.466 135.386 129.751 135.058C129.999 134.771 129.976 134.43 129.951 134.075L129.943 133.982C130.001 134.024 130.059 134.065 130.118 134.104C130.847 134.576 131.35 134.529 132.157 134.354C132.173 134.709 132.191 135.062 132.224 135.416C132.362 135.6 132.469 135.581 132.688 135.63C132.734 135.728 132.767 135.76 132.751 135.875C132.687 136.353 132.308 136.828 131.926 137.095Z" fill="#FEFEFF"/>
<path d="M41.5261 135.397C41.0592 135.505 40.5725 135.642 40.0889 135.596C39.8361 135.572 39.59 135.491 39.4379 135.272C39.2363 134.982 39.3151 134.694 39.3821 134.376C39.6752 134.529 39.9869 134.651 40.3216 134.654C40.6529 134.657 41.1035 134.637 41.3689 134.835C41.4385 135.024 41.5011 135.195 41.5261 135.397Z" fill="#FEFEFF"/>
<path d="M110.527 135.787C110.334 135.872 110.107 135.795 110.005 135.609C109.903 135.424 109.959 135.192 110.135 135.073C110.263 134.986 110.43 134.98 110.565 135.056C110.7 135.132 110.78 135.278 110.772 135.433C110.764 135.588 110.67 135.725 110.527 135.787Z" fill="black"/>
<path d="M42.1201 138.313C42.0875 138.352 42.0558 138.391 42.0224 138.428C41.6791 138.815 41.2425 139.106 40.711 139.121C40.2567 139.134 39.818 138.932 39.4975 138.616C38.8606 137.988 38.5507 136.894 38.5868 136.017C38.6002 135.687 38.6994 135.614 38.9325 135.407C38.9651 135.443 38.9972 135.48 39.0304 135.515C39.8233 136.366 40.9634 135.867 41.9164 135.705C42.2168 135.654 42.5443 135.68 42.8481 135.69C42.7582 136.68 42.6228 137.439 42.1201 138.313Z" fill="#FEFEFF"/>
<path d="M136.134 156.218C136.117 156.335 136.137 156.472 136.037 156.549C135.339 157.087 132.001 157.228 131.025 157.258C131.087 156.399 131.301 155.529 131.45 154.682C131.624 153.67 131.751 152.651 131.832 151.628C129.729 151.64 127.725 151.426 125.97 150.171C126.598 148.491 127.266 146.801 127.782 145.084C129.234 144.922 129.92 145.077 131.002 143.896C131.34 143.966 131.697 144.072 132.042 144.041C132.177 143.969 132.243 143.925 132.328 143.792C132.452 143.598 132.472 143.311 132.418 143.092C132.273 142.509 131.954 142.747 131.596 142.542C131.685 142.45 131.803 142.349 131.873 142.242C131.946 142.131 131.949 142.084 131.926 141.955C131.871 141.635 131.531 141.089 131.234 140.941C130.465 140.555 130.315 141.435 129.752 141.551C129.797 141.279 129.856 141.028 129.804 140.754L129.677 140.678C129.135 140.825 128.256 142.334 127.7 142.83L127.617 142.903C127.647 142.14 127.877 138.683 127.57 138.23L127.433 138.259C127.189 138.688 127.187 139.291 127.02 139.766C126.642 140.841 126.095 141.957 125.551 142.958C124.83 142.725 124.099 142.551 123.364 142.375C123.858 140.953 124.379 139.446 125.131 138.14C126.012 136.611 127.124 136.088 128.772 135.636C128.836 135.987 128.903 136.353 129.079 136.668C129.374 137.195 129.86 137.586 130.448 137.735C131.004 137.876 131.623 137.809 132.119 137.512C132.843 137.08 133.008 136.414 133.187 135.652C133.437 135.716 133.687 135.785 133.935 135.858C135.841 136.44 136.242 138.448 136.999 140.028C137.398 140.86 137.888 141.662 138.322 142.478C139.156 141.651 139.564 140.443 139.709 139.295C139.907 137.735 139.302 137.842 138.585 136.784C138.457 136.594 138.436 136.485 138.466 136.264C138.536 136.191 138.543 136.176 138.64 136.118C138.939 135.939 139.951 135.976 140.279 136.132C140.543 136.257 140.673 136.681 140.731 136.939C141.113 138.636 140.644 143.441 139.657 144.877C139.477 145.138 139.221 145.404 138.883 145.425C138.472 145.45 138.076 145.166 137.781 144.915C136.675 143.976 135.369 141.876 134.928 140.505C134.82 140.168 134.834 139.767 134.809 139.415C134.777 138.951 134.81 138.491 134.44 138.167L134.301 138.193C134.089 138.626 134.433 139.996 134.456 140.56C134.526 142.272 134.026 144.05 134.255 145.738C134.431 147.041 135.061 148.231 135.458 149.471C136.082 151.421 136.209 154.164 136.134 156.218Z" fill="#FEFEFF"/>
<path d="M48.0387 145.195C46.3304 144.736 44.9629 144.305 43.1772 144.145C42.7493 143.835 42.2265 143.464 42.1371 142.905C42.111 142.743 42.1476 142.687 42.1969 142.536C42.4749 142.265 42.7392 142.248 43.1096 142.248C43.2983 142.249 43.4843 142.27 43.6711 142.294C43.7212 142.419 43.7409 142.516 43.7626 142.648C44.8098 143.169 47.4288 143.573 48.6113 143.415L48.6962 143.348C48.5772 143.177 48.4011 143.07 48.1974 143.025C47.9642 142.973 47.7057 142.968 47.4679 142.95L47.3986 142.945C46.9771 142.21 45.6283 139.972 44.9111 139.707L44.7914 139.782C44.7406 140.451 45.3005 142.096 44.999 142.588C44.8043 142.59 44.8473 142.59 44.7163 142.478C44.6186 141.965 44.5935 141.447 44.5144 140.932C44.25 139.209 43.934 137.689 44.2059 135.934C46.1171 136.442 46.7847 137.85 47.7144 139.454C48.4425 140.711 50.2704 143.588 49.8859 145.047C49.8622 145.137 49.8309 145.222 49.7982 145.309C49.2271 145.202 48.6197 145.27 48.0387 145.195Z" fill="#FEFEFF"/>
<path d="M126.215 142.953L126.159 142.848L127.152 140.656C127.374 141.142 127.143 142.342 127.096 142.906L126.215 142.953Z" fill="#FEFEFF"/>
<path d="M45.5815 142.77C45.5276 142.101 45.4525 141.445 45.3438 140.783C45.9435 141.261 46.4934 142.27 46.8804 142.936C46.447 142.896 46.013 142.827 45.5815 142.77Z" fill="#FEFEFF"/>
<path d="M123.213 142.857C123.989 143.017 124.758 143.254 125.538 143.378C126.619 143.55 128.046 143.365 128.79 142.492C129.02 142.221 129.13 141.835 129.419 141.626C129.406 141.785 129.372 141.842 129.457 141.982C129.938 141.944 130.114 141.538 130.445 141.25L130.556 141.284L130.56 141.396C130.339 141.597 130.083 141.79 129.974 142.076L130.112 142.323L130.26 142.396C130.777 142.446 130.936 141.989 131.368 141.815L131.493 141.912C131.505 142.27 131.106 142.474 131.131 142.823C131.267 142.92 131.309 142.904 131.478 142.919C131.708 142.94 131.879 142.922 132.067 143.078L132.07 143.252C131.816 143.569 131.354 143.466 130.993 143.625C130.695 143.756 130.424 144.001 130.158 144.189C129.375 144.742 128.432 144.471 127.552 144.694C126.18 145.04 124.671 146.163 123.201 145.877C123.031 145.843 122.744 145.748 122.661 145.589C122.336 144.965 122.978 143.474 123.213 142.857Z" fill="#FEFEFF"/>
<path d="M130.112 142.322C130.345 141.993 130.548 141.658 130.894 141.437L130.991 141.46C130.885 141.813 130.528 142.149 130.26 142.395L130.112 142.322Z" fill="#FEFEFF"/>
<path d="M44.6018 145.518C44.5794 145.345 44.5337 145.152 44.5919 144.984C44.6187 144.906 44.6318 144.903 44.7108 144.869C45.132 144.687 46.0936 145.137 46.527 145.271C46.048 145.525 45.1547 145.474 44.6018 145.518Z" fill="#FEFEFF"/>
<path d="M48.0387 145.194C48.6197 145.269 49.2271 145.202 49.7982 145.308C50.0408 145.339 50.149 145.35 50.3813 145.248C50.4116 145.28 50.4348 145.321 50.4723 145.345C50.5368 145.385 53.505 145.662 53.8424 145.707C54.8754 145.844 55.9017 146.027 56.9184 146.256C61.2642 147.21 65.171 149.159 69.2661 150.81C70.7029 151.376 72.1615 151.886 73.6383 152.338C74.7931 152.703 76.0792 153.186 77.2899 153.289L77.3903 153.232C77.5439 153.356 77.5487 153.364 77.7446 153.369L77.8306 153.249L77.9165 153.394C78.6014 153.634 79.5142 153.662 80.2361 153.726C84.3144 154.09 88.1635 152.854 92.0021 151.659C93.035 151.337 94.0859 150.938 95.1411 150.701L95.2195 150.685C95.3565 150.648 95.4884 150.591 95.6208 150.54C96.8147 150.065 98.3028 149.87 99.5773 149.705C101.704 149.424 103.862 149.466 105.976 149.83C107.519 150.111 109.006 150.647 110.479 151.172C113.765 152.343 116.947 153.763 120.226 154.955C121.712 155.495 123.301 156.124 124.857 156.419L125.369 156.57C126.934 156.966 128.696 157.259 130.316 157.27C130.573 157.31 130.769 157.297 131.025 157.258C132.001 157.228 135.339 157.086 136.037 156.549C136.137 156.472 136.117 156.335 136.134 156.218L136.198 156.505C136.378 156.546 136.443 156.526 136.618 156.485C139.633 155.812 143.022 154.11 145.562 152.37C146.824 151.509 148.042 150.585 149.212 149.602C150.194 148.771 151.155 147.821 152.225 147.112C152.541 146.903 153.077 146.557 153.466 146.615C153.728 146.654 153.979 146.882 154.15 147.067C154.698 147.657 155.653 149.167 155.591 149.989C155.513 151.014 153.632 152.343 152.851 153.044C147.713 157.118 142.782 159.379 136.337 160.68C136.131 160.721 136.045 160.702 135.922 160.881C135.916 160.889 135.915 160.9 135.912 160.909C135.873 160.881 135.842 160.837 135.796 160.824C135.749 160.812 132.491 161.222 132.03 161.242C131.857 161.262 131.695 161.26 131.558 161.38C131.53 161.36 131.505 161.333 131.472 161.32C131.235 161.224 130.485 161.263 130.268 161.386C130.086 161.296 130.02 161.307 129.821 161.303C128.409 161.248 127.022 161.136 125.64 160.824C125.483 160.756 125.325 160.689 125.166 160.624C125.135 160.597 125.107 160.566 125.073 160.543C124.658 160.261 122.249 159.716 121.554 159.491C120.893 159.276 120.243 159.018 119.597 158.759C113.629 156.364 107.496 152.453 100.838 152.844C99.3951 152.928 98.0879 153.364 96.6835 153.61L96.5301 153.636C96.4 153.669 96.2237 153.691 96.1074 153.753C94.4501 154.414 92.7089 154.95 91.0065 155.484C85.8719 157.097 82.4314 157.801 76.9964 156.72C76.8011 156.681 76.7596 156.668 76.5736 156.732C75.9704 156.451 75.1068 156.375 74.4489 156.203C73.0944 155.85 71.7287 155.433 70.4241 154.925C67.7995 153.902 65.2942 152.592 62.6867 151.533C57.2847 149.339 50.8048 148.052 45.0023 149.198C44.7514 149.154 44.5756 149.223 44.3456 149.311C42.4847 149.389 39.5722 150.572 37.6858 151.089C37.5234 151.157 37.3436 151.216 37.1916 151.305C36.722 151.571 36.2394 151.826 35.7912 152.128C35.6145 152.214 35.4426 152.29 35.2835 152.406C31.4732 154.175 26.9638 158.9 24.5141 162.29C23.9533 163.066 23.011 164.923 22.3771 165.41C22.0399 165.669 21.6257 165.76 21.2081 165.692C20.1695 165.522 18.9725 164.391 18.3967 163.539C18.2103 163.263 18.0115 162.878 18.0955 162.534C18.2921 161.729 19.5023 160.364 20.0222 159.672C23.1624 155.456 27.1827 151.974 31.8039 149.468C33.0095 148.805 34.3105 148.332 35.5051 147.666L35.5558 147.53C35.5817 147.539 35.6064 147.553 35.6335 147.558C35.837 147.594 35.9726 147.476 36.1425 147.383C38.9089 146.51 41.4924 145.952 44.3508 145.524L44.6017 145.517C45.1547 145.473 46.048 145.524 46.5269 145.271C47.0037 145.396 47.5952 145.438 48.0387 145.194Z" fill="#B3DEFF"/>
<path d="M125.369 156.57C124.895 154.505 124.968 152.597 125.773 150.621C127.476 151.735 129.322 152.028 131.321 152.142C131.133 153.885 130.774 155.577 130.316 157.269C128.696 157.259 126.934 156.966 125.369 156.57Z" fill="#FEFEFF"/>
<path d="M96.1077 153.753C96.2241 153.691 96.4003 153.669 96.5304 153.636C96.9793 154.918 97.5322 156.192 97.8774 157.504C97.5907 157.685 97.3062 157.876 97.0077 158.037C97.0535 159.02 96.9783 160.696 97.1577 161.567C97.1419 161.78 97.1349 162 97.1038 162.211C97.0828 163.211 97.0515 164.21 97.0103 165.209L96.964 165.861C96.2375 171.608 95.7213 177.389 94.6721 183.094C94.3829 184.666 93.7765 186.807 92.3666 187.738C91.5738 188.262 90.539 188.413 89.6168 188.211C88.3751 187.94 87.6114 187.112 86.9594 186.088C86.8304 187.811 86.8068 189.554 86.7465 191.281L86.4421 201.51C86.3672 204.188 86.3155 206.867 86.2869 209.546C86.2745 210.777 86.1854 212.067 86.2738 213.293C86.3925 214.939 87.1584 216.536 87.3744 218.179C87.4701 218.905 87.5839 220.036 87.0903 220.63C86.544 221.287 85.5592 221.427 84.7541 221.483C83.7499 221.552 82.345 221.544 81.5648 220.814C80.8847 220.178 81.0433 218.641 81.2016 217.802C81.3919 216.794 81.6808 215.775 81.9453 214.783C82.0809 214.275 82.3386 213.68 82.3426 213.156C82.3571 211.235 81.9611 209.284 81.7087 207.382C81.1547 203.206 80.4879 199.051 79.8856 194.883C78.8693 188.138 78.0699 181.362 77.4884 174.566C77.167 171.105 76.8378 167.65 76.6532 164.179C76.6592 163.739 76.6775 163.297 76.6234 162.86C76.6199 162.094 76.6123 161.328 76.6006 160.563L76.596 160.03C76.6003 159.511 76.7688 158.721 76.5089 158.261C76.3901 158.176 76.2831 158.098 76.1846 157.989C76.1837 157.573 76.4257 157.118 76.5739 156.732C76.7599 156.668 76.8014 156.68 76.9967 156.72L76.6917 158.025C83.1078 159.6 91.4552 160.805 97.4207 157.255C96.9533 156.099 96.5155 154.932 96.1077 153.753ZM87.3683 166.796C87.3528 167.127 87.3407 167.458 87.3322 167.789C87.177 171.18 87.2944 174.567 87.2289 177.96C87.1808 180.451 86.9381 182.969 86.9582 185.454C87.9559 186.587 88.5192 187.73 90.2251 187.844C91.0468 187.899 91.8295 187.649 92.4361 187.086C94.6334 185.045 94.813 177.866 95.5283 174.836C93.2526 175.448 90.5017 175.485 88.3931 174.274C88.2875 174.214 88.1876 174.148 88.0864 174.08C87.9115 172.188 87.5097 169.761 87.4951 167.931C87.4882 167.533 87.457 167.186 87.3683 166.796ZM96.4815 158.187C90.183 160.538 83.4932 160.155 77.0703 158.489C76.7452 160.448 76.9941 162.673 77.0939 164.651C77.2442 167.63 77.369 170.685 77.8077 173.636C79.6901 172.505 81.9547 171.636 84.1785 172.177C84.9122 172.355 85.5352 172.681 86.1821 173.061L86.8449 173.53C86.8633 172.341 87 163.832 87.299 163.45L87.4096 163.496C87.7274 164.29 87.7534 167.516 87.8454 168.579C88.0066 170.375 88.2129 172.166 88.4641 173.951C90.7803 174.835 93.1694 175.266 95.55 174.353C96.2334 169.672 96.8162 164.802 96.678 160.07C96.6613 159.499 96.7048 158.817 96.5574 158.267L96.4815 158.187ZM82.0559 172.455C80.5665 172.604 79.0974 173.147 77.9128 174.073C78.4836 180.865 79.271 187.638 80.2737 194.38C81.1331 200.371 82.1575 206.356 82.7969 212.374C83.0622 212.057 83.3244 211.74 83.6164 211.447C83.7991 211.23 83.9767 211.003 84.176 210.801C84.7596 211.351 85.3741 211.881 85.8623 212.519C85.6326 208.927 85.8827 205.039 85.9856 201.425L86.543 184.308C86.6631 180.892 86.8196 177.498 86.7832 174.077C85.3529 172.909 84.002 172.253 82.1159 172.446C82.0958 172.448 82.0759 172.452 82.0559 172.455ZM84.2078 211.55C83.7753 211.954 83.2351 212.38 82.9489 212.901C82.562 213.606 81.5926 217.673 81.5622 218.537C81.5546 218.751 81.5447 218.998 81.692 219.168C82.2338 219.794 83.5646 219.804 84.3379 219.805L84.477 219.805C85.1402 219.751 86.3952 219.666 86.8132 219.076C87.1934 218.54 86.0958 214.306 85.8413 213.541C85.6219 212.881 85.0194 211.903 84.3489 211.601C84.2584 211.56 84.2773 211.567 84.2078 211.55ZM86.8929 219.667C85.717 220.143 84.4401 220.317 83.1797 220.171C83.0135 220.152 81.7374 219.732 81.7185 219.745C81.6839 219.769 81.6752 219.818 81.6536 219.854C81.6834 220.074 81.7256 220.213 81.8248 220.412C82.8299 221.125 84.2882 221.118 85.4641 220.916C85.8969 220.842 86.5037 220.676 86.7512 220.272C86.8805 220.061 86.8894 219.904 86.8929 219.667Z" fill="black"/>
<path d="M76.9964 156.721C82.4314 157.801 85.8719 157.097 91.0066 155.485C92.7089 154.95 94.4501 154.415 96.1074 153.754C96.5152 154.932 96.953 156.1 97.4204 157.256C91.4549 160.806 83.1075 159.6 76.6914 158.026L76.9964 156.721Z" fill="#2196F3"/>
<path d="M77.0699 158.49C83.4929 160.155 90.1827 160.539 96.4812 158.188L96.557 158.267C96.7045 158.818 96.6609 159.499 96.6777 160.07C96.8159 164.803 96.233 169.672 95.5497 174.353C93.1691 175.267 90.78 174.836 88.4637 173.951C88.2125 172.166 88.0063 170.375 87.8451 168.58C87.7531 167.517 87.727 164.291 87.4093 163.497L87.2987 163.451C86.9996 163.832 86.863 172.341 86.8446 173.531L86.1817 173.062C85.5349 172.681 84.9119 172.356 84.1782 172.177C81.9544 171.636 79.6898 172.505 77.8074 173.636C77.3687 170.686 77.2439 167.63 77.0935 164.651C76.9938 162.673 76.7449 160.449 77.0699 158.49Z" fill="#2196F3"/>
<path d="M132.03 161.242C132.491 161.222 135.749 160.812 135.796 160.825C135.842 160.837 135.873 160.881 135.912 160.909C135.65 162.557 135.204 164.275 135.016 165.918C134.894 166.99 135.062 168.075 134.877 169.146C134.566 170.946 133.908 172.695 133.376 174.438C133.11 175.307 132.952 176.254 132.605 177.092C132.512 177.316 132.39 177.545 132.178 177.678C132.022 177.776 131.945 177.747 131.773 177.72L131.626 177.6C131.667 176.582 131.846 175.576 131.893 174.559C131.975 172.771 131.933 170.978 132.083 169.193C132.169 168.167 132.499 167.127 132.518 166.105C132.547 164.479 132.111 162.864 132.03 161.242Z" fill="#FEFEFF"/>
<path d="M125.641 160.824C127.022 161.136 128.409 161.249 129.821 161.303C129.573 162.524 129.416 164.013 128.764 165.085C128.655 165.263 128.468 165.53 128.244 165.563C127.816 165.625 127.226 165.367 126.904 165.089C125.889 164.209 125.697 162.08 125.641 160.824Z" fill="#FEFEFF"/>
<path d="M125.011 163.793L124.858 163.794L124.776 163.639C124.761 163.085 124.95 162.615 125.168 162.118C125.302 162.246 125.347 162.436 125.379 162.613C125.459 163.06 125.267 163.443 125.011 163.793Z" fill="#FEFEFF"/>
<path d="M124.669 165.335C124.936 164.863 125.184 164.303 125.585 163.934C125.761 164.085 125.829 164.278 125.93 164.481C126.348 165.33 126.721 165.589 127.537 166.039C127.325 166.878 127.079 167.433 126.433 168.027C126.321 168.069 126.188 168.129 126.069 168.144C125.834 168.174 125.626 168.104 125.447 167.951C124.811 167.407 124.708 166.121 124.669 165.335Z" fill="#FEFEFF"/>
<path d="M87.332 167.79C87.3406 167.459 87.3526 167.128 87.3681 166.797C87.4568 167.187 87.488 167.534 87.4949 167.931L87.332 167.79Z" fill="white"/>
<path d="M87.3322 167.79L87.495 167.931C87.5097 169.762 87.9115 172.188 88.0864 174.081C88.1876 174.149 88.2875 174.214 88.3931 174.275C90.5017 175.485 93.2526 175.448 95.5283 174.837C94.813 177.867 94.6333 185.045 92.4361 187.086C91.8295 187.65 91.0468 187.9 90.2251 187.845C88.5192 187.731 87.9559 186.588 86.9582 185.454C86.9381 182.97 87.1808 180.452 87.2289 177.961C87.2944 174.568 87.177 171.181 87.3322 167.79Z" fill="#FEFEFF"/>
<path d="M77.9126 174.073C79.0972 173.148 80.5663 172.605 82.0557 172.455C82.0756 172.452 82.0956 172.448 82.1157 172.446C84.0018 172.254 85.3527 172.91 86.783 174.078C86.8194 177.498 86.6629 180.892 86.5427 184.309L85.9853 201.425C85.8825 205.04 85.6324 208.928 85.8621 212.519C85.3739 211.881 84.7593 211.351 84.1757 210.802C83.9765 211.004 83.7989 211.23 83.6162 211.447C83.3242 211.741 83.062 212.058 82.7966 212.375C82.1573 206.356 81.1328 200.372 80.2735 194.381C79.2708 187.638 78.4834 180.866 77.9126 174.073Z" fill="#FEFEFF"/>
<path d="M132.414 180.968C131.866 180.963 131.104 181.046 130.618 180.754C130.563 180.63 130.54 180.613 130.554 180.469C130.624 179.755 131.274 178.522 131.819 178.061C131.953 178.07 132.124 178.065 132.25 178.111C132.996 178.389 133.394 180.021 133.641 180.714C133.231 180.843 132.842 180.934 132.414 180.968Z" fill="#FEFEFF"/>
<path d="M130.591 181.531C130.506 181.456 130.451 181.384 130.383 181.294C130.518 181.21 131.347 181.394 131.555 181.402C132.235 181.428 132.898 181.386 133.554 181.197C133.671 181.163 133.602 181.174 133.762 181.182L133.755 181.283C132.918 181.816 131.552 181.499 130.591 181.531Z" fill="white"/>
<path d="M84.4766 219.805L84.3375 219.805C83.5642 219.804 82.2334 219.794 81.6916 219.168C81.5443 218.998 81.5542 218.751 81.5618 218.538C81.5923 217.673 82.5616 213.606 82.9485 212.901C83.2347 212.38 83.7749 211.954 84.2074 211.55C84.2769 211.567 84.258 211.56 84.3485 211.601C85.019 211.904 85.6215 212.881 85.8409 213.541C86.0955 214.307 87.193 218.541 86.8128 219.077C86.3948 219.666 85.1398 219.751 84.4766 219.805ZM84.0206 213.602C83.3991 214.416 83.1223 216.017 83.267 217.029C83.3082 217.316 83.4282 217.649 83.6735 217.824C83.9451 218.018 84.2996 217.991 84.6157 217.977C84.8812 217.806 85.1033 217.673 85.184 217.345C85.3981 216.477 85.2226 214.803 84.7453 214.045C84.6169 213.841 84.4623 213.689 84.2205 213.627C84.1446 213.607 84.0953 213.607 84.0206 213.602Z" fill="#2196F3"/>
<path d="M84.6158 217.976C84.2997 217.991 83.9452 218.018 83.6736 217.824C83.4283 217.649 83.3083 217.316 83.2672 217.029C83.1224 216.017 83.3992 214.416 84.0208 213.602C84.0954 213.607 84.1448 213.607 84.2206 213.627C84.4624 213.689 84.617 213.841 84.7454 214.045C85.2227 214.803 85.3982 216.477 85.1841 217.345C85.1034 217.673 84.8813 217.806 84.6158 217.976Z" fill="black"/>
<path d="M81.8245 220.412C81.7254 220.213 81.6832 220.074 81.6533 219.854C81.675 219.818 81.6836 219.769 81.7182 219.745C81.7371 219.732 83.0132 220.152 83.1794 220.171C84.4398 220.317 85.7167 220.143 86.8926 219.667C86.8891 219.904 86.8803 220.061 86.7509 220.272C86.5034 220.676 85.8966 220.842 85.4638 220.916C84.288 221.118 82.8297 221.125 81.8245 220.412Z" fill="#FEFEFF"/>
</g>
<path d="M56.5319 75.338C54.7225 77.086 52.5452 77.96 49.9999 77.96C48.0065 77.96 46.2892 77.454 44.8479 76.442C43.4372 75.43 42.3639 74.05 41.6279 72.302C40.8919 70.554 40.5239 68.6067 40.5239 66.46C40.5239 64.3133 40.9992 62.366 41.9499 60.618C42.9312 58.87 44.2959 57.49 46.0439 56.478C47.8225 55.466 49.8465 54.96 52.1159 54.96C54.4772 54.96 56.5625 55.512 58.3719 56.616C60.2119 57.72 61.6379 59.2993 62.6499 61.354C63.6619 63.4087 64.1679 65.7853 64.1679 68.484V75.338C64.1679 77.6993 63.6925 79.9533 62.7419 82.1C61.8219 84.216 60.4419 85.9333 58.6019 87.252C56.7925 88.5707 54.6305 89.23 52.1159 89.23C50.1532 89.23 48.3132 88.8467 46.5959 88.08C44.8785 87.3133 43.4985 86.2707 42.4559 84.952C41.4439 83.6027 40.9379 82.146 40.9379 80.582H48.2979C48.4205 81.226 48.8039 81.8393 49.4479 82.422C50.0919 82.974 50.9505 83.25 52.0239 83.25C55.0292 83.25 56.5319 80.6127 56.5319 75.338ZM56.7159 67.334C56.7159 65.218 56.3172 63.6233 55.5199 62.55C54.7225 61.446 53.6339 60.894 52.2539 60.894C50.9659 60.894 49.9232 61.4153 49.1259 62.458C48.3285 63.5007 47.9299 64.8347 47.9299 66.46C47.9299 68.116 48.3285 69.45 49.1259 70.462C49.9539 71.474 51.0425 71.98 52.3919 71.98C53.4039 71.98 54.2779 71.75 55.0139 71.29C55.7499 70.83 56.3172 70.2167 56.7159 69.45V67.334ZM67.6675 83.94L78.4775 72.532C79.9188 70.9987 80.9461 69.6647 81.5595 68.53C82.2035 67.3647 82.5255 66.322 82.5255 65.402C82.5255 64.022 82.1881 62.9487 81.5135 62.182C80.8695 61.3847 79.9495 60.986 78.7535 60.986C77.4041 60.986 76.3461 61.4767 75.5795 62.458C74.8435 63.4393 74.4755 64.6967 74.4755 66.23H67.0235C67.0235 64.1753 67.5141 62.3047 68.4955 60.618C69.4768 58.9007 70.8568 57.5513 72.6355 56.57C74.4448 55.558 76.5301 55.052 78.8915 55.052C82.5101 55.052 85.2548 55.8953 87.1255 57.582C89.0268 59.2687 89.9775 61.6453 89.9775 64.712C89.9775 66.8587 89.3641 68.898 88.1375 70.83C86.9415 72.762 85.0248 75.0773 82.3875 77.776L77.3275 83.02H90.9895V89H67.6675V83.94ZM93.293 63.976C93.293 62.5653 93.5997 61.2927 94.213 60.158C94.8264 58.9927 95.7157 58.0727 96.881 57.398C98.077 56.7233 99.4724 56.386 101.067 56.386C103.49 56.386 105.391 57.1067 106.771 58.548C108.182 59.9893 108.887 61.7987 108.887 63.976V65.862C108.887 67.242 108.58 68.4993 107.967 69.634C107.354 70.7687 106.449 71.6733 105.253 72.348C104.088 73.0227 102.708 73.36 101.113 73.36C99.5184 73.36 98.123 73.0227 96.927 72.348C95.7617 71.6733 94.857 70.7687 94.213 69.634C93.5997 68.4993 93.293 67.242 93.293 65.862V63.976ZM98.721 65.356C98.721 65.9387 98.9204 66.4447 99.319 66.874C99.7484 67.2727 100.346 67.472 101.113 67.472C101.91 67.472 102.508 67.2727 102.907 66.874C103.336 66.4447 103.551 65.9387 103.551 65.356V64.252C103.551 63.608 103.336 63.0713 102.907 62.642C102.508 62.182 101.926 61.952 101.159 61.952C100.362 61.952 99.7484 62.182 99.319 62.642C98.9204 63.0713 98.721 63.608 98.721 64.252V65.356ZM106.265 88.954H99.641L118.547 56.294H125.171L106.265 88.954ZM115.465 79.662C115.465 78.2513 115.772 76.9787 116.385 75.844C116.998 74.6787 117.888 73.7587 119.053 73.084C120.249 72.4093 121.644 72.072 123.239 72.072C124.834 72.072 126.214 72.4093 127.379 73.084C128.575 73.7587 129.48 74.6787 130.093 75.844C130.737 76.9787 131.059 78.2513 131.059 79.662V81.548C131.059 82.928 130.752 84.2007 130.139 85.366C129.526 86.5007 128.621 87.4053 127.425 88.08C126.26 88.7547 124.88 89.092 123.285 89.092C121.69 89.092 120.295 88.7547 119.099 88.08C117.934 87.4053 117.029 86.5007 116.385 85.366C115.772 84.2313 115.465 82.9587 115.465 81.548V79.662ZM120.893 81.042C120.893 81.6553 121.092 82.1613 121.491 82.56C121.89 82.9587 122.488 83.158 123.285 83.158C124.082 83.158 124.68 82.9587 125.079 82.56C125.508 82.1613 125.723 81.6553 125.723 81.042V79.984C125.723 79.3093 125.508 78.742 125.079 78.282C124.68 77.822 124.098 77.592 123.331 77.592C122.534 77.592 121.92 77.822 121.491 78.282C121.092 78.742 120.893 79.3093 120.893 79.984V81.042Z" fill="black"/>
</g>
<defs>
<filter id="filter0_i_153_926" x="0" y="0" width="171" height="228" filterUnits="userSpaceOnUse" color-interpolation-filters="sRGB">
<feFlood flood-opacity="0" result="BackgroundImageFix"/>
<feBlend mode="normal" in="SourceGraphic" in2="BackgroundImageFix" result="shape"/>
<feColorMatrix in="SourceAlpha" type="matrix" values="0 0 0 0 0 0 0 0 0 0 0 0 0 0 0 0 0 0 127 0" result="hardAlpha"/>
<feMorphology radius="2" operator="erode" in="SourceAlpha" result="effect1_innerShadow_153_926"/>
<feOffset/>
<feGaussianBlur stdDeviation="4"/>
<feComposite in2="hardAlpha" operator="arithmetic" k2="-1" k3="1"/>
<feColorMatrix type="matrix" values="0 0 0 0 0 0 0 0 0 0 0 0 0 0 0 0 0 0 0.1 0"/>
<feBlend mode="normal" in2="shape" result="effect1_innerShadow_153_926"/>
</filter>
<clipPath id="clip0_153_926">
<rect width="171" height="228" fill="white"/>
</clipPath>
<clipPath id="clip1_153_926">
<rect width="145.785" height="126.743" fill="white" transform="translate(13 99)"/>
</clipPath>
</defs>
</svg>
