<svg width="390" height="313" viewBox="0 0 390 313" fill="none" xmlns="http://www.w3.org/2000/svg">
<path d="M155.205 0.0932344L155.773 0C156.258 0.642023 155.861 3.06382 155.853 4.07613L201.527 4.03747C209.403 4.04884 217.793 3.90823 225.621 4.12198C225.551 3.13431 225.136 0.822427 226.023 0.251277C226.671 1.87111 227.04 11.401 227.324 13.9089C230.397 41.08 241.446 66.5225 257.025 88.8106C259.455 92.2872 261.42 96.5342 263.829 99.9653C265.247 98.4944 266.779 96.8454 268.226 95.4279C267.344 91.8892 265.823 88.2778 264.506 84.8516C263.155 81.3391 261.88 77.7981 260.682 74.231C255.147 57.8082 250.511 40.7093 248.415 23.5081C248.201 21.7462 247.163 15.0845 247.445 14.0074L247.725 13.9926C248.529 15.0117 248.535 18.0051 248.718 19.4263C249.269 23.4365 249.845 27.4433 250.446 31.4462C251.332 36.8659 252.403 42.2537 253.656 47.6007C255.956 57.3943 259.481 68.1101 262.722 77.6563C264.658 83.355 267.268 89.0934 268.975 94.856C270.647 93.4136 272.246 91.8888 273.766 90.2883C272.812 76.3166 272.009 62.335 271.358 48.3458C271.069 43.4965 270.856 38.6434 270.717 33.7873C270.66 31.7445 270.477 29.4876 270.633 27.4865L270.807 27.2958C271.628 28.6314 271.417 31.8434 271.482 33.5209L272.003 45.6382C272.724 60.3111 273.569 74.9776 274.539 89.6357C275.967 88.4165 277.251 87.3617 278.522 85.9662C278.684 71.8004 278.518 57.3796 278.539 43.188L278.574 30.8175C278.58 29.5247 278.428 24.63 278.895 23.8716L279.234 24.1028C279.771 25.72 279.321 51.0249 279.316 54.1774L279.36 144.197C279.402 149.749 280.576 149.985 282.671 154.89C287.098 165.259 286.224 175.625 286.136 186.621L285.423 226.836L306.961 226.864C307.058 218.496 310.749 213.166 317.725 208.721C315.053 208.403 299.138 206.663 297.653 202.99C297.283 202.075 299.609 194.966 300.083 193.308C302.308 185.479 304.624 177.676 307.031 169.901C307.901 167.047 309.999 159.166 311.04 156.861C311.269 156.798 311.5 156.739 311.732 156.684C316.805 155.482 330.699 154.533 335.099 157.227C336.121 158.758 337.111 163.163 337.702 165.147C339.728 172.386 341.882 179.769 343.697 187.061C344.743 191.265 347.809 199.532 347.775 203.615C344.556 207.311 332.392 207.918 327.475 208.545C328.984 209.545 330.394 210.687 331.685 211.956C336.058 216.31 338.167 220.827 338.213 226.976C340.47 226.874 349.369 226.677 350.986 227.224L391 228.5C389.268 228.88 340.454 227.656 338.22 227.658C337.651 230.898 336.718 234.378 334.541 236.883C323.987 249.027 308.959 242.408 307.041 227.63C299.804 227.552 292.567 227.546 285.33 227.613C285.054 231.975 284.834 236.994 284.763 241.352C289.959 244.023 294.987 246.889 299.442 250.697C302.722 250.749 339.784 250.347 340.879 250.801L392 251.368V252C390.531 252.143 337.109 251.437 335.582 251.417L327.522 251.368L300.208 251.352C301.316 252.626 301.716 253.411 302.362 254.909C305.504 254.952 391.732 254.698 392.5 255V255.606H338.705C335.413 255.92 329.833 255.81 326.413 255.808C318.523 255.76 310.633 255.756 302.743 255.796C304.06 259.269 307.535 264.219 309.613 267.654L324.476 292.161C327.166 296.512 329.802 300.895 332.386 305.31C333.22 306.724 335.585 310.101 335.66 311.572C334.394 310.867 307.272 264.615 303.224 259.04C301.473 258.475 294.741 257.338 293.76 256.335L293.954 256.29L293.908 256.432C294.199 256.256 294.055 256.284 294.328 256.293L294.239 256.546L294.429 256.299C296.748 256.504 300.437 257.533 302.789 258.109C300.892 252.604 298.981 250.918 294.191 247.677C285.551 241.831 275.881 238.177 266.031 234.932C263.067 233.956 259.963 233.227 256.961 232.296C259.341 240.257 251.132 246.991 243.707 246.37C238.56 245.941 234.965 243.661 230.607 241.223C228.069 239.783 225.495 238.41 222.884 237.105C222.178 236.749 219.13 235.174 218.613 235.142C215.435 234.945 211.748 232.775 208.948 232.362C206.563 232.011 203.092 232.215 200.706 232.228L188.016 232.272C185.379 232.273 179.849 232.557 177.501 231.52C171.621 228.922 166.287 224.359 161.061 220.638C159.868 219.789 158.824 218.685 157.682 217.769C156.142 216.561 155.937 217.302 155.171 218.686C151.223 225.82 143.337 238.438 134.288 239.063C125.61 239.662 123.683 230.533 123.485 223.657C116.801 227.223 109.709 230.612 103.298 234.203C91.9923 240.57 78.4264 246.686 79.9352 262.05C80.0557 263.279 79.7161 274 79.4277 274.488L79.2227 274.422C78.7217 272.915 79.0294 267.433 79.0817 265.498C77.4251 267.76 75.0928 271.708 73.3789 274.26L56.7727 299.374C55.1772 301.833 49.767 310.703 48.2047 312.037C47.7397 311.477 51.048 306.801 51.61 305.955L70.4371 277.342C73.2258 273.12 76.038 268.786 78.7198 264.505C79.3652 263.475 79.3296 257.51 79.361 256.079C78.5352 256.06 74.6876 256.09 74.2267 256.028C71.5821 255.674 -0.499535 255.856 -1.46484 255.239L42.2192 255.518C43.045 255.009 75.8151 255.208 79.4618 255.422C80.1065 252.912 80.4961 251.74 81.682 249.446C72.4022 249.761 61.4484 249.461 52.0118 249.491L43.3676 249.538C42.3397 249.552 -0.0184282 249.57 -0.499756 248.735C0.233227 248.233 46.8574 248.816 48.2578 248.815L61.1517 248.735C67.5143 248.718 75.9266 248.465 82.0974 248.839C83.8613 246.235 87.425 243.117 89.8797 241.205C89.5807 226.95 89.7619 212.22 89.7721 197.922L89.7774 183.433C89.7835 177.138 89.5697 171.995 90.9209 165.765C92.8439 156.899 96.2102 149.936 101.938 142.989C101.546 141.341 101.68 136.564 101.682 134.658L101.705 120.365C101.888 100.447 101.917 80.5273 101.79 60.6082L101.797 36.8705C101.768 33.2105 101.688 28.1243 101.739 24.3764C101.746 23.8572 102.246 23.6525 102.663 23.3906C102.32 32.9778 102.618 44.6623 102.617 54.3733L102.685 74.4466C102.693 75.9274 102.583 85.5103 103.045 86.1269C102.296 86.9365 102.509 87.2086 102.718 88.266C102.899 90.0424 102.774 92.4543 102.799 94.2902C106.845 99.1042 114.542 106.536 120.039 109.308C119.405 106.522 118.64 102.873 117.603 100.239C113.84 97.5098 108.824 92.795 105.623 89.3602L106.229 89.0877C106.497 88.4657 107.017 81.6949 107.125 80.4844C108.18 67.9805 109.047 55.4618 109.726 42.9318L110.32 32.7595C110.391 31.5925 110.479 29.0911 110.713 28.0201L111.003 27.9015C112.201 29.9337 107.384 83.0658 107.177 90.0833C108.71 91.6308 110.24 93.1077 111.981 94.4183C113.678 89.8711 115.602 85.4743 117.289 80.8278C122.649 66.4141 126.944 51.6264 130.139 36.5836C131.644 29.5528 132.638 22.0585 133.649 14.9318C133.693 14.6206 133.754 14.5418 133.937 14.3049L134.266 14.3398C134.676 15.0834 133.53 21.62 133.321 22.9608C130.461 41.3646 125.829 59.4493 119.49 76.9624C117.303 83.1037 114.801 88.9031 112.526 94.9538C114.111 96.5085 115.736 97.891 117.412 99.3422C140.177 71.0818 153.407 36.338 155.205 0.0932344ZM145.039 160.167C142.337 154.398 142.589 148.599 144.511 142.559C147.112 134.384 155.213 131.777 157.989 124.375C152.284 124.363 143.415 124.095 137.971 124.603C125.923 125.845 114.654 131.139 106.007 139.62C95.1774 150.384 90.5468 163.106 90.5214 178.27L90.5138 218.946C90.5225 225.34 90.2929 234.482 90.6719 240.695C94.698 238.259 98.6899 235.796 102.851 233.6C103.649 233.179 104.447 232.756 105.216 232.286C111.334 229.174 117.418 225.994 123.465 222.745C123.478 220.181 123.554 217.618 123.691 215.058C124.428 202.462 132.694 181.179 139.663 170.445C141.572 167.506 144.295 164.636 146.912 162.301C146.24 161.67 145.631 160.882 145.039 160.167ZM215.037 124.415C217.508 132.962 223.792 133.791 227.459 141.494C230.482 147.846 231.298 153.403 229.133 160.136C228.58 161.518 228.162 162.4 227.473 163.724C231.151 166.708 234.802 170.086 237.038 174.326C240.337 180.582 242.592 188.22 244.759 194.966C246.803 201.21 248.894 207.439 251.03 213.652C252.398 217.578 254.558 220.924 255.7 224.438C256.35 226.463 256.799 228.548 257.042 230.661C257.082 231.043 257.106 231.426 257.116 231.809C259.657 232.437 264.176 233.481 266.594 234.386C267.532 234.555 270.643 235.691 271.606 236.04C275.821 237.574 279.991 239.229 284.111 241.003C284.415 230.435 284.985 219.885 285.147 209.301L285.464 184.947C285.503 180.175 285.721 173.334 285.286 168.814C284.081 157.277 278.994 146.492 270.858 138.223C264.36 131.538 253.721 125.454 244.379 124.642C235.184 123.843 224.392 124.538 215.037 124.415ZM162.53 4.87467L155.702 4.96526C155.409 7.6732 155.136 10.6112 154.765 13.2983L186.539 13.2956C186.72 36.5256 186.725 59.7566 186.553 82.9869L150.086 82.9521C143.444 82.9392 136.536 83.0552 129.921 82.8695C127.987 85.6036 126.222 88.4021 124.325 91.1381C135.804 90.869 147.61 90.9895 159.121 90.9865L219.029 91.0012L257.487 91.0581C256.215 88.9819 253.871 84.9831 252.419 83.2799C247.217 82.7247 236.851 83.0097 231.284 83.007L194.564 82.9858L194.484 13.3313L226.447 13.3229C225.942 10.3637 226.001 7.7327 225.614 4.96109L162.53 4.87467ZM167.264 21.8712C162.234 22.5337 158.711 27.1715 159.422 32.1948C160.132 37.2176 164.803 40.6964 169.819 39.9381C174.768 39.1899 178.19 34.595 177.49 29.6392C176.788 24.6838 172.226 21.2178 167.264 21.8712ZM278.269 87.3742C273.562 91.2518 268.787 95.863 264.609 100.303C263.482 101.501 259.836 107.9 260.733 109.198C266.052 106.23 273.987 99.4165 278.51 95.2081C278.525 94.1651 278.79 87.8851 278.269 87.3742ZM137.414 91.8525C132.847 91.8525 128.28 91.887 123.713 91.9556C121.924 94.5399 119.754 97.1217 118.1 99.6219C118.987 102.088 121.162 109.338 121.387 111.855C121.444 112.496 121.348 113.221 121.23 113.851C120.905 115.597 122.863 124.965 123.212 127.421C133.453 123.979 138.953 123.273 149.84 123.578C152.512 123.653 155.56 123.453 158.241 123.763C161.327 113.765 162.289 102.58 172.844 97.3207C175.397 96.0215 179.552 94.5904 182.472 94.9087C187.984 95.5094 192.452 93.99 197.792 95.8949C210.081 100.279 213.403 112.109 214.956 123.717L216.295 123.636L232.416 123.567C243.636 123.527 247.237 123.466 257.927 127.91C258.189 125.066 258.658 122.245 259.33 119.469C259.664 118.037 260.084 116.589 260.404 115.146C260.577 114.366 259.532 113.022 259.444 112.29C258.96 108.257 261.551 103.529 263.416 100.404C261.42 97.603 259.883 94.6449 257.978 91.8877L137.414 91.8525ZM102.682 95.4571C102.667 97.0061 102.622 98.6525 102.672 100.193C107.245 105.105 111.51 109.518 117.34 112.936C118.233 113.459 119.512 114.287 120.552 114.265C120.838 110.733 120.761 110.379 117.646 108.65C116.379 107.947 114.613 106.738 113.486 105.811C110.955 103.706 108.518 101.49 106.183 99.1698C105.73 98.712 102.929 95.6322 102.682 95.4571ZM278.433 96.4781C274.523 99.8554 264.739 108.293 260.301 110.133C260.281 111.622 260.21 112.573 260.743 113.997C266.168 112.03 269.728 109.396 274 105.513C275.5 104.149 277.345 102.854 278.393 101.112C278.701 100.592 278.846 96.9106 278.433 96.4781ZM102.658 101.318L102.563 131.994C102.572 135.325 102.469 139.044 102.555 142.338C103.792 140.863 104.725 139.872 106.093 138.514C107.137 137.531 108.431 136.246 109.543 135.389C109.19 133.534 109.142 127.949 109.077 125.841L108.459 107.334C107.665 106.53 103.311 101.753 102.658 101.318ZM278.415 102.507C276.297 104.336 274.216 106.207 272.172 108.119C272.408 114.93 271.785 122.031 271.765 128.873C271.756 131.861 271.457 134.919 271.539 137.906C273.107 139.561 274.657 141.143 276.071 142.935C277.007 144.24 277.801 145.346 278.625 146.719C278.375 135.59 278.748 124.286 278.6 113.145C278.58 111.646 278.71 103.421 278.415 102.507ZM187.177 103.993C185.148 108.993 182.33 111.66 177.85 114.601C176.152 115.716 168.713 119.646 168.704 121.492C168.669 128.18 169.73 135.362 170.801 141.967C174.363 139.979 181.477 137.393 184.144 141.895C185.198 141.405 187.253 140.223 188.4 140.824C191.44 142.418 191.082 150.053 187.732 151.189L187.781 151.433C188.366 154.481 185.749 154.142 186.678 156.322C187.657 156.783 190.003 156.404 191.096 156.299C196.531 155.779 199.931 151.65 202.072 146.998C202.931 145.132 203.589 143.179 204.033 141.173C204.982 136.965 205.205 132.597 205.358 128.29C205.46 125.397 205.718 121.097 203.309 118.993C201.955 117.809 200.109 116.783 198.566 115.809C196.784 114.689 195.063 113.476 193.409 112.175C191.182 110.41 189.693 108.647 188.314 106.169C188.035 105.668 187.433 104.319 187.177 103.993ZM109.272 108.031C109.556 114.321 109.781 120.612 109.946 126.906C110.023 129.446 110.006 132.413 110.164 134.89C111.417 133.991 112.806 132.945 114.093 132.124L116.244 130.833C115.658 124.43 114.932 118.04 114.065 111.668C112.488 110.429 110.89 109.216 109.272 108.031ZM271.327 108.8L267.251 111.749C266.55 117.659 265.48 126.461 265.328 132.302L268.074 134.527C268.972 135.308 269.975 136.147 270.831 136.96C270.809 129.416 271.245 121.825 271.434 114.283C271.462 113.167 271.803 109.491 271.327 108.8ZM114.902 112.207C115.044 114.936 115.719 118.528 116.069 121.343C116.407 124.066 116.607 127.752 117.071 130.33C118.413 129.693 119.802 129.009 121.166 128.436L122.612 127.81C121.742 123.502 121.263 119.518 120.274 115.061C118.195 114.484 116.697 113.372 114.902 112.207ZM266.025 112.596L261.315 114.756C260.151 118.751 258.866 124.116 258.724 128.268L261.168 129.633L264.416 131.72C264.602 129.084 266.626 113.716 266.114 112.659L266.025 112.596ZM179.015 140.15C174.708 140.572 170.11 142.593 167.465 146.064C162.407 152.702 164.239 160.724 160.069 168.237C155.764 175.99 150.604 181.759 145.114 188.564C141.357 193.312 137.658 198.105 134.016 202.943C131.239 206.565 127.805 210.626 125.98 214.748C122.703 222.152 123.371 240.054 135.335 238.233C141.213 237.339 146.792 230.105 150.138 225.556C153.537 220.802 156.295 214.884 158.569 209.506C161.912 201.884 165 194.152 167.83 186.325C170.149 179.916 171.666 173.776 175.084 167.819C177.026 164.434 176.14 160.206 180.693 158.517C182.263 157.934 184.839 157.704 185.94 156.587C186.703 153.944 181.244 153.642 179.634 153.733C177.226 153.869 175.446 155.64 173.379 156.525C179.186 149.407 184.989 155.667 187.259 153.225C187.984 150.822 184.662 149.918 182.88 149.419C179.262 148.406 175.418 149.182 172.438 151.468L172.133 151.363C171.916 149.713 178.121 148.377 179.299 148.204C181.263 147.914 185.926 150.025 186.661 149.769C187.16 149.203 187.024 149.519 187.123 148.805C184.853 143.749 177.108 143.466 172.876 145.723C172.027 146.176 170.234 146.88 169.332 147.086C174.729 143.048 178.814 142.702 184.841 145.238C185.452 144.503 184.739 143.325 184.178 142.734C183.676 142.525 183.68 142.569 183.128 142.64C181.794 141.205 183.821 139.972 179.015 140.15ZM200.24 151.577C195.706 156.74 193.27 157.283 186.501 157.132L186.302 157.268C184.95 158.176 183.724 158.465 182.095 158.697C178.087 159.267 176.995 164.546 175.823 168.091C177.742 169.153 179.172 170.036 181.236 170.818C190.269 173.817 199.899 170.144 203.566 160.887C204.095 159.551 204.115 158.286 204.007 156.869C203.192 155.993 200.348 151.641 200.24 151.577ZM162.158 156.251C153.441 157.609 146.555 162.253 141.371 169.252C134.233 178.889 124.389 204.492 124.385 216.307L124.531 216.35L124.627 216.061C125.893 212.565 127.893 209.826 130.108 206.889C134.772 200.71 139.529 194.461 144.302 188.387C151.218 179.586 160.12 170.966 162.33 159.559C162.525 158.55 162.669 157.521 162.804 156.501L162.617 156.242L162.158 156.251ZM204.455 156.062C205.175 158.83 204.772 160.641 203.371 163.112C197.487 173.484 185.013 175.519 175.59 168.623C174.896 169.916 173.041 173.222 172.599 174.49C171.03 178.989 169.705 183.39 168.063 187.91C165.603 194.492 163.002 201.021 160.261 207.492C162.392 206.541 165.498 205.191 167.42 207.218L167.382 207.427C165.583 207.154 165.284 206.714 163.29 207.082C159.106 207.855 158.156 212.449 156.706 215.791C156.594 216.05 156.739 216.217 156.846 216.447C157.514 216.647 157.639 216.618 158.314 216.596C159.111 215.857 158.795 213.871 160.916 211.963C163.076 210.019 165.588 210.914 166.458 210.247C169.566 207.864 167.423 207.086 172.62 205.512C176.123 201.259 182.251 199.42 186.731 203.373C186.849 203.477 186.966 203.582 187.082 203.689C190.249 197.435 199.853 197.695 202.749 203.955C207.727 201.687 211.665 202.519 214.652 207.227C215.125 207.69 215.935 207.718 216.571 208.017C219.677 209.483 220.115 210.938 223.471 209.818C223.335 206.397 221.944 197.84 222.421 195.391L222.582 195.494L222.494 195.275L222.414 195.498L222.64 195.704C223.244 198.714 224.024 206.082 224.14 209.255C229.96 209.157 231.802 212.19 234.291 216.831C236.682 217.714 238.785 218.804 241.042 219.946C247.613 223.268 251.89 225.501 256.411 231.377C255.596 225.406 253.972 222.015 251.404 216.611C250.384 214.464 249.318 211.044 248.507 208.73C246.546 202.948 244.624 197.153 242.744 191.344C239.469 181.163 237.033 172.172 228.052 165.263C219.887 158.981 213.704 158.593 204.455 156.062ZM321.488 156.273C318.38 156.388 315.556 156.484 312.527 157.348C316.944 158.087 320.796 158.273 325.272 158.186C328.215 158.09 331.372 158.052 334.253 157.483C330.02 156.225 325.877 156.198 321.488 156.273ZM311.518 157.769C308.046 168.955 304.686 180.176 301.439 191.43C300.531 194.616 298.619 200.028 298.196 202.955C304.67 207.176 317.733 208.24 325.427 207.868C328.378 207.725 331.275 207.376 334.204 207.102C338.463 206.512 343.731 205.751 347.247 203.171C346.486 198.806 344.282 192.12 343.09 187.647C341.239 180.575 339.302 173.525 337.283 166.5C336.527 163.856 335.728 160.634 334.89 158.07C329.009 159.17 317.239 159.286 311.518 157.769ZM193.458 199.99C189.504 200.908 189.405 201.795 187.016 204.411C181.779 200.54 177.675 201.525 173.19 205.658C175.371 206.051 176.874 206.436 178.223 208.374C178.322 208.517 178.419 208.662 178.514 208.808C180.687 208.418 183.068 207.985 184.793 209.453C185.141 209.749 185.416 209.905 185.856 209.939C187.654 208.66 188.145 208.184 190.371 208.647C194.995 209.61 196.179 212.124 195.626 216.433C198.968 216.429 202.448 216.472 205.778 216.362C208.397 216.263 207.501 215.601 208.522 213.502C208.311 211.221 207.787 209.572 205.884 208.006C204.446 206.833 202.605 206.27 200.757 206.439C198.469 206.663 196.874 207.864 195.128 209.209C193.802 208.396 192.665 207.698 191.274 206.997C189.949 206.329 188.134 205.725 186.991 204.905L186.998 204.715C189.729 205.021 192.636 206.778 194.846 208.344C195.525 207.865 196.37 207.246 197.088 206.864C198.834 205.938 203.59 205.101 200.883 202.228C199.016 200.248 196.042 199.842 193.458 199.99ZM206.378 203.594C204.14 204.039 203.347 204.439 201.321 205.531C203.373 205.829 204.318 206.227 206.121 207.395C207.264 208.137 208.162 210.1 208.873 210.065L208.918 210.031C210.725 208.517 211.817 208.209 214.082 207.637C211.948 204.557 210.407 203.163 206.378 203.594ZM171.848 206.405C169.582 207.587 168.681 208.265 167.613 210.741C162.607 211.209 160.793 211.572 159.279 216.651C161.152 216.556 163.094 216.427 164.964 216.434L173.756 216.419C173.534 212.493 174.222 211.04 177.828 209.118C176.35 206.815 174.557 206.185 171.848 206.405ZM214.251 208.338C206.925 210.071 210.504 211.313 208.128 216.303L214.967 216.355L220.598 216.365C220.021 212.734 219.06 207.989 214.251 208.338ZM319.294 208.7C309.647 214.193 304.289 224.417 310.221 235.109C313.383 240.808 319.209 243.298 325.626 241.952C330.026 240.578 333.249 238.226 335.433 234.058C337.576 229.986 337.979 225.22 336.549 220.846C334.754 215.363 330.802 211.795 326.207 208.65C323.919 208.669 321.578 208.714 319.294 208.7ZM181.344 209.118C177.979 209.544 174.307 210.964 174.381 215.34C174.389 215.788 174.619 216.035 174.929 216.313C176.67 216.532 179.278 216.447 181.084 216.444L190.726 216.43C191.791 216.445 193.732 216.553 194.673 216.296C197.185 213.731 191.235 205.3 185.932 211.285C185.375 210.921 185.065 210.41 184.659 209.873C183.572 209.472 182.531 209.102 181.344 209.118ZM224.738 210.048C222.652 210.912 222.104 211.127 219.835 210.638C220.59 212.915 221.025 214.044 221.116 216.4C223.228 216.472 228.65 216.085 229.123 218.546C228.105 222.979 210.107 221.086 206.266 221.82C205.599 221.947 204.498 223.046 203.754 223.39L203.848 223.557C208.577 224.196 212.153 226.038 216.821 226.292C218.885 226.405 220.765 226.132 222.787 225.794C223.694 225.642 225.535 224.972 226.098 225.106L226.093 225.397C224.422 226.772 218.206 227.138 215.894 226.906C214.659 226.777 213.434 226.553 212.233 226.237C210.026 225.674 207.818 224.9 205.583 224.473C204.192 224.207 203.295 224.326 203.04 225.927C203.187 226.36 203.187 226.58 203.695 226.753C206.674 227.762 209.635 228.788 212.626 229.77C218.16 231.165 221.524 231.519 226.535 228.47L226.844 228.279L226.925 228.572C225.979 230.04 223.761 230.778 222.107 231.146C214.944 232.741 208.657 228.538 202.221 226.965C205.189 229.677 208.522 230.931 212.143 232.539C216.584 234.512 221.291 234.418 226.146 234.183C237.774 233.622 236.27 209.099 224.738 210.048ZM234.35 217.555C235.333 223.517 235.133 233.453 227.003 234.789C224.96 235.124 222.033 234.846 219.885 234.889C222.656 236.145 225.387 237.49 228.071 238.923C232.232 241.168 237.283 244.536 241.827 245.375C244.557 245.723 246.925 245.698 249.424 244.633C255.401 242.087 259.591 235.332 254.28 229.748C249.23 224.439 240.974 220.384 234.35 217.555Z" fill="#121212"/>
<path d="M102.663 23.3911C103.778 22.9974 108.487 19.8612 109.898 19.052C113.619 16.9194 117.364 14.8004 121.203 12.8694C129.299 8.83383 137.692 5.42171 146.307 2.6626C149.279 1.70563 152.349 1.03291 155.205 0.09375C153.407 36.3385 140.177 71.0824 117.412 99.3428C115.736 97.8916 114.111 96.509 112.526 94.9543C114.801 88.9036 117.303 83.1042 119.491 76.9629C125.829 59.4498 130.461 41.3651 133.321 22.9614C133.53 21.6205 134.676 15.0839 134.266 14.3403L133.937 14.3054C133.754 14.5423 133.693 14.6211 133.649 14.9323C132.638 22.059 131.644 29.5533 130.139 36.5841C126.944 51.6269 122.649 66.4146 117.289 80.8283C115.602 85.4748 113.678 89.8716 111.981 94.4188C110.24 93.1082 108.71 91.6313 107.177 90.0838C107.384 83.0663 112.201 29.9342 111.003 27.902L110.713 28.0206C110.479 29.0917 110.391 31.593 110.32 32.76L109.726 42.9323C109.047 55.4624 108.18 67.981 107.125 80.4849C107.017 81.6955 106.497 88.4663 106.229 89.0882C105.282 88.0126 104.204 86.9707 103.045 86.1275C102.583 85.5108 102.693 75.9279 102.685 74.4471L102.617 54.3739C102.618 44.6628 102.32 32.9783 102.663 23.3911Z" fill="#EBEBEB"/>
<path d="M226.023 0.250977C227.784 0.728893 229.63 1.05294 231.342 1.59187C246.088 6.23422 260.676 11.8688 273.622 20.4474C275.352 21.5935 277.155 22.7059 278.895 23.8713C278.428 24.6297 278.58 29.5244 278.574 30.8172L278.539 43.1877C278.518 57.3793 278.684 71.8001 278.522 85.966C277.251 87.3614 275.967 88.4162 274.539 89.6354C273.57 74.9773 272.724 60.3108 272.003 45.6379L271.482 33.5206C271.417 31.8431 271.629 28.6311 270.807 27.2955L270.633 27.4862C270.477 29.4873 270.66 31.7442 270.717 33.787C270.856 38.6431 271.07 43.4962 271.358 48.3455C272.009 62.3347 272.812 76.3163 273.767 90.288C272.246 91.8886 270.647 93.4133 268.975 94.8557C267.268 89.0931 264.658 83.3547 262.723 77.656C259.481 68.1098 255.956 57.3941 253.657 47.6004C252.403 42.2535 251.333 36.8656 250.446 31.4459C249.845 27.443 249.269 23.4362 248.718 19.426C248.535 18.0048 248.529 15.0114 247.726 13.9923L247.445 14.0071C247.163 15.0842 248.201 21.7459 248.415 23.5078C250.511 40.709 255.147 57.8079 260.682 74.2307C261.88 77.7978 263.155 81.3388 264.507 84.8513C265.823 88.2775 267.344 91.8889 268.226 95.4276C266.779 96.8451 265.247 98.4941 263.829 99.965C261.42 96.5339 259.456 92.2869 257.025 88.8103C241.446 66.5222 230.397 41.0797 227.324 13.9086C227.04 11.4007 226.672 1.87081 226.023 0.250977Z" fill="#EBEBEB"/>
<path d="M155.702 4.96558L162.53 4.875L225.614 4.96141C226.001 7.73303 225.942 10.364 226.447 13.3232L194.484 13.3316L194.564 82.9861L231.284 83.0074C236.851 83.01 247.217 82.725 252.418 83.2803C253.871 84.9835 256.215 88.9823 257.487 91.0584L219.029 91.0016L159.121 90.9868C147.61 90.9898 135.804 90.8693 124.325 91.1384C126.222 88.4024 127.987 85.6039 129.921 82.8698C136.536 83.0555 143.444 82.9395 150.086 82.9524L186.553 82.9873C186.725 59.757 186.72 36.5259 186.539 13.296L154.765 13.2986C155.136 10.6115 155.409 7.67352 155.702 4.96558Z" fill="#FEFEFE"/>
<path d="M169.82 39.9379C164.803 40.6963 160.132 37.2175 159.422 32.1946C158.711 27.1714 162.235 22.5336 167.264 21.8711C172.227 21.2177 176.789 24.6836 177.49 29.639C178.19 34.5948 174.768 39.1898 169.82 39.9379Z" fill="#FEFEFE"/>
<path d="M102.718 88.266C102.509 87.2086 102.296 86.9365 103.045 86.127C104.204 86.9702 105.282 88.0121 106.229 89.0877L105.623 89.3602C105.021 88.7117 103.754 87.1294 103.05 86.9433L102.785 87.1264L102.718 88.266Z" fill="#060611"/>
<path d="M102.718 88.2661L102.785 87.1264L103.05 86.9434C103.754 87.1294 105.021 88.7118 105.623 89.3602C108.824 92.7951 113.84 97.5098 117.603 100.239C118.64 102.873 119.405 106.522 120.039 109.308C114.541 106.536 106.845 99.1043 102.799 94.2902C102.774 92.4544 102.899 90.0424 102.718 88.2661Z" fill="#EBEBEB"/>
<path d="M260.733 109.198C259.837 107.899 263.482 101.5 264.609 100.303C268.787 95.8628 273.562 91.2516 278.269 87.374C278.79 87.8849 278.525 94.1649 278.51 95.2079C273.988 99.4163 266.052 106.23 260.733 109.198Z" fill="#EBEBEB"/>
<path d="M123.713 91.9556C128.28 91.887 132.847 91.8525 137.414 91.8525L257.978 91.8878C259.883 94.645 261.42 97.6031 263.416 100.404C261.55 103.529 258.96 108.257 259.444 112.29C259.532 113.022 260.577 114.366 260.404 115.146C260.084 116.589 259.664 118.037 259.33 119.469C258.658 122.245 258.189 125.066 257.927 127.91C247.237 123.466 243.636 123.527 232.416 123.567L216.295 123.636L214.956 123.717C213.403 112.109 210.081 100.28 197.792 95.8949C192.452 93.9901 187.984 95.5095 182.472 94.9088C179.552 94.5904 175.397 96.0215 172.844 97.3207C162.289 102.58 161.327 113.765 158.241 123.763C155.56 123.453 152.512 123.653 149.84 123.578C138.953 123.273 133.453 123.979 123.211 127.422C122.863 124.965 120.905 115.597 121.23 113.851C121.348 113.221 121.444 112.496 121.387 111.855C121.162 109.338 118.987 102.089 118.1 99.622C119.754 97.1217 121.923 94.54 123.713 91.9556Z" fill="#FEFEFE"/>
<path d="M102.672 100.193C102.622 98.6524 102.667 97.006 102.682 95.457C102.929 95.6321 105.73 98.7119 106.183 99.1697C108.518 101.49 110.955 103.706 113.486 105.811C114.613 106.738 116.379 107.947 117.646 108.65C120.761 110.379 120.838 110.733 120.552 114.265C119.512 114.287 118.233 113.459 117.34 112.936C111.51 109.518 107.245 105.104 102.672 100.193Z" fill="#EBEBEB"/>
<path d="M260.3 110.134C264.739 108.293 274.523 99.8558 278.433 96.4785C278.846 96.911 278.701 100.593 278.393 101.112C277.345 102.855 275.5 104.149 273.999 105.513C269.728 109.396 266.167 112.03 260.743 113.997C260.21 112.573 260.28 111.623 260.3 110.134Z" fill="#EBEBEB"/>
<path d="M102.555 142.338C102.469 139.044 102.572 135.325 102.563 131.994L102.658 101.318C103.311 101.753 107.665 106.53 108.459 107.334L109.077 125.841C109.142 127.949 109.19 133.534 109.543 135.39C108.431 136.246 107.137 137.531 106.092 138.514C104.725 139.872 103.792 140.863 102.555 142.338Z" fill="#EBEBEB"/>
<path d="M272.172 108.119C274.215 106.207 276.297 104.336 278.415 102.507C278.71 103.421 278.58 111.646 278.6 113.145C278.747 124.286 278.375 135.59 278.625 146.719C277.801 145.346 277.007 144.24 276.071 142.935C274.657 141.143 273.106 139.561 271.539 137.906C271.457 134.919 271.756 131.861 271.765 128.873C271.785 122.031 272.408 114.93 272.172 108.119Z" fill="#EBEBEB"/>
<path d="M170.801 141.967C169.73 135.362 168.67 128.18 168.704 121.492C168.714 119.646 176.153 115.716 177.851 114.601C182.33 111.66 185.149 108.993 187.178 103.993C187.433 104.319 188.035 105.668 188.315 106.169C189.694 108.647 191.182 110.41 193.409 112.175C195.063 113.476 196.785 114.688 198.566 115.808C200.109 116.782 201.955 117.809 203.31 118.992C205.718 121.097 205.461 125.397 205.358 128.29C205.205 132.597 204.983 136.964 204.033 141.173C203.589 143.179 202.932 145.132 202.072 146.998C199.932 151.65 196.532 155.779 191.096 156.299C190.003 156.404 187.658 156.783 186.679 156.322C185.75 154.141 188.366 154.481 187.781 151.433L187.732 151.189C191.083 150.053 191.441 142.418 188.401 140.824C187.253 140.223 185.198 141.404 184.144 141.895C181.477 137.392 174.363 139.979 170.801 141.967ZM195.48 116.638C194.565 116.795 193.389 116.96 192.745 117.694L192.732 118.072C193.933 119.31 195.84 118.542 197.591 119.127C199.319 119.704 200.092 120.337 201.46 121.473C202.099 121.958 201.962 122.022 202.594 122.018C202.725 121.528 202.659 121.326 202.391 120.873C200.87 118.3 198.368 116.926 195.48 116.638ZM177.598 117.188C175.894 117.679 172.878 119.489 172.942 121.454C173.979 121.643 175.127 120.295 175.936 119.627C178.724 118.51 180.363 119.423 182.6 118.751L182.691 118.337C181.787 117.004 179.035 117.042 177.598 117.188ZM186.631 130.894C186.186 132.466 185.505 135.22 185.306 136.833C186.186 136.937 187.079 137.06 187.963 137.1L188.448 137.019C188.687 136.17 187.307 131.485 186.631 130.894Z" fill="#FEFEFE"/>
<path d="M110.164 134.89C110.006 132.413 110.022 129.446 109.946 126.906C109.78 120.612 109.556 114.321 109.271 108.031C110.89 109.216 112.488 110.429 114.065 111.669C114.931 118.04 115.658 124.43 116.244 130.833L114.092 132.124C112.805 132.945 111.417 133.991 110.164 134.89Z" fill="#EBEBEB"/>
<path d="M267.25 111.749L271.327 108.8C271.803 109.491 271.462 113.166 271.434 114.282C271.244 121.824 270.808 129.416 270.83 136.959C269.975 136.147 268.971 135.308 268.074 134.527L265.328 132.301C265.48 126.461 266.55 117.658 267.25 111.749Z" fill="#EBEBEB"/>
<path d="M117.07 130.329C116.607 127.752 116.406 124.066 116.068 121.343C115.719 118.528 115.044 114.936 114.902 112.207C116.697 113.372 118.194 114.484 120.273 115.061C121.262 119.518 121.741 123.502 122.611 127.81L121.166 128.436C119.802 129.009 118.413 129.693 117.07 130.329Z" fill="#EBEBEB"/>
<path d="M261.315 114.756L266.025 112.596L266.114 112.659C266.626 113.716 264.602 129.084 264.416 131.72L261.168 129.633L258.724 128.268C258.866 124.116 260.151 118.751 261.315 114.756Z" fill="#EBEBEB"/>
<path d="M201.46 121.473C200.092 120.336 199.319 119.704 197.59 119.127C195.839 118.541 193.933 119.31 192.731 118.071L192.745 117.694C193.389 116.96 194.564 116.795 195.48 116.638C198.368 116.926 200.869 118.299 202.39 120.873C202.658 121.326 202.725 121.527 202.594 122.018C201.962 122.022 202.099 121.958 201.46 121.473Z" fill="#121212"/>
<path d="M175.936 119.628C175.127 120.295 173.978 121.643 172.941 121.455C172.877 119.49 175.893 117.68 177.598 117.189C179.034 117.043 181.786 117.005 182.69 118.338L182.599 118.752C180.363 119.424 178.723 118.511 175.936 119.628Z" fill="#121212"/>
<path d="M179.792 132.769C177.316 131.94 178.187 129.309 179.548 127.878C181.212 128.554 181.695 131.638 179.792 132.769Z" fill="#121212"/>
<path d="M196.709 132.65C196.032 132.754 196.078 132.766 195.423 132.576C194.065 131.495 194.856 129.536 195.554 128.284C197.763 128.461 198.126 131.084 196.709 132.65Z" fill="#121212"/>
<path d="M157.989 124.375C155.213 131.777 147.112 134.384 144.511 142.558C142.589 148.599 142.337 154.397 145.039 160.167C144.976 160.174 144.913 160.182 144.85 160.19C135.282 160.581 125.908 157.899 116.407 157.278C112.245 157.006 108.695 157.616 108.379 162.573C108.146 166.222 108.412 169.845 108.739 173.478L110.215 189.23C111.27 200.465 111.217 204.403 107.621 215.225C106.384 218.949 105.525 228.281 105.216 232.285C104.447 232.756 103.649 233.178 102.851 233.599C98.6898 235.796 94.6978 238.258 90.6717 240.694C90.2927 234.481 90.5224 225.34 90.5137 218.946L90.5213 178.27C90.5467 163.106 95.1773 150.384 106.007 139.619C114.654 131.139 125.923 125.845 137.971 124.603C143.415 124.094 152.284 124.362 157.989 124.375Z" fill="#FEFEFE"/>
<path d="M229.133 160.136C231.298 153.403 230.482 147.846 227.459 141.494C223.792 133.791 217.508 132.961 215.037 124.415C224.392 124.537 235.185 123.843 244.379 124.642C253.721 125.454 264.361 131.537 270.859 138.222C278.994 146.491 284.081 157.277 285.287 168.814C285.721 173.334 285.503 180.175 285.464 184.947L285.147 209.301C284.985 219.885 284.415 230.434 284.111 241.003C279.991 239.228 275.822 237.574 271.606 236.04C270.643 235.69 267.532 234.555 266.594 234.386C266.552 225.875 265.338 220.502 262.466 212.559C261.443 209.266 259.876 205.677 259.331 202.266C257.651 191.259 259.723 179.773 259.722 168.633C259.721 155.837 254.244 157.946 244.235 159.287C239.581 159.911 233.84 160.522 229.133 160.136Z" fill="#FEFEFE"/>
<path d="M185.306 136.833C185.505 135.22 186.185 132.466 186.631 130.895C187.306 131.485 188.687 136.171 188.447 137.02L187.963 137.1C187.079 137.06 186.186 136.937 185.306 136.833Z" fill="#121212"/>
<path d="M158.569 209.506C156.295 214.883 153.537 220.801 150.138 225.555C146.792 230.104 141.212 237.338 135.334 238.233C123.371 240.053 122.702 222.151 125.98 214.747C127.804 210.626 131.239 206.564 134.015 202.942C137.657 198.105 141.357 193.312 145.113 188.563C150.604 181.759 155.764 175.99 160.068 168.237C164.239 160.724 162.407 152.702 167.465 146.064C170.11 142.593 174.708 140.572 179.015 140.15C183.821 139.972 181.794 141.204 183.127 142.64C183.68 142.569 183.675 142.524 184.178 142.734C184.739 143.324 185.452 144.503 184.841 145.237C178.814 142.702 174.728 143.047 169.331 147.086C170.234 146.88 172.026 146.175 172.876 145.722C177.108 143.465 184.852 143.748 187.122 148.805C187.024 149.519 187.159 149.203 186.66 149.769C185.925 150.024 181.263 147.914 179.299 148.203C178.121 148.377 171.916 149.712 172.133 151.362L172.438 151.468C175.417 149.182 179.261 148.405 182.879 149.418C184.662 149.918 187.984 150.822 187.259 153.225C184.989 155.667 179.186 149.407 173.378 156.525C175.446 155.64 177.226 153.869 179.634 153.732C181.244 153.641 186.703 153.943 185.94 156.587C184.839 157.704 182.263 157.934 180.693 158.516C176.14 160.205 177.025 164.434 175.084 167.818C171.666 173.775 170.149 179.916 167.83 186.324C165 194.152 161.912 201.883 158.569 209.506Z" fill="#FEFEFE"/>
<path d="M186.501 157.131C193.27 157.283 195.706 156.74 200.24 151.577C200.348 151.641 203.192 155.993 204.008 156.869C204.115 158.286 204.095 159.551 203.566 160.886C199.9 170.144 190.269 173.816 181.236 170.818C179.173 170.036 177.742 169.152 175.824 168.091C176.995 164.546 178.087 159.267 182.095 158.697C183.724 158.465 184.95 158.176 186.302 157.268L186.501 157.131Z" fill="#FEFEFE"/>
<path d="M124.627 216.061L124.531 216.349L124.385 216.307C124.389 204.492 134.233 178.889 141.371 169.252C146.555 162.253 153.441 157.609 162.158 156.251L162.617 156.242L162.804 156.501C162.669 157.521 162.525 158.55 162.33 159.558C160.12 170.966 151.218 179.585 144.302 188.387C139.529 194.461 134.772 200.71 130.108 206.889C127.893 209.825 125.893 212.564 124.627 216.061Z" fill="#FEFEFE"/>
<path d="M175.59 168.623C185.013 175.519 197.487 173.484 203.37 163.113C204.772 160.641 205.175 158.83 204.455 156.062C213.704 158.593 219.887 158.981 228.052 165.263C237.033 172.172 239.469 181.164 242.743 191.344C244.624 197.153 246.546 202.948 248.507 208.73C249.318 211.044 250.384 214.464 251.404 216.611C253.972 222.015 255.596 225.406 256.41 231.377C251.89 225.501 247.612 223.268 241.042 219.946C238.784 218.804 236.682 217.714 234.291 216.831C231.802 212.19 229.959 209.157 224.14 209.255C224.024 206.082 223.244 198.714 222.64 195.704L222.414 195.498L222.494 195.276L222.582 195.495L222.421 195.391C221.944 197.84 223.335 206.397 223.471 209.818C220.115 210.938 219.677 209.483 216.571 208.017C215.935 207.718 215.125 207.69 214.652 207.227C211.665 202.519 207.727 201.687 202.749 203.955C199.853 197.695 190.248 197.435 187.082 203.689C186.966 203.582 186.848 203.477 186.731 203.373C182.251 199.42 176.123 201.259 172.62 205.512C167.423 207.086 169.566 207.864 166.458 210.247C165.588 210.914 163.076 210.019 160.916 211.963C158.795 213.871 159.111 215.857 158.314 216.596C157.639 216.618 157.514 216.648 156.846 216.448C156.739 216.217 156.594 216.05 156.706 215.791C158.156 212.449 159.106 207.855 163.29 207.082C165.284 206.714 165.582 207.154 167.382 207.427L167.419 207.219C165.498 205.192 162.392 206.542 160.261 207.492C163.001 201.021 165.603 194.493 168.063 187.91C169.705 183.39 171.03 178.989 172.599 174.49C173.041 173.222 174.896 169.916 175.59 168.623Z" fill="#FEFEFE"/>
<path d="M312.527 157.348C315.557 156.484 318.38 156.388 321.488 156.273C325.877 156.198 330.02 156.225 334.253 157.483C331.373 158.052 328.215 158.09 325.272 158.186C320.797 158.273 316.944 158.087 312.527 157.348Z" fill="#FEFEFE"/>
<path d="M145.039 160.167C145.631 160.882 146.24 161.67 146.912 162.301C144.295 164.636 141.572 167.506 139.663 170.445C132.694 181.179 124.428 202.462 123.691 215.058C123.554 217.618 123.478 220.181 123.465 222.745C117.418 225.994 111.334 229.174 105.216 232.286C105.525 228.281 106.384 218.95 107.621 215.226C111.217 204.404 111.27 200.465 110.215 189.23L108.739 173.479C108.412 169.846 108.146 166.222 108.379 162.573C108.695 157.617 112.245 157.006 116.407 157.279C125.908 157.899 135.283 160.581 144.85 160.19C144.913 160.182 144.976 160.175 145.039 160.167Z" fill="#1976D2"/>
<path d="M298.196 202.955C298.619 200.028 300.53 194.616 301.439 191.43C304.686 180.176 308.046 168.955 311.518 157.769C317.239 159.286 329.009 159.17 334.89 158.07C335.728 160.634 336.527 163.856 337.283 166.5C339.302 173.525 341.239 180.575 343.09 187.646C344.282 192.12 346.485 198.806 347.247 203.171C343.731 205.751 338.463 206.512 334.204 207.102C331.275 207.376 328.378 207.725 325.426 207.868C317.733 208.24 304.669 207.176 298.196 202.955ZM315.726 165.868C314.133 175.465 311.445 190.826 309.59 200.988C309.646 201.097 309.701 201.206 309.757 201.315L310.234 201.458C310.882 198.462 316.534 166.598 316.344 166.109L315.726 165.868ZM329.09 165.901C328.974 167.816 331.131 179.187 331.592 181.578C332.781 187.756 333.585 194.901 334.812 200.997C335.212 201.343 334.988 201.22 335.531 201.289C335.46 199.926 334.998 197.698 334.766 196.277L333.508 188.349C332.692 183.138 331.803 177.94 330.84 172.755C330.514 170.951 330.115 167.896 329.648 166.248C329.333 165.978 329.459 166.026 329.09 165.901Z" fill="#FEFEFE"/>
<path d="M229.133 160.136C233.84 160.522 239.581 159.911 244.235 159.287C254.244 157.946 259.72 155.837 259.722 168.633C259.723 179.774 257.651 191.259 259.331 202.266C259.875 205.677 261.443 209.266 262.466 212.56C265.338 220.502 266.552 225.875 266.594 234.386C264.176 233.481 259.657 232.437 257.116 231.809C257.107 231.426 257.082 231.043 257.042 230.661C256.8 228.548 256.35 226.463 255.7 224.438C254.558 220.924 252.398 217.578 251.03 213.652C248.894 207.439 246.803 201.21 244.759 194.966C242.592 188.22 240.337 180.582 237.038 174.326C234.802 170.086 231.151 166.708 227.473 163.724C228.162 162.4 228.58 161.518 229.133 160.136Z" fill="#1976D2"/>
<path d="M310.234 201.458L309.757 201.315C309.701 201.206 309.646 201.097 309.59 200.988C311.445 190.826 314.133 175.465 315.726 165.868L316.344 166.109C316.533 166.598 310.881 198.462 310.234 201.458Z" fill="#121212"/>
<path d="M335.531 201.288C334.988 201.219 335.212 201.343 334.812 200.997C333.585 194.901 332.781 187.756 331.592 181.578C331.131 179.187 328.974 167.816 329.09 165.901C329.459 166.026 329.333 165.978 329.648 166.247C330.116 167.896 330.515 170.951 330.841 172.754C331.803 177.939 332.692 183.138 333.508 188.349L334.767 196.277C334.999 197.698 335.46 199.926 335.531 201.288Z" fill="#121212"/>
<path d="M187.016 204.41C189.405 201.794 189.504 200.908 193.458 199.989C196.042 199.842 199.016 200.247 200.883 202.228C203.591 205.1 198.834 205.937 197.088 206.864C196.371 207.245 195.525 207.864 194.846 208.343C192.636 206.777 189.729 205.02 186.998 204.714L186.992 204.904C188.134 205.724 189.95 206.328 191.274 206.996C192.666 207.697 193.803 208.396 195.128 209.208C196.874 207.864 198.469 206.662 200.758 206.438C202.606 206.27 204.446 206.833 205.884 208.006C207.788 209.571 208.311 211.221 208.522 213.501C207.501 215.6 208.397 216.262 205.778 216.362C202.448 216.472 198.968 216.428 195.626 216.433C196.179 212.123 194.995 209.609 190.371 208.647C188.145 208.183 187.654 208.659 185.856 209.938C185.416 209.904 185.141 209.748 184.793 209.452C183.068 207.984 180.687 208.417 178.514 208.808C178.419 208.661 178.322 208.517 178.223 208.373C176.875 206.436 175.371 206.051 173.19 205.658C177.675 201.525 181.779 200.539 187.016 204.41Z" fill="#FEFEFE"/>
<path d="M201.321 205.532C203.347 204.439 204.14 204.04 206.379 203.594C210.407 203.164 211.948 204.557 214.082 207.637C211.818 208.209 210.725 208.517 208.918 210.031L208.873 210.065C208.162 210.1 207.265 208.137 206.121 207.395C204.319 206.227 203.373 205.829 201.321 205.532Z" fill="#FEFEFE"/>
<path d="M167.613 210.741C168.681 208.265 169.582 207.587 171.848 206.405C174.557 206.185 176.35 206.815 177.828 209.118C174.222 211.04 173.534 212.493 173.756 216.42L164.964 216.434C163.094 216.427 161.152 216.556 159.279 216.651C160.793 211.573 162.606 211.209 167.613 210.741Z" fill="#FEFEFE"/>
<path d="M208.128 216.303C210.504 211.313 206.925 210.071 214.251 208.338C219.059 207.988 220.021 212.734 220.598 216.365L214.967 216.354L208.128 216.303Z" fill="#FEFEFE"/>
<path d="M325.626 241.953C319.209 243.299 313.383 240.808 310.221 235.109C304.289 224.418 309.647 214.193 319.294 208.7C321.577 208.714 323.919 208.669 326.207 208.65C330.802 211.796 334.754 215.364 336.549 220.847C337.978 225.221 337.576 229.987 335.433 234.059C333.249 238.226 330.025 240.578 325.626 241.953Z" fill="#FEFEFE"/>
<path d="M190.726 216.43L181.084 216.444C179.278 216.447 176.67 216.532 174.929 216.313C174.619 216.035 174.389 215.788 174.381 215.34C174.307 210.964 177.979 209.544 181.344 209.118C182.531 209.102 183.572 209.472 184.659 209.873C185.065 210.41 185.375 210.921 185.932 211.285C191.235 205.3 197.185 213.731 194.673 216.296C193.732 216.553 191.791 216.445 190.726 216.43Z" fill="#FEFEFE"/>
<path d="M219.835 210.638C222.104 211.127 222.652 210.912 224.739 210.048C236.27 209.099 237.774 233.622 226.146 234.183C221.291 234.418 216.584 234.512 212.143 232.539C208.522 230.931 205.189 229.677 202.222 226.965C208.657 228.538 214.944 232.741 222.108 231.146C223.761 230.778 225.979 230.04 226.926 228.572L226.844 228.279L226.535 228.47C221.524 231.519 218.16 231.165 212.627 229.77C209.636 228.788 206.674 227.762 203.696 226.753C203.187 226.58 203.187 226.36 203.04 225.927C203.295 224.326 204.192 224.207 205.583 224.473C207.819 224.9 210.026 225.674 212.233 226.237C213.435 226.553 214.659 226.777 215.894 226.906C218.206 227.138 224.423 226.772 226.094 225.397L226.099 225.106C225.535 224.972 223.695 225.642 222.788 225.794C220.765 226.132 218.885 226.405 216.821 226.292C212.153 226.038 208.577 224.196 203.848 223.557L203.754 223.39C204.498 223.046 205.6 221.947 206.267 221.82C210.107 221.086 228.105 222.979 229.123 218.546C228.651 216.085 223.228 216.472 221.117 216.4C221.025 214.044 220.591 212.915 219.835 210.638Z" fill="#FEFEFE"/>
<path d="M219.885 234.889C222.033 234.846 224.96 235.124 227.003 234.789C235.133 233.453 235.333 223.517 234.35 217.555C240.974 220.384 249.23 224.439 254.28 229.748C259.591 235.332 255.401 242.087 249.425 244.633C246.926 245.698 244.557 245.723 241.828 245.375C237.283 244.536 232.232 241.167 228.071 238.923C225.387 237.49 222.656 236.145 219.885 234.889Z" fill="#FEFEFE"/>
<path d="M212.843 240.173C208.257 239.058 202.54 238.464 197.863 237.955C179.005 235.904 160.919 240.032 144.027 248.43C140.381 250.243 136.623 252.531 133.075 254.608C127.929 257.566 122.828 260.601 117.772 263.71C113.721 266.189 109.603 268.57 105.562 271.084C103.712 272.235 98.8105 275.646 97.2199 276.205L97.063 276.048C99.2066 273.499 110.403 267.273 114.075 265.006C138.084 250.181 156.201 238.483 185.172 236.805C185.261 236.801 185.351 236.797 185.441 236.793C207.603 236.086 229.488 241.892 248.384 253.494C263.15 262.424 276.632 272.759 293.093 278.811C294.881 279.468 298.214 280.774 299.478 281.952C295.582 281.094 289.508 278.183 285.8 276.496C276.027 272.051 266.751 266.246 257.732 260.437C251.972 256.727 246.817 253.209 240.693 250.014C231.913 245.453 222.539 242.141 212.843 240.173Z" fill="#121212"/>
<path d="M172.538 270.692C173.265 269.977 174.311 269.69 175.301 269.933L206.475 277.597C208.518 278.1 209.388 280.521 208.132 282.208L201.34 291.334C200.632 292.286 199.42 292.718 198.269 292.431L165.213 284.169C162.985 283.612 162.227 280.83 163.865 279.22L172.538 270.692Z" fill="black"/>
<path d="M173.195 271.898C173.927 271.212 174.958 270.948 175.93 271.196L204.299 278.43C206.313 278.943 207.172 281.327 205.95 283.008L204.5 285.001L200.961 289.586C200.253 290.502 199.074 290.918 197.948 290.648L167.609 283.366C165.332 282.82 164.577 279.96 166.287 278.36L173.195 271.898Z" fill="#EBEBEB"/>
<path d="M162.407 279.477C162.285 279.672 161.844 279.967 161.609 280.212C161.391 280.44 161.352 280.802 161.326 282.442C161.315 283.109 161.694 283.528 161.964 283.787C162.111 283.994 162.283 284.192 162.467 284.339C162.554 284.413 162.627 284.486 162.849 284.709" stroke="#03374B" stroke-width="0.588021" stroke-linecap="round"/>
<path d="M167.197 285.446C167.491 285.495 167.933 285.691 168.313 285.949C168.701 286.212 169.087 286.281 170.08 286.355C170.536 286.389 170.807 286.649 171.114 287.078C171.377 287.445 172.083 287.166 172.551 287.031C172.65 287.018 172.723 287.043 172.797 287.067C172.871 287.092 172.944 287.116 173.093 287.215" stroke="#03374B" stroke-width="0.588021" stroke-linecap="round"/>
<path d="M181.715 289.057C182.033 289.032 182.425 289.18 183.357 289.645C183.716 289.824 183.778 290.138 183.937 290.236C184.503 290.585 185.472 290.432 185.828 290.592C185.915 290.629 185.988 290.654 186.05 290.703C186.111 290.752 186.16 290.825 186.358 290.973" stroke="#03374B" stroke-width="0.588021" stroke-linecap="round"/>
<path d="M193.506 293.11C194.61 293.405 195.149 293.454 195.568 293.625C195.949 293.782 196.353 293.651 197.836 293.675C198.369 293.97 198.712 294.068 199.043 294.081C199.18 294.093 199.253 294.117 199.328 294.142" stroke="#03374B" stroke-width="0.588021" stroke-linecap="round"/>
<path d="M203.602 291.268C203.847 291.292 204.482 291.341 205.062 291.183C205.301 291.117 205.444 290.876 205.579 290.643C206.022 289.878 205.982 288.789 206.352 288.42C206.53 288.241 206.819 288.246 207.04 288.283C207.241 288.316 207.36 288.492 207.495 288.492C207.752 288.247 207.95 287.661 208.133 287.191C208.219 287.093 208.341 286.971 208.613 286.772" stroke="#03374B" stroke-width="0.588021" stroke-linecap="round"/>
<path d="M170.808 270.854C170.832 270.708 170.93 270.316 170.992 269.812C171.066 269.203 171.348 268.841 171.604 268.694C172.192 268.357 172.624 268.717 172.956 268.632C173.356 268.529 173.558 268.178 173.779 268.043C174.048 268.029 174.271 268.103 174.43 268.201C174.516 268.25 174.614 268.299 174.861 268.423" stroke="#03374B" stroke-width="0.588021" stroke-linecap="round"/>
<path d="M187.463 270.412C187.439 270.655 187.414 270.898 187.657 271.024C188.912 271.671 189.451 271.394 189.771 271.541C190.165 271.812 190.506 271.96 190.937 272.021C191.096 272.033 191.339 272.033 191.59 272.033" stroke="#03374B" stroke-width="0.588021" stroke-linecap="round"/>
<path d="M202.497 274.245C203.615 274.391 204.483 274.466 204.95 274.527C205.46 274.594 205.59 275.104 205.922 275.325C206.621 275.424 207.335 275.449 207.543 275.534C207.63 275.595 207.679 275.692 207.803 275.94" stroke="#03374B" stroke-width="0.588021" stroke-linecap="round"/>
<path d="M210.235 277.119C210.162 277.168 210.089 277.216 210.087 277.254C210.079 277.533 210.627 277.634 210.897 277.88C211.063 278.032 211.167 278.248 211.241 278.517C211.218 279.256 211.119 279.72 211.107 280.247C211.095 280.459 211.07 280.556 211.045 280.656" stroke="#03374B" stroke-width="0.588021" stroke-linecap="round"/>
</svg>
