<svg width="390" height="346" viewBox="0 0 390 346" fill="none" xmlns="http://www.w3.org/2000/svg">
<path d="M249.874 127.132L275.258 63.3945H309.333L244.843 204.69H210.082L231.807 157.173L192.587 63.3945H227.233L249.874 127.132Z" fill="#1976D2"/>
<path d="M159.073 157.173V141.981C158.387 143.504 155.283 145.712 152.462 148.606C149.718 151.499 146.059 154.127 141.485 156.487C136.911 158.772 131.575 159.914 125.477 159.914C116.329 159.914 108.325 157.706 101.464 153.289C94.6037 148.796 89.2676 142.818 85.4561 135.356C81.6446 127.817 79.7388 119.479 79.7388 110.341C79.7388 101.203 81.6446 92.9024 85.4561 85.4397C89.2676 77.9009 94.6037 71.8851 101.464 67.3923C108.325 62.8995 116.329 60.6531 125.477 60.6531C131.347 60.6531 136.492 61.6049 140.914 63.5087C145.335 65.3363 148.918 67.5446 151.662 70.1337C154.406 72.6466 156.312 74.9692 157.379 77.1014V63.3945H190.836V157.173H159.073ZM113.814 110.341C113.814 114.605 114.805 118.451 116.787 121.877C118.769 125.228 121.399 127.855 124.677 129.759C128.031 131.663 131.728 132.614 135.768 132.614C139.961 132.614 143.658 131.663 146.859 129.759C150.061 127.855 152.577 125.228 154.406 121.877C156.312 118.451 157.265 114.605 157.265 110.341C157.265 106.076 156.312 102.269 154.406 98.9182C152.577 95.4915 150.061 92.8263 146.859 90.9225C143.658 88.9426 139.961 87.9527 135.768 87.9527C131.728 87.9527 128.031 88.9426 124.677 90.9225C121.399 92.8263 118.769 95.4915 116.787 98.9182C114.805 102.269 113.814 106.076 113.814 110.341Z" fill="#1976D2"/>
<path d="M8.82334 159.914C-0.248051 159.914 -8.13788 157.706 -14.8461 153.289C-21.5544 148.796 -26.7762 142.818 -30.5114 135.356C-34.1705 127.817 -36 119.479 -36 110.341C-36 101.203 -34.1705 92.9024 -30.5114 85.4398C-26.7762 77.9009 -21.5544 71.8851 -14.8461 67.3923C-8.13788 62.8995 -0.248051 60.6531 8.82334 60.6531C14.8455 60.6531 20.1816 61.605 24.8317 63.5087C29.4817 65.3363 33.2551 67.5446 36.1518 70.1337C39.0486 72.6466 40.8019 74.9692 41.4117 77.1014V0H76.1727V157.173H41.7548V141.981C40.3064 144.798 37.9433 147.616 34.6654 150.433C31.3875 153.175 27.5378 155.421 23.1165 157.173C18.6951 159 13.9308 159.914 8.82334 159.914ZM19.4575 132.614C23.6501 132.614 27.3854 131.663 30.6633 129.759C34.0174 127.855 36.6473 125.228 38.5531 121.877C40.4589 118.451 41.4117 114.605 41.4117 110.341C41.4117 106.076 40.4589 102.269 38.5531 98.9182C36.6473 95.4915 34.0174 92.8263 30.6633 90.9225C27.3854 88.9426 23.6501 87.9527 19.4575 87.9527C15.4172 87.9527 11.7582 88.9426 8.4803 90.9225C5.27864 92.8263 2.72493 95.4915 0.819172 98.9182C-1.01036 102.269 -1.92512 106.076 -1.92512 110.341C-1.92512 114.605 -1.01036 118.451 0.819172 121.877C2.72493 125.228 5.27864 127.855 8.4803 129.759C11.7582 131.663 15.4172 132.614 19.4575 132.614Z" fill="#1976D2"/>
<path d="M365.54 268.442L390.925 204.705H425L360.509 346H325.748L347.474 298.483L308.253 204.705H342.9L365.54 268.442Z" fill="#1976D2"/>
<path d="M273.389 298.483V283.291C272.703 284.814 270.95 287.022 268.129 289.916C265.385 292.81 261.726 295.437 257.152 297.797C252.578 300.082 247.242 301.224 241.144 301.224C231.996 301.224 223.992 299.016 217.131 294.599C210.27 290.106 204.934 284.129 201.123 276.666C197.311 269.127 195.405 260.789 195.405 251.651C195.405 242.513 197.311 234.212 201.123 226.75C204.934 219.211 210.27 213.195 217.131 208.702C223.992 204.21 231.996 201.963 241.144 201.963C247.013 201.963 252.159 202.915 256.58 204.819C261.001 206.646 264.584 208.855 267.329 211.444C270.073 213.957 271.979 216.279 273.046 218.411V204.705H307.578V298.483H273.389ZM229.48 251.651C229.48 255.915 230.471 259.761 232.453 263.187C234.435 266.538 237.065 269.165 240.343 271.069C243.697 272.973 247.394 273.924 251.435 273.924C255.627 273.924 259.324 272.973 262.526 271.069C265.728 269.165 268.243 266.538 270.073 263.187C271.979 259.761 272.932 255.915 272.932 251.651C272.932 247.386 271.979 243.579 270.073 240.228C268.243 236.802 265.728 234.136 262.526 232.233C259.324 230.253 255.627 229.263 251.435 229.263C247.394 229.263 243.697 230.253 240.343 232.233C237.065 234.136 234.435 236.802 232.453 240.228C230.471 243.579 229.48 247.386 229.48 251.651Z" fill="#1976D2"/>
<path d="M126.078 301.222C117.007 301.222 109.117 299.014 102.409 294.597C95.7005 290.104 90.4788 284.127 86.7435 276.664C83.0845 269.125 81.2549 260.787 81.2549 251.649C81.2549 242.511 83.0845 234.211 86.7435 226.748C90.4788 219.209 95.7005 213.193 102.409 208.701C109.117 204.208 117.007 201.961 126.078 201.961C132.1 201.961 137.437 202.913 142.087 204.817C146.737 206.645 150.51 208.853 153.407 211.442C156.304 213.955 158.463 216.277 159.073 218.41V141.308L190.836 141.31V298.482L159.01 298.481V283.289C157.561 286.107 155.198 288.924 151.92 291.742C148.642 294.483 144.793 296.729 140.371 298.481C135.95 300.308 131.186 301.222 126.078 301.222ZM136.712 273.923C140.905 273.923 144.64 272.971 147.918 271.067C151.272 269.163 153.902 266.536 155.808 263.186C157.714 259.759 158.667 255.913 158.667 251.649C158.667 247.384 157.714 243.577 155.808 240.226C153.902 236.8 151.272 234.134 147.918 232.231C144.64 230.251 140.905 229.261 136.712 229.261C132.672 229.261 129.013 230.251 125.735 232.231C122.534 234.134 119.98 236.8 118.074 240.226C116.245 243.577 115.33 247.384 115.33 251.649C115.33 255.913 116.245 259.759 118.074 263.186C119.98 266.536 122.534 269.163 125.735 271.067C129.013 272.971 132.672 273.923 136.712 273.923Z" fill="#1976D2"/>
<path d="M279.771 206.416V119.098H299.082V161.932C299.464 160.747 300.438 159.457 302.005 158.061C303.614 156.623 305.71 155.396 308.294 154.38C310.919 153.323 313.884 152.794 317.187 152.794C322.269 152.794 326.673 154.042 330.4 156.538C334.127 159.034 337.007 162.376 339.04 166.564C341.073 170.71 342.089 175.322 342.089 180.398C342.089 185.475 341.073 190.107 339.04 194.296C337.007 198.441 334.127 201.762 330.4 204.258C326.673 206.712 322.269 207.939 317.187 207.939C314.392 207.939 311.745 207.431 309.246 206.416C306.79 205.443 304.651 204.195 302.83 202.672C301.052 201.107 299.739 199.541 298.892 197.976V206.416H279.771ZM323.158 180.398C323.158 178.029 322.629 175.914 321.57 174.052C320.554 172.149 319.135 170.668 317.314 169.61C315.535 168.51 313.524 167.96 311.279 167.96C308.95 167.96 306.854 168.51 304.99 169.61C303.169 170.668 301.729 172.149 300.671 174.052C299.612 175.914 299.082 178.029 299.082 180.398C299.082 182.767 299.612 184.904 300.671 186.807C301.729 188.669 303.169 190.128 304.99 191.186C306.854 192.244 308.95 192.773 311.279 192.773C313.524 192.773 315.535 192.244 317.314 191.186C319.135 190.128 320.554 188.669 321.57 186.807C322.629 184.904 323.158 182.767 323.158 180.398Z" fill="#1976D2"/>
<path d="M371.005 189.727L385.107 154.317H404.038L368.21 232.814H348.898L360.968 206.416L339.179 154.317H358.427L371.005 189.727Z" fill="#1976D2"/>
</svg>
