<svg width="461" height="346" viewBox="0 0 461 346" fill="none" xmlns="http://www.w3.org/2000/svg">
<path d="M285.874 127.132L311.258 63.3945H345.333L280.843 204.69H246.082L267.807 157.173L228.587 63.3945H263.233L285.874 127.132Z" fill="#1976D2"/>
<path d="M195.073 157.173V141.981C194.387 143.504 191.283 145.712 188.462 148.606C185.718 151.499 182.059 154.127 177.485 156.487C172.911 158.772 167.575 159.914 161.477 159.914C152.329 159.914 144.325 157.706 137.464 153.289C130.604 148.796 125.268 142.818 121.456 135.356C117.645 127.817 115.739 119.479 115.739 110.341C115.739 101.203 117.645 92.9024 121.456 85.4397C125.268 77.9009 130.604 71.8851 137.464 67.3923C144.325 62.8995 152.329 60.6531 161.477 60.6531C167.347 60.6531 172.492 61.6049 176.914 63.5087C181.335 65.3363 184.918 67.5446 187.662 70.1337C190.406 72.6466 192.312 74.9692 193.379 77.1014V63.3945H226.836V157.173H195.073ZM149.814 110.341C149.814 114.605 150.805 118.451 152.787 121.877C154.769 125.228 157.399 127.855 160.677 129.759C164.031 131.663 167.728 132.614 171.768 132.614C175.961 132.614 179.658 131.663 182.859 129.759C186.061 127.855 188.577 125.228 190.406 121.877C192.312 118.451 193.265 114.605 193.265 110.341C193.265 106.076 192.312 102.269 190.406 98.9182C188.577 95.4915 186.061 92.8263 182.859 90.9225C179.658 88.9426 175.961 87.9527 171.768 87.9527C167.728 87.9527 164.031 88.9426 160.677 90.9225C157.399 92.8263 154.769 95.4915 152.787 98.9182C150.805 102.269 149.814 106.076 149.814 110.341Z" fill="#1976D2"/>
<path d="M44.8233 159.914C35.7519 159.914 27.8621 157.706 21.1539 153.289C14.4456 148.796 9.22385 142.818 5.48857 135.356C1.82952 127.817 0 119.479 0 110.341C0 101.203 1.82952 92.9024 5.48857 85.4398C9.22385 77.9009 14.4456 71.8851 21.1539 67.3923C27.8621 62.8995 35.7519 60.6531 44.8233 60.6531C50.8455 60.6531 56.1816 61.605 60.8317 63.5087C65.4817 65.3363 69.2551 67.5446 72.1518 70.1337C75.0486 72.6466 76.8019 74.9692 77.4117 77.1014V0H112.173V157.173H77.7548V141.981C76.3064 144.798 73.9433 147.616 70.6654 150.433C67.3875 153.175 63.5378 155.421 59.1165 157.173C54.6951 159 49.9308 159.914 44.8233 159.914ZM55.4575 132.614C59.6501 132.614 63.3854 131.663 66.6633 129.759C70.0174 127.855 72.6473 125.228 74.5531 121.877C76.4589 118.451 77.4117 114.605 77.4117 110.341C77.4117 106.076 76.4589 102.269 74.5531 98.9182C72.6473 95.4915 70.0174 92.8263 66.6633 90.9225C63.3854 88.9426 59.6501 87.9527 55.4575 87.9527C51.4172 87.9527 47.7582 88.9426 44.4803 90.9225C41.2786 92.8263 38.7249 95.4915 36.8192 98.9182C34.9896 102.269 34.0749 106.076 34.0749 110.341C34.0749 114.605 34.9896 118.451 36.8192 121.877C38.7249 125.228 41.2786 127.855 44.4803 129.759C47.7582 131.663 51.4172 132.614 55.4575 132.614Z" fill="#1976D2"/>
<path d="M401.54 268.442L426.925 204.705H461L396.509 346H361.748L383.474 298.483L344.253 204.705H378.9L401.54 268.442Z" fill="#1976D2"/>
<path d="M309.389 298.483V283.291C308.703 284.814 306.95 287.022 304.129 289.916C301.385 292.81 297.726 295.437 293.152 297.797C288.578 300.082 283.242 301.224 277.144 301.224C267.996 301.224 259.992 299.016 253.131 294.599C246.27 290.106 240.934 284.129 237.123 276.666C233.311 269.127 231.405 260.789 231.405 251.651C231.405 242.513 233.311 234.212 237.123 226.75C240.934 219.211 246.27 213.195 253.131 208.702C259.992 204.21 267.996 201.963 277.144 201.963C283.013 201.963 288.159 202.915 292.58 204.819C297.001 206.646 300.584 208.855 303.329 211.444C306.073 213.957 307.979 216.279 309.046 218.411V204.705H343.578V298.483H309.389ZM265.48 251.651C265.48 255.915 266.471 259.761 268.453 263.187C270.435 266.538 273.065 269.165 276.343 271.069C279.697 272.973 283.394 273.924 287.435 273.924C291.627 273.924 295.324 272.973 298.526 271.069C301.728 269.165 304.243 266.538 306.073 263.187C307.979 259.761 308.932 255.915 308.932 251.651C308.932 247.386 307.979 243.579 306.073 240.228C304.243 236.802 301.728 234.136 298.526 232.233C295.324 230.253 291.627 229.263 287.435 229.263C283.394 229.263 279.697 230.253 276.343 232.233C273.065 234.136 270.435 236.802 268.453 240.228C266.471 243.579 265.48 247.386 265.48 251.651Z" fill="#1976D2"/>
<path d="M162.078 301.222C153.007 301.222 145.117 299.014 138.409 294.597C131.701 290.104 126.479 284.127 122.744 276.664C119.084 269.125 117.255 260.787 117.255 251.649C117.255 242.511 119.084 234.211 122.744 226.748C126.479 219.209 131.701 213.193 138.409 208.701C145.117 204.208 153.007 201.961 162.078 201.961C168.1 201.961 173.437 202.913 178.087 204.817C182.737 206.645 186.51 208.853 189.407 211.442C192.304 213.955 194.463 216.277 195.073 218.41V141.308L226.836 141.31V298.482L195.01 298.481V283.289C193.561 286.107 191.198 288.924 187.92 291.742C184.642 294.483 180.793 296.729 176.371 298.481C171.95 300.308 167.186 301.222 162.078 301.222ZM172.712 273.923C176.905 273.923 180.64 272.971 183.918 271.067C187.272 269.163 189.902 266.536 191.808 263.186C193.714 259.759 194.667 255.913 194.667 251.649C194.667 247.384 193.714 243.577 191.808 240.226C189.902 236.8 187.272 234.134 183.918 232.231C180.64 230.251 176.905 229.261 172.712 229.261C168.672 229.261 165.013 230.251 161.735 232.231C158.534 234.134 155.98 236.8 154.074 240.226C152.245 243.577 151.33 247.384 151.33 251.649C151.33 255.913 152.245 259.759 154.074 263.186C155.98 266.536 158.534 269.163 161.735 271.067C165.013 272.971 168.672 273.923 172.712 273.923Z" fill="#1976D2"/>
<path d="M315.771 206.416V119.098H335.082V161.932C335.464 160.747 336.438 159.457 338.005 158.061C339.614 156.623 341.71 155.396 344.294 154.38C346.919 153.323 349.884 152.794 353.187 152.794C358.269 152.794 362.673 154.042 366.4 156.538C370.127 159.034 373.007 162.376 375.04 166.564C377.073 170.71 378.089 175.322 378.089 180.398C378.089 185.475 377.073 190.107 375.04 194.296C373.007 198.441 370.127 201.762 366.4 204.258C362.673 206.712 358.269 207.939 353.187 207.939C350.392 207.939 347.745 207.431 345.246 206.416C342.79 205.443 340.651 204.195 338.83 202.672C337.052 201.107 335.739 199.541 334.892 197.976V206.416H315.771ZM359.158 180.398C359.158 178.029 358.629 175.914 357.57 174.052C356.554 172.149 355.135 170.668 353.314 169.61C351.535 168.51 349.524 167.96 347.279 167.96C344.95 167.96 342.854 168.51 340.99 169.61C339.169 170.668 337.729 172.149 336.671 174.052C335.612 175.914 335.082 178.029 335.082 180.398C335.082 182.767 335.612 184.904 336.671 186.807C337.729 188.669 339.169 190.128 340.99 191.186C342.854 192.244 344.95 192.773 347.279 192.773C349.524 192.773 351.535 192.244 353.314 191.186C355.135 190.128 356.554 188.669 357.57 186.807C358.629 184.904 359.158 182.767 359.158 180.398Z" fill="#1976D2"/>
<path d="M407.005 189.727L421.107 154.317H440.038L404.21 232.814H384.898L396.968 206.416L375.179 154.317H394.427L407.005 189.727Z" fill="#1976D2"/>
</svg>
