<svg width="333" height="134" viewBox="0 0 333 134" fill="none" xmlns="http://www.w3.org/2000/svg">
<rect x="0.367188" width="332.265" height="134" rx="27.3469" fill="#F5F5F5"/>
<g clip-path="url(#clip0_153_712)">
<path d="M125.033 36.3841C125.082 36.0666 125.122 35.7457 125.13 35.4242C125.153 34.4002 124.882 33.2928 124.371 32.4025C123.747 31.3126 122.685 30.3571 121.841 29.4301C120.301 27.7384 118.754 26.0297 117.168 24.3819C116.779 23.9776 116.375 23.5908 115.897 23.2931C114.358 22.3352 112.125 22.098 110.449 22.8342C110.079 22.9964 109.057 23.8189 108.739 23.7863C108.675 23.7796 108.691 23.7699 108.647 23.707L108.673 23.6279C109.778 22.641 110.959 22.2055 112.417 22.0755C112.86 22.0245 113.342 22.0984 113.778 22.1765C114.613 22.3258 115.523 22.6294 116.222 23.1186C117.163 23.7774 117.933 24.7417 118.711 25.582L122.016 29.1683C122.809 30.0337 123.765 30.878 124.429 31.8424C125.369 33.2071 125.648 34.9578 125.346 36.5676C125.164 37.5451 124.705 38.3697 124.177 39.1983C124.043 39.4096 123.911 39.6722 123.701 39.8147C123.583 39.8204 123.587 39.8255 123.498 39.7491C123.485 39.6537 123.472 39.6102 123.519 39.5207C123.594 39.3805 123.748 39.2575 123.848 39.1318C123.971 38.977 124.07 38.7977 124.169 38.6264C124.585 37.9029 124.856 37.1997 125.033 36.3841Z" fill="#090817"/>
<path d="M111.588 24.3375C111.99 23.9081 112.403 23.6627 112.986 23.5797C113.376 23.5726 113.745 23.5957 114.115 23.7272C114.867 23.9938 115.274 24.5242 115.602 25.2223C115.276 25.04 114.946 24.8646 114.613 24.696C113.612 24.2413 112.661 24.1826 111.588 24.3375Z" fill="#1976D2"/>
<path d="M121.978 40.683C121.64 40.6091 119.746 38.4195 119.435 38.0776C116.691 35.0618 113.894 32.0873 111.105 29.1128C110.37 28.3305 109.629 27.5545 108.881 26.7848C108.457 26.3486 107.986 25.921 107.607 25.4466C107.575 25.2966 107.592 25.2749 107.646 25.1375C107.686 25.1445 107.721 25.1491 107.76 25.1631C107.989 25.245 121.979 40.2188 122.051 40.4651C122.069 40.5269 122.004 40.6249 121.978 40.683Z" fill="#090817"/>
<path d="M99.5759 39.1413L99.9033 39.4759L104.865 44.7987C105.684 45.6686 106.492 46.5589 107.349 47.3909C107.856 46.929 108.413 46.4745 108.865 45.9594C108.959 46.046 109.022 46.1128 109.081 46.2303C108.785 46.6563 108.002 47.1848 107.606 47.6166C107.594 47.6298 107.582 47.6432 107.57 47.6564C109.139 49.4622 110.835 51.1772 112.457 52.9373C113.054 53.5847 113.686 54.2221 114.24 54.906C114.316 54.9992 114.373 55.0562 114.36 55.1801L114.259 55.2245C114.164 55.2145 114.075 55.1992 113.996 55.1387C113.774 54.9672 113.093 54.1383 112.833 53.8576L108.997 49.7064L94.2704 34.0005C93.5515 33.2303 92.8288 32.4637 92.1021 31.7009C91.7442 31.322 91.3313 30.9391 91.0189 30.5242C90.8989 30.3649 90.8023 30.2062 90.7843 30.0051L90.8353 29.9566C90.9858 29.9925 91.0885 30.0786 91.1997 30.1839C91.7199 30.6765 92.1854 31.2756 92.6814 31.7984L97.1902 36.6268C97.8864 37.3665 98.5715 38.1301 99.3026 38.835C100.364 37.9057 101.411 36.961 102.444 36.0012C103.236 35.2664 108.947 29.8591 109.41 29.6932C109.503 29.7366 109.518 29.7457 109.575 29.8297C109.562 29.9542 109.49 30.0294 109.403 30.1123C108.603 30.8676 107.73 31.5744 106.91 32.3118C105.248 33.8137 103.602 35.3328 101.971 36.8691C101.195 37.5993 100.329 38.2974 99.6209 39.0905L99.5759 39.1413Z" fill="#090817"/>
<path d="M86.4406 31.9859C86.7764 31.5469 87.2445 31.1665 87.65 30.7918L89.5423 29.0486C89.6294 29.1144 89.6872 29.1458 89.7211 29.2543C89.5516 29.5602 87.3339 31.5614 86.9019 31.9749C87.7613 33.0296 88.7601 34.0121 89.6939 35.0028C90.0634 35.3948 90.4835 35.7846 90.8033 36.217C90.7867 36.3388 90.7097 36.3771 90.6237 36.4601C89.9512 35.7646 89.3078 35.0426 88.6414 34.3415C87.9021 33.5638 87.1371 32.8024 86.4406 31.9859Z" fill="#090817"/>
<path d="M104.856 36.6556L104.842 36.6596L104.811 36.6273C104.861 36.2204 104.974 35.824 105.148 35.4526C105.782 34.0777 107.279 32.893 108.592 32.2106C109.135 31.9282 109.708 31.7165 110.281 31.5042L110.342 31.5168C110.342 31.5351 110.351 31.5558 110.342 31.5719C110.268 31.7068 109.614 32.2223 109.461 32.3622C108.648 33.1084 107.853 33.8757 107.033 34.6145C106.306 35.2701 105.5 35.9185 104.856 36.6556Z" fill="#1976D2"/>
<path d="M111.772 44.0543C111.748 44.0441 111.723 44.0362 111.7 44.0235C111.607 43.9719 111.555 43.9046 111.536 43.8057C112.11 43.1655 112.811 42.5871 113.441 42.0003L117.372 38.3633C117.448 38.3776 117.486 38.3841 117.547 38.437C117.604 38.4872 117.588 38.5061 117.592 38.5766C117.366 38.9702 116.415 39.7058 116.041 40.0497L113.437 42.4661C112.878 42.987 112.295 43.4962 111.772 44.0543Z" fill="#090817"/>
<path d="M99.9035 39.4747C100.52 39.1126 101.085 38.5399 101.645 38.0863C102.622 39.2061 103.66 40.2672 104.672 41.354C106.085 42.875 107.482 44.4099 108.865 45.9582C108.413 46.4734 107.857 46.9279 107.349 47.3897C106.493 46.5577 105.684 45.6675 104.865 44.7975L99.9035 39.4747Z" fill="#1976D2"/>
<path d="M109.111 56.4105C108.255 55.5141 107.442 54.575 106.596 53.6693L97.7804 44.2172L93.7095 39.8678C93.2206 39.3357 92.6409 38.8214 92.2145 38.2438C92.2102 38.1034 92.2785 38.0618 92.3641 37.9543C92.9627 38.5503 93.5242 39.2008 94.1026 39.8176L97.7772 43.7275L107.997 54.685C109.897 56.746 111.759 58.8579 113.74 60.8413C114.71 60.0022 115.667 59.1017 116.587 58.2072C116.378 57.9785 115.909 57.5747 115.905 57.2525C115.918 57.252 115.931 57.2498 115.943 57.2508C116.312 57.2811 116.838 57.9385 117.088 58.2C116.015 59.2912 114.819 60.2981 113.687 61.3285C113.283 60.8546 112.822 60.4141 112.4 59.9547C111.401 58.8619 110.391 57.7788 109.371 56.7056C108.418 57.4484 107.457 58.4556 106.562 59.2899C104.585 61.1332 102.623 62.9989 100.628 64.8216C93.3572 71.4643 86.1248 78.1486 78.931 84.8744C78.0836 85.7037 70.4815 92.7605 70.3588 92.7991C70.2603 92.8302 70.2389 92.8026 70.1581 92.7523L70.1443 92.6644C70.1943 92.5212 70.2817 92.4149 70.387 92.3072C71.0775 91.6009 71.8512 90.9608 72.5709 90.2825L78.5531 84.703L95.3832 69.1029L104.835 60.4173C106.264 59.0867 107.721 57.7822 109.111 56.4105Z" fill="#090817"/>
<path d="M71.3765 54.4056L81.4101 45.0621C82.7877 43.7563 84.1793 42.4654 85.5848 41.1898C86.3905 40.4452 87.1794 39.639 88.0425 38.9642C88.0545 38.9648 88.0668 38.9634 88.0785 38.9662C88.1885 38.9931 88.2198 39.008 88.2809 39.0962C88.2487 39.2227 88.1878 39.277 88.0909 39.3666L77.4386 49.1686C75.5029 50.9643 73.5073 52.7503 71.6677 54.6443L71.3765 54.4056Z" fill="#090817"/>
<path d="M87.5948 40.4523C87.8227 40.2111 88.0751 39.9879 88.3163 39.7597C88.6617 39.9237 95.6671 47.5713 96.3607 48.391L95.8533 48.3044C95.455 48.2398 94.9583 48.1697 94.6239 47.9326C94.0438 47.5215 93.532 46.8817 93.0527 46.3592L91.0479 44.1667C89.9091 42.9262 88.6781 41.7405 87.5948 40.4523Z" fill="#090817"/>
<path d="M84.0827 43.6442C85.0189 42.8284 85.9127 41.9658 86.8423 41.143C86.9 41.5499 87.0185 41.9528 87.1246 42.3494C88.263 46.6053 91.7285 49.6407 95.1169 52.1853C96.7152 53.3856 98.3617 54.5112 99.845 55.859C100.418 56.3797 100.938 56.9537 101.467 57.5183C97.6273 60.8485 93.9796 64.4055 90.2393 67.8467L62.338 93.6774C61.1085 92.5392 59.8888 91.1266 58.7574 89.8759C57.4019 88.3921 56.0308 86.9227 54.644 85.468C53.8048 84.585 52.9754 83.6926 52.1559 82.7912C50.802 81.3253 49.1809 79.9624 49.2382 77.7802C49.299 75.4623 51.2869 74.0619 52.8254 72.6186C52.8969 72.7035 52.9691 72.7878 53.0421 72.8717C54.2197 74.2238 55.4493 75.5315 56.6444 76.8681C57.2851 77.5848 58.593 79.2617 59.3361 79.7363C59.884 80.0863 60.4792 80.103 61.1033 80.1452C60.5448 79.5828 60.042 78.9579 59.5207 78.3607C58.697 77.4174 57.8683 76.4785 57.0345 75.5441L54.8917 73.1221C54.5102 72.6899 54.0597 72.2509 53.748 71.7666C54.9144 70.8074 55.9975 69.7063 57.0927 68.6654C57.9378 69.6733 58.8801 70.63 59.7636 71.6073C60.6928 72.6353 61.1293 72.9673 62.5591 73.0403C61.0939 71.2684 59.4421 69.6578 57.9598 67.9032C58.4507 67.5373 58.875 67.0282 59.321 66.6048C60.0683 65.8952 60.8529 65.2253 61.5906 64.5052C63.4788 66.6401 65.392 68.7527 67.3298 70.8427C68.1456 71.7102 68.727 71.9253 69.9033 71.9571C68.7255 70.5214 67.4286 69.1735 66.1887 67.7915C64.9659 66.4285 63.7729 64.9986 62.4684 63.7141C63.5999 62.7189 64.6925 61.6483 65.7774 60.6016C66.3247 60.9097 67.9711 62.8875 68.4994 63.4659C69.3356 64.3816 69.9132 64.7035 71.1697 64.7604C69.6275 63.148 68.2405 61.3867 66.7062 59.7674C67.9511 58.7901 69.0763 57.6004 70.2545 56.539C71.6183 57.9753 72.9299 59.4744 74.2639 60.9396C74.8673 61.6024 75.4514 62.3246 76.1122 62.9294C76.7264 63.4914 77.3524 63.6209 78.1653 63.582C77.0096 62.3611 75.9003 61.09 74.7578 59.8554C73.5144 58.5117 72.2239 57.1895 71.043 55.7911C71.7506 55.2944 72.352 54.6316 72.9798 54.0395C73.5418 53.5094 74.132 53.0074 74.6778 52.4605C75.0846 53.0905 75.7053 53.6597 76.2135 54.2135C76.6887 54.7313 77.139 55.2728 77.6188 55.7856C78.2856 56.4981 78.9566 56.7083 79.9192 56.7394C79.5156 56.181 78.9995 55.6887 78.5432 55.1713C77.5312 54.0053 76.5003 52.8559 75.4509 51.7235C76.6735 50.6159 77.8962 49.49 79.0799 48.3413L83.2836 53.02C83.887 53.682 84.8156 54.9012 85.562 55.3374C86.0327 55.6124 86.7479 55.6498 87.2854 55.7249C86.401 54.6452 85.3704 53.6651 84.432 52.6299C82.9143 50.9556 81.4413 49.218 79.8421 47.6203C80.4722 47.0112 81.111 46.4112 81.7584 45.8205C82.2752 45.3554 82.8358 44.9078 83.312 44.4018C83.8724 45.0415 86.4105 47.972 86.9137 48.2644C87.4073 48.5511 88.019 48.604 88.5734 48.6843C88.0437 47.9909 87.4333 47.366 86.8585 46.711C85.9525 45.6787 85.0566 44.6125 84.0827 43.6442Z" fill="#1976D2"/>
<path d="M83.3116 44.402C83.5462 44.1269 83.8152 43.8869 84.0823 43.6443C85.0561 44.6126 85.952 45.6788 86.858 46.7111C87.4328 47.3662 88.0433 47.991 88.5729 48.6844C88.0186 48.6042 87.4068 48.5513 86.9133 48.2645C86.41 47.9721 83.872 45.0416 83.3116 44.402Z" fill="#090817"/>
<path d="M79.08 48.3417C79.3241 48.0926 79.5879 47.8592 79.8423 47.6206C81.4414 49.2183 82.9144 50.9559 84.4321 52.6302C85.3705 53.6654 86.4011 54.6455 87.2856 55.7252C86.748 55.6502 86.0328 55.6127 85.5621 55.3377C84.8157 54.9015 83.8872 53.6823 83.2838 53.0203L79.08 48.3417Z" fill="#090817"/>
<path d="M74.6781 52.4614C74.9266 52.2052 75.1876 51.9649 75.4511 51.7245C76.5005 52.8569 77.5314 54.0063 78.5434 55.1722C78.9998 55.6897 79.5158 56.182 79.9194 56.7404C78.9569 56.7092 78.2858 56.4991 77.6191 55.7866C77.1392 55.2738 76.689 54.7323 76.2138 54.2145C75.7055 53.6607 75.0848 53.0915 74.6781 52.4614Z" fill="#090817"/>
<path d="M70.2548 56.5384C70.5111 56.2802 70.7673 56.0278 71.0433 55.7905C72.2242 57.189 73.5147 58.5111 74.758 59.8548C75.9006 61.0895 77.0099 62.3605 78.1656 63.5814C77.3527 63.6203 76.7267 63.4908 76.1125 62.9288C75.4517 62.324 74.8675 61.6018 74.2642 60.939C72.9302 59.4738 71.6186 57.9747 70.2548 56.5384Z" fill="#090817"/>
<path d="M62.3378 93.6778L90.2391 67.8471C93.9793 64.4059 97.6271 60.8489 101.466 57.5188C101.832 57.7687 102.132 57.9439 102.565 58.0499C102.231 58.4571 101.816 58.8076 101.429 59.1647L99.6383 60.8201L92.8809 67.0741L71.9508 86.5151C69.1557 89.1156 66.297 91.654 63.5682 94.3256C63.1193 94.1533 62.7211 93.9714 62.3378 93.6778Z" fill="#090817"/>
<path d="M67.1856 58.6715C67.1109 58.6071 67.0578 58.5488 67.0019 58.4675C67.1013 58.1656 68.7787 56.722 69.126 56.4026C69.2016 56.4969 69.2719 56.5475 69.2802 56.6712C68.6372 57.3737 67.8804 58.017 67.1856 58.6715Z" fill="#090817"/>
<path d="M65.7777 60.6016C66.0714 60.3071 66.3602 60.0007 66.7065 59.7673C68.2408 61.3867 69.6278 63.148 71.17 64.7604C69.9135 64.7034 69.3359 64.3816 68.4997 63.4659C67.9714 62.8875 66.325 60.9097 65.7777 60.6016Z" fill="#090817"/>
<path d="M58.8995 66.3062C58.8033 66.2282 58.7286 66.1925 58.6844 66.0738C59.2752 65.3733 60.1265 64.7194 60.8087 64.0984C62.1881 62.8432 63.5818 61.5756 64.9052 60.2631C64.9232 60.2691 64.9429 60.2715 64.9594 60.2809C65.0527 60.3342 65.0979 60.4109 65.1334 60.5073C65.056 60.7056 59.5528 65.6509 58.8995 66.3062Z" fill="#090817"/>
<path d="M61.5904 64.5049C61.8753 64.2327 62.1681 63.9689 62.4683 63.7137C63.7727 64.9983 64.9657 66.4281 66.1886 67.7912C67.4284 69.1732 68.7253 70.521 69.9031 71.9567C68.7268 71.925 68.1455 71.7098 67.3296 70.8424C65.3918 68.7524 63.4787 66.6398 61.5904 64.5049Z" fill="#090817"/>
<path d="M57.093 68.6659C57.3786 68.4074 57.6639 68.1503 57.9601 67.9038C59.4424 69.6583 61.0942 71.2689 62.5594 73.0408C61.1296 72.9678 60.6931 72.6358 59.7639 71.6078C58.8804 70.6305 57.9381 69.6738 57.093 68.6659Z" fill="#090817"/>
<path d="M48.8735 80.0827C48.5131 79.2356 48.3044 78.3701 48.3651 77.4439C48.424 76.5447 48.7358 75.721 49.2432 74.9804C49.7086 74.3013 50.3439 73.7597 50.9411 73.2008C51.7136 72.4761 52.495 71.761 53.285 71.0556C54.2964 70.1436 55.2743 69.1899 56.3015 68.2966C56.3341 68.3386 56.3792 68.3892 56.4044 68.4371C56.41 68.4476 56.464 68.565 56.4624 68.5748C56.4414 68.6952 55.8232 69.1769 55.6984 69.2907C54.3235 70.5264 52.9669 71.7823 51.6292 73.0581C51 73.6475 50.2473 74.2107 49.7234 74.8954C49.3002 75.4567 49.0041 76.1031 48.8553 76.7902C48.5683 78.099 48.8223 79.4684 49.5597 80.5872C50.0169 81.2904 50.702 81.9045 51.2694 82.5239C52.4846 83.8629 53.715 85.1878 54.9607 86.4985L59.5932 91.4777C60.3722 92.3043 61.1425 93.1837 61.9837 93.946C62.4106 94.3328 62.9652 94.7093 63.5056 94.915C64.5184 95.3005 65.5852 95.3246 66.6233 95.0394C67.0034 94.935 67.7191 94.5443 68.0991 94.6433C68.1932 94.6678 68.1591 94.6476 68.2117 94.7357C68.2063 94.749 68.2025 94.763 68.1954 94.7753C68.0036 95.1103 66.7847 95.376 66.4081 95.4651C65.1687 95.7582 63.8726 95.627 62.7849 94.9505C61.8786 95.8564 60.9508 96.7408 60.0024 97.6027C58.6656 98.8306 57.4732 99.8045 55.7632 100.484C55.3808 99.9183 54.8823 99.4084 54.4255 98.901L52.0397 96.2859C49.8848 93.8528 47.6799 91.4644 45.4263 89.1224C44.4366 88.0962 43.4697 87.048 42.4127 86.0898L46.2072 82.6C47.1079 81.7732 48.0303 80.9693 48.8735 80.0827Z" fill="#090817"/>
<path d="M52.8253 72.6191L53.748 71.7671C54.0597 72.2513 54.5102 72.6903 54.8916 73.1225L57.0345 75.5445C57.8683 76.479 58.697 77.4178 59.5207 78.3612C60.042 78.9584 60.5448 79.5832 61.1033 80.1456C60.4792 80.1035 59.884 80.0868 59.3361 79.7367C58.593 79.2621 57.2851 77.5852 56.6444 76.8685C55.4493 75.532 54.2197 74.2242 53.042 72.8721C52.9691 72.7883 52.8969 72.7039 52.8253 72.6191Z" fill="#090817"/>
<path d="M45.5778 89.8941C45.439 90.1466 45.5933 90.7 45.6717 90.9673C45.7815 91.3423 45.9255 91.7288 46.1446 92.0543C46.6948 92.8716 47.4527 93.5683 48.1084 94.3021C48.8549 95.1376 49.567 96.0507 50.3858 96.8155C50.6045 97.0198 50.8386 97.1822 51.1012 97.3254C51.5105 97.5485 52.145 97.7839 52.6119 97.6718C52.6452 97.6639 52.6775 97.6482 52.7087 97.6349C52.9417 97.8374 53.1534 98.1047 53.3661 98.3312C52.5155 98.9223 51.6271 99.2905 50.5737 99.1824C49.3039 99.052 48.603 98.3008 47.7732 97.4233C47.4152 97.0447 47.0394 96.6719 46.7092 96.2691L46.4985 95.9876C45.3779 94.8888 44.1346 93.819 44.0048 92.1497C43.9185 91.0407 44.3865 90.1597 45.0827 89.3354L45.5778 89.8941Z" fill="#1976D2"/>
<path d="M52.7085 97.6351C52.6773 97.6484 52.645 97.664 52.6118 97.672C52.1448 97.7841 51.5103 97.5486 51.1011 97.3256C50.8384 97.1824 50.6044 97.02 50.3856 96.8157C49.5669 96.0509 48.8547 95.1378 48.1082 94.3023C47.4525 93.5684 46.6947 92.8718 46.1445 92.0545C45.9253 91.729 45.7813 91.3425 45.6715 90.9675C45.5932 90.7002 45.4388 90.1467 45.5776 89.8943C48.0056 92.4166 50.4234 94.9825 52.7085 97.6351Z" fill="#1976D2"/>
<path d="M46.4983 95.9881L46.7089 96.2696C44.4762 98.4268 42.1686 100.5 39.9166 102.636L36.166 106.166C35.3014 106.982 34.4483 107.826 33.5436 108.597L33.4676 108.594C33.3818 108.503 33.3211 108.469 33.3049 108.343C33.5747 108.033 33.9225 107.772 34.2318 107.499C34.6749 107.106 35.1112 106.705 35.5404 106.296L43.0274 99.2888L45.1648 97.2941C45.6177 96.8713 46.0964 96.4607 46.4983 95.9881Z" fill="#090817"/>
</g>
<g clip-path="url(#clip1_153_712)">
<path d="M214.361 40.046C214.056 39.8601 213.802 39.6482 213.71 39.2871C213.635 38.9899 213.672 38.626 213.851 38.371C214.079 38.0435 214.493 37.9162 214.87 37.8624C215.338 37.7957 215.814 37.7972 216.284 37.7551C216.076 35.409 215.444 32.8391 217.099 30.8651C217.675 30.1781 218.379 29.7657 219.104 29.2617C219.482 28.9996 219.806 28.6569 220.198 28.4177C221.418 27.6724 223.165 27.7306 224.557 27.6184L261.345 24.6136L272.347 23.7246C273.965 23.5747 275.585 23.452 277.207 23.3564C277.961 23.3105 278.746 23.2197 279.498 23.2519C280.339 23.2878 281.079 23.6182 281.718 24.1579C282.404 24.7368 282.878 25.4806 283.05 26.3701C283.219 27.2431 283.257 28.1537 283.333 29.0393L283.717 33.4121L285.252 49.9917L288.331 83.9181C288.976 91.1317 289.702 98.3461 290.264 105.566C290.353 106.71 290.019 107.821 289.269 108.701C288.662 109.413 287.835 109.905 286.919 110.099C285.428 110.4 283.651 110.385 282.114 110.526L268.753 111.626L228.605 114.865C227.085 114.973 225.789 114.728 224.605 113.703C222.945 112.267 222.904 110.304 222.728 108.27C222.628 107.16 222.538 106.049 222.458 104.938L222.444 104.718C221.783 104.771 221.113 104.852 220.451 104.877C220.103 104.71 219.787 104.562 219.641 104.179C219.522 103.864 219.52 103.434 219.681 103.134C219.846 102.827 220.172 102.681 220.496 102.606C221.063 102.475 221.721 102.501 222.303 102.476C222.19 101.246 222.037 100.016 221.95 98.7851C221.741 97.2016 221.653 95.5986 221.468 94.0111C220.739 94.0425 219.396 94.4293 218.773 94.0241C218.542 93.874 218.42 93.6039 218.388 93.3378C218.344 92.9708 218.455 92.5751 218.703 92.2977C219.16 91.785 220.648 91.8664 221.305 91.8258C220.907 88.9809 220.741 86.085 220.464 83.225C219.682 83.2322 218.314 83.6473 217.679 83.1314C217.425 82.9252 217.319 82.7118 217.294 82.3888C217.271 82.0906 217.322 81.8017 217.527 81.5727C218.054 80.9823 219.526 81.0758 220.273 81.0175C219.99 78.1234 219.784 75.209 219.441 72.3225C218.77 72.3978 217.512 72.6884 216.952 72.2576C216.712 72.0724 216.566 71.7853 216.535 71.4853C216.505 71.1894 216.587 70.883 216.787 70.659C217.287 70.0988 218.557 70.164 219.263 70.1244C218.946 67.2679 218.62 64.3629 218.461 61.4944C217.835 61.5476 216.584 61.8084 216.045 61.4135C215.807 61.2387 215.664 60.949 215.625 60.6603C215.582 60.3452 215.646 60.0033 215.86 59.7591C216.312 59.2427 217.604 59.2935 218.237 59.2446L217.371 50.7857C216.685 50.8749 215.599 51.1657 215.017 50.7138C214.761 50.5151 214.604 50.2032 214.583 49.881C214.561 49.5809 214.666 49.2852 214.872 49.0658C215.376 48.5304 216.568 48.6131 217.256 48.5769C217.003 45.7105 216.833 42.7982 216.446 39.9488C215.767 39.9913 215.037 40.1337 214.361 40.046ZM221.929 93.9777C222.063 95.9337 222.299 97.8972 222.498 99.8484C222.59 100.708 222.653 101.583 222.791 102.436L224.194 102.319C224.141 101.827 224.107 101.324 224.023 100.837C223.87 98.5247 223.695 96.1425 223.365 93.8476C222.886 93.8841 222.407 93.9275 221.929 93.9777ZM278.263 23.721C276.611 23.8751 274.949 23.8993 273.3 24.0536C274.63 24.7333 275.118 25.1641 275.882 26.4452C276.735 26.7491 277.514 27.1125 277.906 27.9899C278.404 29.1042 278.449 32.5189 278.574 33.8974L279.427 43.3467C279.747 47.0382 280.172 50.719 280.422 54.417C280.842 54.6479 284.463 54.0825 285.213 54.0242C284.478 47.3364 283.981 40.6286 283.329 33.9332L282.888 29.3064C282.799 28.3303 282.775 27.2988 282.542 26.3458C282.356 25.5855 282.038 25.0036 281.425 24.4983C280.504 23.7373 279.415 23.591 278.263 23.721ZM271.68 24.2249L237.351 27.056L226.727 27.9043C225.167 28.0312 223.037 28.0804 221.572 28.3876C220.671 28.5762 219.856 29.1122 219.267 29.8101C218.092 31.2017 218.211 32.6715 218.364 34.3686C218.459 35.4231 218.584 36.4826 218.62 37.5409C220.208 37.366 221.836 37.2012 223.431 37.1404C223.625 36.3368 224.103 35.643 224.809 35.203C225.489 34.7795 226.364 34.6307 227.145 34.8107C227.951 35.0047 228.648 35.5121 229.079 36.2206C229.47 36.8843 229.581 37.676 229.388 38.4216C229.193 39.1875 228.74 39.808 228.055 40.2135C227.372 40.6181 226.357 40.7248 225.599 40.5113C224.895 40.3134 224.348 39.8419 223.854 39.3264C222.184 39.4916 220.504 39.6714 218.829 39.7632C219.027 42.6221 219.331 45.492 219.606 48.3457C221.247 48.1924 222.902 47.9875 224.548 47.9255C224.912 47.0645 225.392 46.3466 226.285 45.9629C227.032 45.6421 227.938 45.5967 228.692 45.9129C229.419 46.2181 229.996 46.8786 230.262 47.6139C230.52 48.3379 230.479 49.1346 230.149 49.8288C229.821 50.5196 229.203 51.0427 228.482 51.2874C227.681 51.5595 226.694 51.5332 225.94 51.1295C225.493 50.89 225.167 50.5439 224.893 50.1225C223.218 50.2707 221.536 50.3959 219.864 50.5757C219.951 52.1071 220.136 53.6346 220.266 55.1632C220.377 56.4659 220.424 57.8078 220.611 59.0993L225.371 58.6762C225.694 57.7114 226.235 57.1518 227.136 56.7025C227.788 56.3776 228.565 56.4075 229.245 56.641C229.995 56.8984 230.7 57.5366 231.043 58.2432C231.368 58.9123 231.409 59.6836 231.158 60.3834C230.883 61.1527 230.312 61.7807 229.573 62.1288C228.835 62.4707 227.952 62.5131 227.19 62.2221C226.478 61.9501 226.028 61.4519 225.607 60.8446C224.004 61.0009 222.4 61.1487 220.795 61.2883L221.594 69.9126L226.401 69.4971C226.827 68.583 227.344 67.8262 228.337 67.4594C229.091 67.1882 229.922 67.2338 230.641 67.5857C231.364 67.9436 231.91 68.5808 232.153 69.3501C232.391 70.1217 232.3 70.9575 231.902 71.6599C231.514 72.3321 230.856 72.8023 230.109 72.9973C229.319 73.2033 228.451 73.1143 227.746 72.6922C227.311 72.4316 227.026 72.1164 226.754 71.6946C225.123 71.8484 223.473 71.9399 221.848 72.1467L222.623 80.8101C224.215 80.6427 225.859 80.4431 227.458 80.4047C227.832 79.4678 228.278 78.6839 229.257 78.2689C229.994 77.9558 230.859 77.939 231.598 78.2567C232.341 78.5754 232.931 79.2208 233.212 79.9747C233.501 80.7503 233.452 81.6118 233.075 82.349C232.709 83.0788 232.081 83.6546 231.291 83.8863C230.588 84.0923 229.884 84.0035 229.2 83.7795C228.557 83.4772 228.125 83.1585 227.7 82.5782C226.074 82.663 224.455 82.936 222.831 82.9988C223.114 85.874 223.379 88.751 223.627 91.6295C225.254 91.4829 226.903 91.264 228.532 91.1896C228.797 90.3424 229.263 89.6295 230.07 89.2051C230.794 88.8247 231.643 88.7591 232.418 89.0239C233.191 89.2937 233.898 89.9215 234.25 90.6608C234.593 91.3915 234.623 92.231 234.332 92.9843C234.031 93.7604 233.418 94.3556 232.652 94.6746C231.841 95.0219 230.921 95.0168 230.113 94.6602C229.462 94.373 228.989 93.9226 228.539 93.3837C226.98 93.4985 225.416 93.7018 223.859 93.7878C224.075 96.6157 224.468 99.4569 224.595 102.289L229.46 101.904C229.702 101.046 230.178 100.343 230.974 99.9033C231.617 99.5409 232.379 99.4507 233.089 99.653C233.936 99.9056 234.64 100.499 235.033 101.29C235.373 101.964 235.419 102.724 235.178 103.438C234.917 104.211 234.359 104.879 233.625 105.242C232.828 105.636 231.921 105.63 231.098 105.318C230.407 105.055 229.99 104.634 229.543 104.071L224.758 104.504C224.96 106.841 224.761 109.332 226.742 110.977C227.571 111.665 228.587 112.093 229.665 112.152C230.463 112.195 231.286 112.089 232.082 112.022L235.683 111.715L246.535 110.874L265.846 109.296C270.05 108.962 274.281 108.684 278.476 108.253C279.618 108.135 280.638 107.663 281.378 106.76C282.038 105.953 282.294 105.057 282.314 104.026C282.335 103.021 282.18 101.974 282.096 100.971L281.683 95.7968C281.244 89.824 280.765 83.8541 280.246 77.8876L277.225 43.3372C276.78 38.3897 276.475 33.4155 275.931 28.4789C275.79 27.1969 275.325 25.9374 274.293 25.1061C273.628 24.5711 272.537 24.1282 271.68 24.2249ZM276.109 26.9971C276.379 28.231 276.472 29.4856 276.59 30.7406C276.76 32.595 276.92 34.4504 277.071 36.3065C277.621 42.107 278.125 47.9118 278.582 53.7204C279.753 66.4567 280.841 79.2005 281.845 91.9511C282.138 95.8264 282.586 99.7113 282.777 103.592C282.81 104.266 282.722 104.884 282.582 105.542C284.093 105.441 285.602 105.32 287.109 105.177L287.215 105.153C287.289 104.381 287.089 103.397 287.019 102.612C286.85 100.73 286.726 98.832 286.475 96.9603C285.551 97.0548 284.595 97.2453 283.669 97.2461C283.218 89.9858 282.491 82.7265 281.828 75.4826L279.873 53.3029L278.284 35.3747C278.155 34.0373 278.04 32.6989 277.937 31.3593C277.873 30.5547 277.845 29.7245 277.711 28.9283C277.612 28.3425 277.422 27.857 276.96 27.4597C276.706 27.2409 276.426 27.0999 276.109 26.9971ZM218.286 30.3574C217.281 31.126 216.626 32.0789 216.462 33.3569C216.392 33.8977 216.583 37.4552 216.779 37.6586C216.79 37.67 216.804 37.6778 216.816 37.6874L218.19 37.5394L217.919 34.4721C217.851 33.7194 217.726 32.8955 217.795 32.1405C217.848 31.5541 218.269 30.8433 218.286 30.3574ZM226.209 35.1928C225.435 35.3036 224.84 35.5774 224.365 36.2248C224.181 36.4754 224.037 36.7604 223.912 37.0444C224.745 36.9897 227.428 36.5855 228.015 37.074C228.258 37.2754 228.378 37.5628 228.399 37.8732C228.417 38.1185 228.341 38.363 228.177 38.5483C227.569 39.2397 226.076 39.1264 225.235 39.2019L225.138 39.2039C224.955 39.2092 224.781 39.1849 224.633 39.3092C224.641 39.4442 224.645 39.4728 224.75 39.5713C225.18 39.9754 226.174 40.2324 226.747 40.1922C227.38 40.1479 228.092 39.7445 228.485 39.2637C228.92 38.7368 229.116 38.0528 229.026 37.3757C228.932 36.7138 228.546 36.0878 228.012 35.6888C227.465 35.2797 226.876 35.1787 226.209 35.1928ZM227.278 37.2519C224.72 37.4233 222.165 37.6787 219.61 37.8972C218.038 38.0316 216.398 38.0846 214.841 38.3295C214.657 38.3585 214.464 38.3859 214.323 38.5204C214.185 38.6524 214.134 38.8463 214.141 39.0324C214.147 39.1799 214.175 39.3207 214.285 39.4288C214.433 39.575 214.608 39.5963 214.803 39.613C217.639 39.4958 220.497 39.1892 223.323 38.9319C224.52 38.8228 226.328 38.7698 227.405 38.5275C227.567 38.4909 227.7 38.4281 227.808 38.2949C227.947 38.1226 227.986 37.8862 227.923 37.6755C227.874 37.5112 227.775 37.3876 227.618 37.3153C227.524 37.2719 227.382 37.2585 227.278 37.2519ZM217.257 39.8931L217.001 39.9324C216.982 39.9622 216.954 39.9878 216.944 40.0217C216.884 40.2229 217.599 47.7013 217.713 48.4866C218.068 48.4621 218.432 48.4515 218.784 48.4049L219.057 48.3719C219.084 48.3341 219.123 48.3028 219.136 48.2586C219.233 47.9322 218.491 40.7671 218.343 39.8343L217.257 39.8931ZM227.296 46.1571C226.409 46.3493 225.741 46.7069 225.232 47.4882C225.153 47.6118 225.076 47.7375 225.003 47.8651C226.029 47.7782 227.115 47.6003 228.143 47.6945C228.456 47.8935 228.752 48.0983 228.839 48.482C228.902 48.7585 228.872 49.0595 228.701 49.2921C228.428 49.6623 227.908 49.7853 227.476 49.8337C226.825 49.9067 226.173 49.938 225.525 50.0346L225.456 50.1236C225.746 50.5741 226.354 50.8572 226.864 50.9712C227.518 51.1177 228.208 51.0264 228.779 50.666C229.353 50.303 229.783 49.721 229.922 49.0522C230.063 48.3877 229.919 47.6944 229.525 47.1406C229.15 46.6252 228.586 46.2797 227.956 46.1801C227.74 46.145 227.515 46.1428 227.296 46.1571ZM227.123 48.0981C224.384 48.4267 221.623 48.6179 218.874 48.8664C217.832 48.9607 216.618 48.9614 215.611 49.1675C215.418 49.207 215.246 49.2757 215.128 49.4443C215.018 49.602 215.003 49.8143 215.062 49.9936C215.122 50.1773 215.255 50.3648 215.434 50.4461C215.69 50.5628 216.039 50.4688 216.311 50.4426C219.031 50.0998 221.792 49.9416 224.524 49.695C225.438 49.6124 226.986 49.5465 227.834 49.3427C227.984 49.3066 228.168 49.2153 228.268 49.0953C228.371 48.9726 228.431 48.8362 228.416 48.6733C228.398 48.4755 228.274 48.2937 228.114 48.1811C227.829 47.9814 227.459 48.0538 227.136 48.0954C227.132 48.0959 227.128 48.0972 227.123 48.0981ZM218.9 50.6662C218.547 50.6993 218.188 50.7206 217.837 50.7739C217.96 51.8741 218.538 58.7754 218.729 59.176C218.914 59.2351 219.072 59.2025 219.258 59.1766L220.159 59.104C219.922 57.1339 219.806 55.1377 219.642 53.1595C219.576 52.3625 219.586 51.4654 219.4 50.6923C219.237 50.6065 219.075 50.6465 218.9 50.6662ZM284.951 54.4522C283.465 54.6446 281.969 54.8729 280.472 54.9578C280.564 55.7864 281.1 62.4565 281.245 62.6782L281.409 62.6724C282.906 62.4988 284.413 62.2806 285.914 62.1615C285.857 61.2229 285.462 54.7343 285.184 54.4334L284.951 54.4522ZM227.835 56.9428C226.908 57.2421 226.325 57.6376 225.879 58.5356L225.831 58.6349C226.843 58.5439 227.93 58.3602 228.94 58.4763C229.259 58.6967 229.477 58.8763 229.563 59.2704C229.619 59.5287 229.573 59.7831 229.425 60.0022C229.182 60.3599 228.824 60.5063 228.412 60.5726C227.902 60.6549 226.492 60.5491 226.15 60.8111C226.196 60.9061 226.236 60.9802 226.299 61.0663C226.858 61.6167 227.481 61.9981 228.294 61.9934C228.984 61.9858 229.642 61.7004 230.119 61.2019C230.591 60.7113 230.888 60.0483 230.856 59.3608C230.825 58.6833 230.505 58.0114 229.991 57.5682C229.372 57.0351 228.628 56.8732 227.835 56.9428ZM227.826 58.8813C225.463 59.1108 223.099 59.3262 220.733 59.5275C219.402 59.6311 217.954 59.6106 216.645 59.8502C216.449 59.886 216.24 59.9176 216.128 60.1028C216.003 60.3092 216.068 60.6426 216.164 60.8486C216.228 60.9865 216.316 61.0609 216.456 61.1182C216.682 61.2109 217.068 61.1444 217.308 61.1175C219.899 60.9133 222.489 60.6856 225.077 60.4346C226.171 60.3321 227.338 60.3282 228.409 60.1173C228.655 60.0689 228.937 59.9922 229.097 59.7803C229.184 59.6646 229.201 59.5179 229.162 59.3799C229.104 59.1719 228.871 58.9745 228.678 58.8945C228.43 58.7921 228.085 58.8517 227.826 58.8813ZM219.56 61.397L218.908 61.4521C219.143 64.3362 219.403 67.2184 219.686 70.0982C219.972 70.0644 220.26 70.0222 220.549 70.0086L221.182 69.9454C220.972 68.2368 220.825 66.5164 220.67 64.8019C220.566 63.6474 220.432 62.4854 220.38 61.3275L219.56 61.397ZM285.936 62.615C284.368 62.7679 282.808 62.9834 281.238 63.1194C281.293 64.0727 281.788 70.8928 281.983 71.1332C283.551 70.9938 285.111 70.763 286.679 70.6306C286.592 69.5654 286.125 63.0886 285.936 62.615ZM229.133 67.7332C228.369 67.8699 227.782 68.1199 227.322 68.777C227.173 68.9903 227.062 69.2445 226.949 69.4783C227.82 69.4261 229.773 69.0352 230.425 69.6588C230.615 69.8403 230.691 70.0861 230.689 70.3446C230.688 70.6009 230.596 70.8328 230.411 71.0116C229.763 71.6379 228.102 71.527 227.228 71.6511C227.707 72.227 228.324 72.5938 229.083 72.6476C229.818 72.6996 230.551 72.4683 231.09 71.9589C231.573 71.5084 231.845 70.8757 231.839 70.215C231.834 69.5338 231.519 68.8599 231.021 68.3992C230.481 67.9 229.85 67.7462 229.133 67.7332ZM229.305 69.73C226.691 69.9253 224.079 70.1448 221.47 70.3887C220.237 70.4951 218.919 70.4919 217.704 70.7071C217.475 70.7478 217.247 70.7858 217.088 70.9757C216.979 71.1053 216.94 71.2759 216.965 71.4415C216.996 71.6567 217.143 71.8682 217.335 71.9713C217.489 72.0537 217.678 72.0535 217.846 72.0345L225.381 71.366C226.749 71.2436 228.201 71.204 229.548 70.9559C229.753 70.9182 229.984 70.8821 230.127 70.7165C230.216 70.6147 230.279 70.4871 230.263 70.3475C230.241 70.1443 230.12 69.9475 229.955 69.8281C229.766 69.6918 229.525 69.7067 229.305 69.73ZM286.663 71.0847C285.095 71.2564 283.52 71.4667 281.948 71.5836L282.399 76.7312C282.471 77.5706 282.458 78.5348 282.654 79.3487L282.742 79.4086C284.311 79.2569 285.879 79.0972 287.446 78.9297C287.355 77.9762 286.866 71.388 286.663 71.0847ZM220.7 72.2312L219.889 72.3006C220.09 73.9301 220.212 75.5713 220.358 77.2066C220.469 78.4505 220.613 79.6988 220.695 80.9445C220.936 80.9329 221.187 80.9363 221.426 80.9079L222.209 80.8338C221.882 77.9677 221.764 75.0494 221.351 72.1978C221.14 72.2068 220.908 72.1968 220.7 72.2312ZM230.03 78.5039C229.282 78.6997 228.682 79.0266 228.275 79.7132C228.158 79.9109 228.069 80.1285 227.979 80.3395C228.889 80.2581 230.699 79.8115 231.44 80.382C231.614 80.5159 231.722 80.7042 231.749 80.9223C231.787 81.2371 231.702 81.5895 231.498 81.8349C230.847 82.6196 229.118 82.259 228.201 82.5205C228.839 83.1292 229.565 83.5578 230.476 83.5466C231.135 83.5386 231.729 83.2767 232.188 82.8041C232.668 82.3094 232.97 81.6333 232.952 80.9388C232.935 80.2733 232.633 79.5928 232.14 79.1429C231.595 78.6443 230.845 78.4365 230.117 78.4956C230.088 78.4979 230.059 78.5011 230.03 78.5039ZM286.991 79.419C285.558 79.5692 284.124 79.7416 282.688 79.8598C282.952 81.7702 283.043 83.7258 283.196 85.6486C283.259 86.4338 283.263 87.2832 283.418 88.054C283.612 88.132 283.839 88.0714 284.041 88.0456C285.433 87.9251 286.833 87.7957 288.219 87.6271C288.035 85.7374 287.867 83.8463 287.713 81.9539C287.646 81.165 287.675 80.1776 287.456 79.4292C287.278 79.3764 287.17 79.3933 286.991 79.419ZM230.267 80.5757C227.661 80.8259 225.053 81.0603 222.443 81.2789C221.125 81.3926 219.738 81.4289 218.437 81.6456C218.223 81.6811 217.988 81.7185 217.844 81.8977C217.736 82.0311 217.707 82.2148 217.736 82.3801C217.764 82.5372 217.846 82.7152 217.985 82.802C218.26 82.9731 218.761 82.8709 219.07 82.8436L226.931 82.1644C228.136 82.0561 229.444 82.0333 230.624 81.8003C230.842 81.7574 231.115 81.7095 231.25 81.5131C231.346 81.3733 231.38 81.2079 231.34 81.0422C231.303 80.8836 231.202 80.7472 231.062 80.6641C230.836 80.5309 230.519 80.5449 230.267 80.5757ZM222.188 83.0802C221.767 83.112 221.339 83.1301 220.921 83.1885C221.194 86.0274 221.4 88.8753 221.711 91.71C221.839 91.7793 221.777 91.7647 221.893 91.7723C222.319 91.734 222.746 91.7044 223.174 91.6833C223.101 90.7152 222.527 83.4599 222.341 83.1037L222.188 83.0802ZM288.194 88.0872C286.61 88.2295 285.003 88.3641 283.428 88.5835C283.469 89.2381 284.057 96.5193 284.124 96.6538C284.144 96.6944 284.189 96.7168 284.221 96.7484C285.784 96.5304 287.418 96.266 288.991 96.1916C288.91 95.4278 288.312 88.2066 288.194 88.0872ZM230.899 89.3582C230.017 89.6245 229.497 90.106 229.062 90.9131C229.021 90.9899 228.981 91.0674 228.943 91.1457C229.828 91.1092 231.903 90.6939 232.553 91.3086C232.767 91.5102 232.849 91.791 232.844 92.0788C232.84 92.3127 232.764 92.5116 232.594 92.6752C231.865 93.3769 229.312 93.0807 229.215 93.4429L229.238 93.5158C229.881 94.1213 230.62 94.5403 231.536 94.5002C232.272 94.4715 232.964 94.1365 233.443 93.576C233.891 93.055 234.109 92.3752 234.048 91.691C233.992 91.0148 233.684 90.3657 233.152 89.9353C232.491 89.3996 231.719 89.3024 230.899 89.3582ZM230.969 91.4335L223.381 92.0901C222.054 92.2011 220.658 92.2295 219.347 92.4287C219.19 92.4526 219.059 92.5269 218.954 92.6472C218.826 92.7953 218.764 93.0021 218.806 93.1961C218.851 93.3997 219.012 93.5525 219.192 93.6427C219.492 93.7919 219.882 93.7011 220.197 93.6583L227.54 93.0117C228.883 92.9026 230.375 92.9322 231.688 92.6527C231.947 92.5978 232.261 92.5056 232.414 92.2679C232.496 92.1412 232.503 91.9946 232.443 91.857C232.348 91.6404 232.023 91.4449 231.797 91.4025C231.542 91.3547 231.227 91.4052 230.969 91.4335ZM288.802 96.6858C288.188 96.7512 287.57 96.8361 286.954 96.8642L287.74 105.612C285.977 105.741 284.194 105.937 282.427 105.979C281.84 107.131 281.208 107.675 280.109 108.336C280.105 108.819 279.988 109.776 280.224 110.186L280.415 110.214C281.712 110.123 283.008 110.024 284.304 109.917C285.291 109.837 286.456 109.851 287.393 109.51C287.97 109.301 288.494 108.921 288.9 108.463C289.788 107.46 289.886 106.389 289.797 105.104C289.604 102.313 289.282 99.5201 289.006 96.7354C288.88 96.6494 288.949 96.6647 288.802 96.6858ZM232.114 100.006C231.342 100.182 230.74 100.449 230.296 101.144C230.159 101.359 230.05 101.604 229.955 101.84C230.769 101.77 232.459 101.392 233.097 101.901C233.307 102.069 233.389 102.308 233.405 102.569C233.421 102.849 233.396 103.132 233.193 103.345C232.469 104.104 230.64 103.606 230.169 104.079L230.247 104.219C230.921 104.788 231.673 105.166 232.581 105.09C233.269 105.032 233.877 104.676 234.3 104.137C234.73 103.588 234.95 102.898 234.845 102.203C234.743 101.531 234.377 100.888 233.824 100.487C233.329 100.129 232.723 99.9582 232.114 100.006ZM231.829 102.141L224.604 102.746C223.272 102.846 221.851 102.843 220.537 103.064C220.379 103.091 220.257 103.133 220.154 103.263C220.007 103.453 219.999 103.71 220.05 103.934C220.089 104.106 220.173 104.239 220.331 104.326C220.597 104.471 221.029 104.371 221.319 104.349C222.741 104.234 232.51 103.524 232.839 103.085C232.963 102.919 233.027 102.636 232.964 102.433C232.916 102.282 232.811 102.214 232.668 102.163C232.422 102.076 232.087 102.126 231.829 102.141ZM224.194 104.581C223.761 104.616 223.325 104.641 222.894 104.689C222.988 105.89 223.088 107.091 223.196 108.291C223.364 110.155 223.345 112.04 224.89 113.362C225.511 113.893 226.507 114.376 227.333 114.431C228.819 114.53 231.054 114.214 232.588 114.093L242.414 113.327L277.735 110.41C277.999 110.387 278.267 110.37 278.531 110.337C278.931 110.317 279.332 110.303 279.73 110.266L279.634 108.512C278.785 108.723 277.892 108.76 277.022 108.833L273.515 109.125L260.438 110.209L238.462 111.975C236.643 112.103 234.824 112.242 233.006 112.392C231.964 112.476 230.887 112.619 229.843 112.616C228.894 112.606 227.966 112.342 227.154 111.851C225.932 111.105 225.058 109.903 224.723 108.511C224.517 107.658 224.474 106.747 224.416 105.874C224.388 105.465 224.412 105.029 224.292 104.637L224.194 104.581Z" fill="#131415"/>
<path d="M273.301 24.0535C274.95 23.8992 276.612 23.875 278.263 23.7209C279.415 23.5909 280.504 23.7372 281.426 24.4982C282.038 25.0035 282.357 25.5854 282.542 26.3457C282.775 27.2987 282.799 28.3302 282.888 29.3063L283.329 33.9331C283.982 40.6285 284.479 47.3363 285.213 54.0241C284.463 54.0824 280.842 54.6478 280.423 54.4169C280.172 50.7189 279.747 47.0381 279.427 43.3466L278.574 33.8973C278.45 32.5188 278.405 29.1041 277.907 27.9898C277.515 27.1124 276.735 26.749 275.882 26.4451C275.118 25.164 274.63 24.7332 273.301 24.0535Z" fill="#1976D2"/>
<path d="M282.582 105.542C282.722 104.884 282.81 104.266 282.777 103.592C282.586 99.7112 282.138 95.8263 281.845 91.951C280.841 79.2005 279.753 66.4566 278.582 53.7203C278.125 47.9118 277.621 42.1069 277.071 36.3065C276.92 34.4503 276.76 32.595 276.59 30.7405C276.472 29.4855 276.379 28.2309 276.109 26.9971C276.426 27.0999 276.706 27.2408 276.96 27.4597C277.421 27.857 277.612 28.3424 277.711 28.9283C277.845 29.7244 277.873 30.5546 277.937 31.3592C278.04 32.6988 278.155 34.0373 278.284 35.3747L279.873 53.3029L281.828 75.4826C282.491 82.7265 283.218 89.9858 283.669 97.246C284.595 97.2452 285.551 97.0547 286.475 96.9603C286.726 98.8319 286.85 100.73 287.019 102.612C287.089 103.397 287.289 104.381 287.215 105.153L287.109 105.177C285.602 105.32 284.093 105.441 282.582 105.542Z" fill="white"/>
<path d="M216.817 37.6865C216.804 37.6769 216.79 37.669 216.779 37.6576C216.584 37.4543 216.393 33.8967 216.462 33.3559C216.627 32.0779 217.281 31.1251 218.287 30.3564C218.269 30.8423 217.848 31.5532 217.795 32.1395C217.727 32.8946 217.852 33.7184 217.92 34.4711L218.191 37.5385L216.817 37.6865Z" fill="white"/>
<path d="M236.376 47.7024C236.14 47.7261 235.891 47.7803 235.684 47.6433C235.624 47.5441 235.591 47.4712 235.575 47.3545C235.341 45.6265 235.276 43.8346 235.133 42.0946C235.03 40.8496 234.568 36.7301 234.743 35.8142C235.641 35.4706 237.294 35.505 238.304 35.4322C239.777 35.3283 241.249 35.2153 242.72 35.093L269.947 32.9549C270.037 32.9493 270.163 32.9303 270.25 32.9505C270.336 32.9707 270.423 33.0055 270.466 33.0865C270.587 33.3156 271.396 43.2574 271.451 44.2306C271.464 44.458 271.473 44.6675 271.417 44.8906C270.568 45.2142 269.323 45.1478 268.409 45.2204L263.066 45.6441L236.376 47.7024ZM269.155 33.465L244.404 35.4034C241.329 35.6483 238.23 35.7993 235.163 36.1173C235.297 39.8314 235.71 43.5793 236.029 47.2838L237.081 47.1891L259.371 45.4816L267.132 44.8762C268.416 44.7755 269.726 44.7232 271.005 44.5698C270.728 40.8586 270.512 37.1 270.081 33.4056C269.779 33.4238 269.453 33.4179 269.155 33.465Z" fill="#131415"/>
<path d="M235.163 36.1179C238.23 35.8 241.329 35.649 244.404 35.4041L269.155 33.4657C269.453 33.4186 269.779 33.4245 270.081 33.4062C270.512 37.1007 270.729 40.8593 271.005 44.5705C269.727 44.7239 268.417 44.7761 267.132 44.8769L259.371 45.4822L237.081 47.1897L236.029 47.2845C235.71 43.5799 235.298 39.8321 235.163 36.1179Z" fill="white"/>
<path d="M223.913 37.0442C224.037 36.7602 224.181 36.4753 224.365 36.2246C224.84 35.5772 225.435 35.3034 226.209 35.1927C226.876 35.1785 227.465 35.2796 228.013 35.6887C228.546 36.0876 228.932 36.7136 229.026 37.3755C229.116 38.0526 228.92 38.7366 228.486 39.2636C228.092 39.7443 227.38 40.1477 226.747 40.192C226.174 40.2322 225.18 39.9752 224.75 39.5711C224.645 39.4727 224.641 39.444 224.633 39.309C224.781 39.1847 224.955 39.209 225.139 39.2038L225.235 39.2017C226.076 39.1262 227.569 39.2396 228.177 38.5481C228.341 38.3628 228.417 38.1183 228.4 37.873C228.378 37.5626 228.258 37.2752 228.016 37.0738C227.428 36.5853 224.745 36.9895 223.913 37.0442Z" fill="#1976D2"/>
<path d="M214.804 39.6131C214.608 39.5964 214.433 39.5751 214.285 39.4289C214.175 39.3208 214.147 39.18 214.141 39.0325C214.134 38.8463 214.186 38.6524 214.324 38.5204C214.464 38.3859 214.657 38.3586 214.841 38.3296C216.398 38.0846 218.039 38.0316 219.61 37.8972C222.165 37.6788 224.721 37.4233 227.278 37.252C227.382 37.2585 227.525 37.272 227.618 37.3154C227.775 37.3876 227.874 37.5112 227.923 37.6755C227.986 37.8862 227.947 38.1226 227.808 38.2949C227.7 38.4281 227.567 38.4909 227.405 38.5275C226.328 38.7698 224.52 38.8229 223.323 38.932C220.497 39.1892 217.639 39.4959 214.804 39.6131Z" fill="white"/>
<path d="M217.714 48.4873C217.599 47.7019 216.884 40.2235 216.944 40.0224C216.954 39.9885 216.982 39.9628 217.001 39.933L217.257 39.8938L218.343 39.835C218.491 40.7678 219.234 47.9329 219.137 48.2593C219.123 48.3034 219.084 48.3348 219.057 48.3725L218.785 48.4055C218.432 48.4521 218.068 48.4627 217.714 48.4873Z" fill="white"/>
<path d="M225.003 47.8656C225.076 47.7381 225.153 47.6124 225.233 47.4888C225.742 46.7074 226.409 46.3498 227.297 46.1577C227.515 46.1434 227.74 46.1456 227.957 46.1806C228.586 46.2802 229.151 46.6258 229.526 47.1412C229.919 47.6949 230.063 48.3882 229.922 49.0527C229.783 49.7215 229.354 50.3035 228.779 50.6665C228.208 51.027 227.518 51.1182 226.864 50.9718C226.355 50.8578 225.746 50.5746 225.456 50.1242L225.525 50.0351C226.173 49.9386 226.826 49.9073 227.476 49.8342C227.908 49.7858 228.428 49.6629 228.701 49.2927C228.873 49.0601 228.902 48.7591 228.839 48.4826C228.752 48.0989 228.456 47.894 228.143 47.6951C227.115 47.6008 226.029 47.7787 225.003 47.8656Z" fill="#1976D2"/>
<path d="M216.312 50.4418C216.039 50.468 215.69 50.562 215.434 50.4453C215.255 50.364 215.123 50.1765 215.062 49.9928C215.003 49.8135 215.018 49.6012 215.128 49.4435C215.246 49.2749 215.419 49.2062 215.611 49.1667C216.618 48.9606 217.833 48.9599 218.874 48.8656C221.623 48.6171 224.384 48.4259 227.124 48.0973C227.128 48.0964 227.132 48.0951 227.136 48.0946C227.459 48.053 227.83 47.9806 228.114 48.1803C228.274 48.2929 228.398 48.4747 228.416 48.6725C228.431 48.8354 228.371 48.9718 228.269 49.0945C228.168 49.2145 227.984 49.3058 227.834 49.3419C226.986 49.5457 225.439 49.6116 224.524 49.6942C221.792 49.9408 219.031 50.099 216.312 50.4418Z" fill="white"/>
<path d="M217.837 50.7731C218.188 50.7198 218.547 50.6985 218.9 50.6654C219.076 50.6456 219.237 50.6057 219.4 50.6914C219.586 51.4646 219.577 52.3617 219.642 53.1587C219.806 55.1369 219.922 57.1331 220.159 59.1032L219.259 59.1757C219.072 59.2016 218.914 59.2342 218.73 59.1752C218.538 58.7746 217.96 51.8733 217.837 50.7731Z" fill="white"/>
<path d="M280.473 54.958C281.969 54.8731 283.465 54.6448 284.951 54.4523L285.185 54.4336C285.462 54.7345 285.858 61.2231 285.915 62.1617C284.413 62.2808 282.906 62.499 281.409 62.6726L281.245 62.6783C281.1 62.4567 280.564 55.7865 280.473 54.958Z" fill="white"/>
<path d="M225.831 58.6351L225.879 58.5358C226.325 57.6378 226.908 57.2423 227.835 56.943C228.628 56.8734 229.372 57.0353 229.991 57.5684C230.505 58.0116 230.825 58.6834 230.856 59.3609C230.888 60.0485 230.591 60.7115 230.119 61.2021C229.642 61.7006 228.984 61.986 228.294 61.9935C227.481 61.9983 226.858 61.6169 226.299 61.0665C226.236 60.9804 226.196 60.9063 226.15 60.8113C226.492 60.5493 227.902 60.6551 228.412 60.5728C228.824 60.5065 229.182 60.3601 229.425 60.0024C229.573 59.7833 229.619 59.5288 229.563 59.2706C229.477 58.8765 229.259 58.6969 228.94 58.4765C227.93 58.3604 226.843 58.544 225.831 58.6351Z" fill="#1976D2"/>
<path d="M241.156 104.005C241.149 104.007 241.141 104.009 241.134 104.01C240.962 104.025 240.919 104.053 240.772 103.956C240.412 102.816 240.289 100.013 240.174 98.6981L239.301 89.0199L237.428 68.7235L236.942 63.1734C236.861 62.242 236.69 61.2332 236.744 60.3036C237.361 60.0282 248.365 59.2328 249.816 59.1164C257.241 58.4632 264.669 57.8501 272.1 57.2773C272.322 57.2563 272.5 57.2259 272.71 57.3157C272.859 57.49 272.867 57.7943 272.895 58.0217C273.137 60.0249 273.257 62.055 273.43 64.0661L274.401 75.6303L276.564 101.185C271.711 101.497 266.855 102.013 262.006 102.4L241.156 104.005ZM271.5 57.8022C264.251 58.3465 257.005 58.9387 249.764 59.579L241.401 60.2776C240.014 60.3955 238.583 60.4485 237.207 60.6465C237.351 63.4173 237.658 66.2023 237.915 68.9659L238.814 68.8923L261.848 66.9759C265.61 66.6625 269.37 66.2984 273.135 66.0305C272.977 64.3522 272.835 62.6726 272.709 60.9915C272.627 59.931 272.612 58.7837 272.387 57.7439L271.5 57.8022ZM272.769 66.5209C269.221 66.7317 265.673 67.1119 262.131 67.4107L247.582 68.5859C244.41 68.8568 241.117 69.2491 237.953 69.39C238.097 71.1612 238.254 72.9312 238.424 74.7C238.507 75.6375 238.513 76.6668 238.71 77.5842C238.846 77.6665 239.044 77.623 239.202 77.6078L262.485 75.6845C266.277 75.3688 270.11 75.1883 273.889 74.7545L273.425 69.2684C273.345 68.3725 273.307 67.4486 273.151 66.5632C273.009 66.4751 272.93 66.5097 272.769 66.5209ZM273.663 75.2511L238.75 78.0846C238.838 79.0767 239.313 85.7948 239.514 86.1048C239.591 86.1097 239.668 86.1193 239.744 86.1124L274.607 83.3228C274.502 82.2426 274.016 75.5382 273.861 75.2455L273.663 75.2511ZM274.342 83.7863L252.536 85.5556L243.433 86.317C242.133 86.4165 240.822 86.5583 239.52 86.6007C239.765 88.6055 239.901 90.6308 240.088 92.6425C240.147 93.2772 240.12 94.1886 240.327 94.7808L240.484 94.8155L275.307 92.0521C275.236 91.0115 274.795 84.1359 274.566 83.7848C274.489 83.7811 274.418 83.7734 274.342 83.7863ZM275.131 92.5166L252.928 94.3124L245.027 94.896C243.468 95.0144 241.898 95.1091 240.346 95.3025L240.818 100.635C240.902 101.563 240.926 102.55 241.098 103.464C241.216 103.533 241.212 103.523 241.338 103.525C244.587 103.172 247.878 103.039 251.138 102.785C259.455 102.161 267.768 101.486 276.077 100.761C275.913 98.9559 275.759 97.1503 275.615 95.344C275.539 94.4257 275.518 93.4549 275.35 92.5504C275.235 92.4754 275.255 92.495 275.131 92.5166Z" fill="#131415"/>
<path d="M237.208 60.6467C238.583 60.4487 240.015 60.3957 241.401 60.2778L249.764 59.5792C257.005 58.9389 264.251 58.3467 271.5 57.8024L272.387 57.7441C272.612 58.7839 272.627 59.9312 272.71 60.9917C272.836 62.6728 272.977 64.3524 273.135 66.0307C269.37 66.2986 265.61 66.6627 261.848 66.9761L238.814 68.8925L237.915 68.9661C237.658 66.2025 237.351 63.4175 237.208 60.6467Z" fill="white"/>
<path d="M217.308 61.1175C217.069 61.1443 216.682 61.2108 216.456 61.1181C216.317 61.0609 216.228 60.9864 216.164 60.8485C216.069 60.6425 216.004 60.3092 216.128 60.1028C216.24 59.9175 216.45 59.8859 216.645 59.8501C217.954 59.6105 219.402 59.631 220.734 59.5274C223.099 59.3262 225.463 59.1108 227.826 58.8813C228.085 58.8516 228.431 58.792 228.678 58.8945C228.872 58.9744 229.104 59.1719 229.162 59.3798C229.201 59.5178 229.184 59.6645 229.097 59.7802C228.938 59.9921 228.655 60.0689 228.409 60.1173C227.338 60.3282 226.171 60.332 225.078 60.4346C222.49 60.6855 219.9 60.9132 217.308 61.1175Z" fill="white"/>
<path d="M218.908 61.4526L219.56 61.3976L220.38 61.3281C220.432 62.486 220.566 63.648 220.67 64.8025C220.824 66.5169 220.972 68.2374 221.182 69.946L220.549 70.0092C220.26 70.0228 219.972 70.065 219.685 70.0988C219.403 67.219 219.143 64.3368 218.908 61.4526Z" fill="white"/>
<path d="M281.238 63.1196C282.808 62.9836 284.368 62.7681 285.937 62.6152C286.125 63.0888 286.592 69.5656 286.679 70.6309C285.111 70.7632 283.551 70.994 281.983 71.1334C281.788 70.893 281.294 64.0729 281.238 63.1196Z" fill="#1976D2"/>
<path d="M237.953 69.3902C241.117 69.2492 244.41 68.857 247.582 68.586L262.131 67.4108C265.673 67.112 269.221 66.7318 272.769 66.521C272.93 66.5098 273.009 66.4752 273.151 66.5634C273.307 67.4487 273.345 68.3727 273.426 69.2685L273.889 74.7546C270.111 75.1885 266.277 75.3689 262.485 75.6846L239.202 77.608C239.044 77.6231 238.846 77.6666 238.71 77.5844C238.513 76.6669 238.507 75.6376 238.424 74.7002C238.254 72.9313 238.097 71.1613 237.953 69.3902Z" fill="white"/>
<path d="M226.949 69.4785C227.063 69.2446 227.173 68.9905 227.322 68.7771C227.782 68.12 228.369 67.8701 229.133 67.7334C229.85 67.7464 230.481 67.9001 231.021 68.3993C231.52 68.86 231.834 69.5339 231.839 70.2152C231.845 70.8758 231.573 71.5086 231.09 71.9591C230.552 72.4684 229.819 72.6998 229.084 72.6478C228.325 72.594 227.707 72.2271 227.228 71.6513C228.103 71.5272 229.763 71.6381 230.412 71.0118C230.597 70.833 230.688 70.601 230.69 70.3448C230.691 70.0863 230.615 69.8405 230.425 69.659C229.774 69.0354 227.82 69.4263 226.949 69.4785Z" fill="#1976D2"/>
<path d="M217.846 72.0346C217.678 72.0536 217.489 72.0538 217.335 71.9714C217.143 71.8683 216.996 71.6567 216.965 71.4416C216.94 71.276 216.979 71.1054 217.088 70.9758C217.247 70.7859 217.475 70.7479 217.704 70.7072C218.919 70.492 220.237 70.4952 221.47 70.3888C224.079 70.1449 226.691 69.9254 229.305 69.7301C229.525 69.7068 229.766 69.6919 229.955 69.8282C230.12 69.9476 230.241 70.1444 230.263 70.3476C230.279 70.4872 230.215 70.6148 230.127 70.7166C229.984 70.8822 229.753 70.9183 229.548 70.956C228.201 71.2041 226.749 71.2437 225.381 71.3661L217.846 72.0346Z" fill="white"/>
<path d="M281.947 71.5839C283.519 71.467 285.095 71.2567 286.662 71.085C286.866 71.3883 287.355 77.9765 287.445 78.93C285.878 79.0975 284.311 79.2572 282.742 79.4089L282.654 79.349C282.458 78.5351 282.47 77.5709 282.399 76.7315L281.947 71.5839Z" fill="white"/>
<path d="M219.889 72.3001L220.7 72.2306C220.908 72.1962 221.14 72.2063 221.351 72.1973C221.764 75.0488 221.881 77.9672 222.209 80.8333L221.426 80.9073C221.187 80.9357 220.935 80.9324 220.695 80.9439C220.613 79.6983 220.469 78.45 220.358 77.206C220.212 75.5708 220.09 73.9295 219.889 72.3001Z" fill="white"/>
<path d="M238.75 78.0842L273.663 75.2508L273.861 75.2451C274.016 75.5379 274.503 82.2423 274.607 83.3225L239.745 86.1121C239.668 86.119 239.591 86.1094 239.515 86.1045C239.314 85.7945 238.839 79.0764 238.75 78.0842Z" fill="white"/>
<path d="M227.979 80.3391C228.069 80.128 228.158 79.9105 228.275 79.7128C228.683 79.0262 229.282 78.6992 230.03 78.5035C230.059 78.5006 230.088 78.4974 230.117 78.4951C230.845 78.4361 231.595 78.6439 232.141 79.1424C232.633 79.5924 232.935 80.2728 232.952 80.9384C232.97 81.6328 232.668 82.3089 232.188 82.8036C231.729 83.2763 231.135 83.5381 230.476 83.5462C229.565 83.5574 228.839 83.1288 228.201 82.5201C229.118 82.2586 230.847 82.6192 231.498 81.8345C231.702 81.5891 231.788 81.2367 231.749 80.9218C231.723 80.7037 231.614 80.5154 231.44 80.3815C230.699 79.8111 228.889 80.2577 227.979 80.3391Z" fill="#1976D2"/>
<path d="M282.688 79.8597C284.124 79.7415 285.559 79.5691 286.991 79.4189C287.17 79.3933 287.278 79.3763 287.456 79.4291C287.675 80.1776 287.646 81.1649 287.713 81.9538C287.867 83.8462 288.035 85.7373 288.219 87.627C286.833 87.7956 285.433 87.925 284.041 88.0456C283.839 88.0714 283.612 88.1319 283.418 88.0539C283.263 87.2831 283.259 86.4337 283.196 85.6485C283.043 83.7258 282.952 81.7702 282.688 79.8597Z" fill="#1976D2"/>
<path d="M219.07 82.8433C218.761 82.8706 218.26 82.9728 217.985 82.8017C217.846 82.7149 217.764 82.5369 217.737 82.3798C217.708 82.2144 217.737 82.0307 217.844 81.8974C217.988 81.7182 218.224 81.6808 218.437 81.6453C219.738 81.4286 221.126 81.3923 222.443 81.2785C225.053 81.0599 227.661 80.8256 230.267 80.5754C230.519 80.5446 230.836 80.5306 231.063 80.6638C231.203 80.7469 231.303 80.8833 231.34 81.0418C231.38 81.2076 231.347 81.373 231.25 81.5128C231.115 81.7092 230.842 81.7571 230.625 81.8C229.444 82.0329 228.137 82.0558 226.931 82.1641L219.07 82.8433Z" fill="white"/>
<path d="M220.921 83.1884C221.339 83.13 221.767 83.1119 222.188 83.0801L222.341 83.1036C222.527 83.4598 223.101 90.7151 223.174 91.6832C222.746 91.7043 222.319 91.7339 221.893 91.7722C221.777 91.7646 221.839 91.7792 221.711 91.7099C221.4 88.8751 221.194 86.0273 220.921 83.1884Z" fill="white"/>
<path d="M239.52 86.6009C240.822 86.5585 242.134 86.4167 243.433 86.3172L252.537 85.5558L274.342 83.7865C274.419 83.7736 274.49 83.7813 274.567 83.785C274.796 84.1361 275.236 91.0117 275.307 92.0523L240.484 94.8157L240.328 94.7809C240.12 94.1888 240.147 93.2774 240.088 92.6427C239.902 90.631 239.765 88.6057 239.52 86.6009Z" fill="white"/>
<path d="M283.428 88.5832C285.003 88.3638 286.61 88.2291 288.194 88.0869C288.312 88.2063 288.91 95.4275 288.991 96.1912C287.418 96.2657 285.784 96.5301 284.221 96.7481C284.189 96.7165 284.144 96.694 284.124 96.6535C284.058 96.5189 283.469 89.2378 283.428 88.5832Z" fill="#1976D2"/>
<path d="M228.943 91.1452C228.981 91.0669 229.021 90.9893 229.062 90.9126C229.497 90.1054 230.017 89.6239 230.899 89.3576C231.719 89.3019 232.491 89.399 233.152 89.9347C233.684 90.3651 233.992 91.0142 234.048 91.6904C234.109 92.3746 233.891 93.0544 233.443 93.5755C232.964 94.1359 232.272 94.4709 231.536 94.4997C230.62 94.5397 229.881 94.1207 229.238 93.5153L229.215 93.4423C229.312 93.0801 231.865 93.3764 232.594 92.6746C232.764 92.5111 232.84 92.3121 232.844 92.0782C232.849 91.7904 232.767 91.5096 232.554 91.308C231.903 90.6933 229.828 91.1086 228.943 91.1452Z" fill="#1976D2"/>
<path d="M220.197 93.6584C219.882 93.7011 219.492 93.792 219.192 93.6427C219.012 93.5526 218.851 93.3997 218.806 93.1961C218.764 93.0022 218.826 92.7954 218.954 92.6473C219.059 92.527 219.19 92.4527 219.347 92.4288C220.658 92.2296 222.054 92.2012 223.381 92.0902L230.969 91.4336C231.227 91.4052 231.542 91.3548 231.797 91.4025C232.023 91.445 232.348 91.6405 232.443 91.8571C232.503 91.9947 232.496 92.1413 232.414 92.2679C232.261 92.5057 231.947 92.5978 231.688 92.6528C230.375 92.9322 228.883 92.9027 227.54 93.0118L220.197 93.6584Z" fill="white"/>
<path d="M240.346 95.3026C241.898 95.1091 243.468 95.0144 245.027 94.896L252.928 94.3124L275.131 92.5166C275.255 92.495 275.235 92.4754 275.351 92.5505C275.518 93.4549 275.539 94.4257 275.615 95.344C275.759 97.1503 275.914 98.9559 276.077 100.761C267.769 101.486 259.455 102.161 251.138 102.785C247.878 103.039 244.587 103.172 241.338 103.525C241.212 103.523 241.216 103.533 241.098 103.464C240.926 102.55 240.902 101.563 240.818 100.635L240.346 95.3026Z" fill="white"/>
<path d="M222.498 99.8484C222.299 97.8972 222.064 95.9337 221.93 93.9777C222.408 93.9275 222.887 93.8841 223.366 93.8477C223.695 96.1425 223.87 98.5247 224.024 100.837C223.746 100.633 223.551 100.309 223.291 100.078C223.032 99.8475 222.837 99.82 222.498 99.8484Z" fill="white"/>
<path d="M286.954 96.8638C287.57 96.8357 288.188 96.7508 288.802 96.6853C288.949 96.6643 288.88 96.649 289.006 96.735C289.282 99.5197 289.604 102.313 289.797 105.104C289.886 106.389 289.788 107.459 288.9 108.462C288.494 108.921 287.97 109.3 287.393 109.51C286.456 109.85 285.291 109.837 284.304 109.916C283.009 110.024 281.712 110.123 280.415 110.214L280.224 110.186C279.989 109.776 280.105 108.819 280.109 108.336C281.208 107.674 281.84 107.131 282.427 105.979C284.194 105.937 285.977 105.741 287.74 105.612L286.954 96.8638Z" fill="#1976D2"/>
<path d="M222.498 99.848C222.836 99.8196 223.031 99.8471 223.291 100.078C223.55 100.309 223.746 100.633 224.023 100.836C224.107 101.324 224.14 101.827 224.193 102.319L222.791 102.436C222.653 101.583 222.59 100.707 222.498 99.848Z" fill="white"/>
<path d="M229.956 101.84C230.05 101.605 230.159 101.359 230.296 101.144C230.74 100.45 231.342 100.182 232.115 100.006C232.724 99.9584 233.33 100.129 233.825 100.487C234.378 100.888 234.743 101.531 234.845 102.203C234.95 102.898 234.73 103.588 234.3 104.137C233.877 104.676 233.269 105.032 232.582 105.09C231.673 105.166 230.921 104.788 230.247 104.219L230.17 104.079C230.641 103.606 232.469 104.104 233.193 103.345C233.397 103.132 233.422 102.849 233.405 102.569C233.389 102.308 233.308 102.069 233.098 101.901C232.459 101.392 230.769 101.77 229.956 101.84Z" fill="#1976D2"/>
<path d="M221.319 104.349C221.029 104.372 220.597 104.471 220.332 104.326C220.173 104.24 220.089 104.107 220.05 103.935C219.999 103.71 220.007 103.453 220.155 103.264C220.257 103.133 220.379 103.091 220.537 103.065C221.851 102.843 223.272 102.846 224.604 102.746L231.829 102.141C232.088 102.126 232.422 102.076 232.668 102.164C232.812 102.214 232.917 102.283 232.964 102.433C233.027 102.636 232.964 102.919 232.839 103.086C232.511 103.525 222.741 104.234 221.319 104.349Z" fill="white"/>
<path d="M222.894 104.688C223.325 104.641 223.761 104.615 224.194 104.581L224.291 104.636C224.412 105.028 224.388 105.465 224.415 105.874C224.474 106.747 224.517 107.658 224.723 108.511C225.057 109.903 225.932 111.104 227.154 111.851C227.965 112.342 228.894 112.606 229.843 112.616C230.886 112.619 231.964 112.475 233.006 112.392C234.824 112.242 236.642 112.103 238.462 111.975L260.438 110.208L273.515 109.124L277.022 108.833C277.891 108.76 278.785 108.722 279.634 108.512L279.73 110.266C279.332 110.303 278.93 110.317 278.531 110.337C278.267 110.37 277.999 110.387 277.735 110.41L242.414 113.327L232.588 114.092C231.054 114.214 228.819 114.53 227.333 114.431C226.506 114.376 225.511 113.893 224.89 113.362C223.345 112.039 223.363 110.154 223.196 108.291C223.088 107.091 222.987 105.89 222.894 104.688Z" fill="white"/>
</g>
<path d="M176.332 91.0194C174.017 88.766 172.061 86.8613 170.463 85.3054C168.92 83.6958 167.432 82.1666 166 80.718C164.622 79.2694 163.162 77.7671 161.619 76.2112C160.076 74.6552 158.175 72.8042 155.916 70.6581C155.254 70.0142 154.676 69.4777 154.18 69.0485C153.684 68.6192 153.463 68.1095 153.519 67.5194C153.629 66.7146 153.959 66.1512 154.51 65.8293C155.061 65.4537 155.585 65.0781 156.081 64.7026C156.852 64.1124 157.789 63.2271 158.891 62.0467C160.048 60.8127 161.261 59.4714 162.528 58.0228C163.851 56.5741 165.173 55.0718 166.496 53.5159C167.873 51.9063 169.141 50.4309 170.298 49.0895C171.51 47.7482 172.557 46.6215 173.439 45.7094C174.376 44.7436 175.064 44.1534 175.505 43.9388C175.946 43.7242 176.387 43.6974 176.828 43.8584C177.269 43.9657 177.599 44.0998 177.82 44.2608C178.15 44.529 178.426 44.9314 178.646 45.468C178.922 45.9508 178.839 46.5947 178.398 47.3995C178.233 47.7214 177.902 48.1774 177.406 48.7676C176.965 49.3041 176.442 49.9212 175.836 50.6186C175.285 51.3161 174.679 52.0404 174.017 52.7916C173.411 53.4891 172.86 54.1061 172.364 54.6426C170.436 56.7351 168.424 58.9617 166.33 61.3224C164.291 63.6832 162.308 65.8829 160.379 67.9218C161.757 69.3167 163.272 70.8458 164.925 72.5091C166.633 74.1723 168.369 75.8624 170.132 77.5793C171.896 79.2962 173.632 81.0399 175.34 82.8105C177.048 84.5274 178.646 86.137 180.134 87.6393C180.465 88.0148 180.685 88.4441 180.795 88.9269C180.961 89.3562 180.795 89.839 180.299 90.3756C179.638 91.0731 178.922 91.4755 178.15 91.5828C177.434 91.6901 176.828 91.5023 176.332 91.0194Z" fill="#1976D2"/>
<defs>
<clipPath id="clip0_153_712">
<rect width="89.5045" height="89.5045" fill="white" transform="translate(36.5708 19.1426) rotate(2.16881)"/>
</clipPath>
<clipPath id="clip1_153_712">
<rect width="76.5714" height="91.6122" fill="white" transform="translate(213.673 23.2451)"/>
</clipPath>
</defs>
</svg>
